<?xml version="1.0" encoding="UTF-8"?>
<!DOCTYPE svg PUBLIC "-//W3C//DTD SVG 1.1//EN" "http://www.w3.org/Graphics/SVG/1.1/DTD/svg11.dtd">
<svg xmlns="http://www.w3.org/2000/svg" version="1.1" width="4205px" height="733px" style="shape-rendering:geometricPrecision; text-rendering:geometricPrecision; image-rendering:optimizeQuality; fill-rule:evenodd; clip-rule:evenodd" xmlns:xlink="http://www.w3.org/1999/xlink">
<g><path style="opacity:0.813" fill="#fefefe" d="M 738.5,35.5 C 742.437,35.2065 746.27,35.5399 750,36.5C 750.5,261.166 750.667,485.833 750.5,710.5C 746.5,710.5 742.5,710.5 738.5,710.5C 738.5,485.5 738.5,260.5 738.5,35.5 Z"/></g>
<g><path style="opacity:0.934" fill="#fefefe" d="M 256.5,138.5 C 365.704,133.841 448.537,177.841 505,270.5C 539.479,334.482 546.813,401.482 527,471.5C 494.684,566.484 429.851,625.984 332.5,650C 233.703,667.291 150.536,639.124 83,565.5C 23.8388,491.697 7.17215,409.03 33,317.5C 62.1667,235 118,179.167 200.5,150C 218.97,144.54 237.637,140.707 256.5,138.5 Z M 264.5,164.5 C 343.698,162.031 408.865,190.697 460,250.5C 512.762,319.742 525.095,395.742 497,478.5C 465.205,555.618 408.705,604.118 327.5,624C 243.26,638.987 170.76,616.487 110,556.5C 58.2116,498.374 38.5449,430.707 51,353.5C 71.2126,262.953 125.379,203.12 213.5,174C 230.362,169.303 247.362,166.137 264.5,164.5 Z"/></g>
<g><path style="opacity:0.985" fill="#fefefe" d="M 240.5,211.5 C 266.502,211.333 292.502,211.5 318.5,212C 330.443,213.942 337.943,220.776 341,232.5C 341.333,260.167 341.667,287.833 342,315.5C 344.158,325.658 350.324,331.824 360.5,334C 388.167,334.333 415.833,334.667 443.5,335C 453.156,337.323 459.656,343.157 463,352.5C 464.614,380.132 464.948,407.798 464,435.5C 462.66,447.035 456.493,454.535 445.5,458C 418.833,458.333 392.167,458.667 365.5,459C 353.246,459.591 345.412,465.758 342,477.5C 341.667,505.167 341.333,532.833 341,560.5C 338.939,571.561 332.439,578.394 321.5,581C 293.167,581.667 264.833,581.667 236.5,581C 227.035,578.202 220.868,572.035 218,562.5C 217.667,535.167 217.333,507.833 217,480.5C 214.945,467.115 207.112,459.948 193.5,459C 166.5,458.667 139.5,458.333 112.5,458C 104.333,455.167 98.8333,449.667 96,441.5C 94.3761,413.541 94.0427,385.541 95,357.5C 96.2691,345.459 102.769,337.959 114.5,335C 142.5,334.667 170.5,334.333 198.5,334C 209.339,330.829 215.506,323.662 217,312.5C 217.333,285.167 217.667,257.833 218,230.5C 221.756,219.563 229.256,213.23 240.5,211.5 Z"/></g>
<g><path style="opacity:0.958" fill="#fefefe" d="M 3987.5,218.5 C 3996.83,218.5 4006.17,218.5 4015.5,218.5C 4015.33,258.168 4015.5,297.835 4016,337.5C 4030.84,316.823 4051,304.989 4076.5,302C 4095.01,299.841 4113.01,301.841 4130.5,308C 4158.94,321.329 4174.1,343.829 4176,375.5C 4176.5,419.832 4176.67,464.165 4176.5,508.5C 4166.83,508.5 4157.17,508.5 4147.5,508.5C 4147.67,464.832 4147.5,421.165 4147,377.5C 4140.75,344.602 4120.75,327.935 4087,327.5C 4041.13,330.042 4017.46,354.375 4016,400.5C 4015.5,436.498 4015.33,472.498 4015.5,508.5C 4006.19,509.354 3996.86,509.687 3987.5,509.5C 3987.5,412.5 3987.5,315.5 3987.5,218.5 Z"/></g>
<g><path style="opacity:0.979" fill="#fefefe" d="M 3723.5,219.5 C 3733.17,219.5 3742.83,219.5 3752.5,219.5C 3752.5,316.167 3752.5,412.833 3752.5,509.5C 3743.17,509.5 3733.83,509.5 3724.5,509.5C 3724.76,412.829 3724.43,316.162 3723.5,219.5 Z"/></g>
<g><path style="opacity:0.959" fill="#fefefe" d="M 2955.5,236.5 C 2965.5,236.5 2975.5,236.5 2985.5,236.5C 2985.5,276.833 2985.5,317.167 2985.5,357.5C 3041.83,357.5 3098.17,357.5 3154.5,357.5C 3154.5,317.167 3154.5,276.833 3154.5,236.5C 3164.17,236.5 3173.83,236.5 3183.5,236.5C 3184.49,327.471 3184.83,418.471 3184.5,509.5C 3174.5,509.5 3164.5,509.5 3154.5,509.5C 3154.5,467.5 3154.5,425.5 3154.5,383.5C 3098.17,383.5 3041.83,383.5 2985.5,383.5C 2985.5,425.5 2985.5,467.5 2985.5,509.5C 2975.51,510.113 2965.51,510.447 2955.5,510.5C 2955.5,419.167 2955.5,327.833 2955.5,236.5 Z"/></g>
<g><path style="opacity:0.943" fill="#fefefe" d="M 1200.5,237.5 C 1208.75,237.184 1216.92,237.518 1225,238.5C 1225.5,329.499 1225.67,420.499 1225.5,511.5C 1215.83,511.5 1206.17,511.5 1196.5,511.5C 1196.67,439.833 1196.5,368.166 1196,296.5C 1160.96,356.749 1125.79,416.915 1090.5,477C 1085.47,477.829 1080.47,477.662 1075.5,476.5C 1040.75,417.047 1005.92,357.713 971,298.5C 970.5,369.499 970.333,440.499 970.5,511.5C 960.833,511.5 951.167,511.5 941.5,511.5C 941.5,420.5 941.5,329.5 941.5,238.5C 950.085,238.183 958.585,238.517 967,239.5C 1005.96,306.07 1044.96,372.737 1084,439.5C 1122.71,371.992 1161.54,304.658 1200.5,237.5 Z"/></g>
<g><path style="opacity:0.944" fill="#fefefe" d="M 3833.5,258.5 C 3843.17,258.5 3852.83,258.5 3862.5,258.5C 3862.5,273.167 3862.5,287.833 3862.5,302.5C 3883.5,302.5 3904.5,302.5 3925.5,302.5C 3925.5,310.833 3925.5,319.167 3925.5,327.5C 3904.5,327.5 3883.5,327.5 3862.5,327.5C 3862.33,369.501 3862.5,411.501 3863,453.5C 3864.08,470.096 3872.58,480.596 3888.5,485C 3903.13,487.549 3916.3,484.383 3928,475.5C 3932.39,481.885 3935.89,488.718 3938.5,496C 3925.7,506.598 3910.87,511.432 3894,510.5C 3856.63,510.467 3836.63,491.8 3834,454.5C 3833.5,412.168 3833.33,369.835 3833.5,327.5C 3821.5,327.5 3809.5,327.5 3797.5,327.5C 3797.5,319.167 3797.5,310.833 3797.5,302.5C 3809.5,302.5 3821.5,302.5 3833.5,302.5C 3833.5,287.833 3833.5,273.167 3833.5,258.5 Z"/></g>
<g><path style="opacity:0.946" fill="#fefefe" d="M 2468.5,259.5 C 2474.5,259.5 2480.5,259.5 2486.5,259.5C 2486.5,274.5 2486.5,289.5 2486.5,304.5C 2507.17,304.5 2527.83,304.5 2548.5,304.5C 2548.5,312.5 2548.5,320.5 2548.5,328.5C 2527.83,328.5 2507.17,328.5 2486.5,328.5C 2486.07,373.519 2486.57,418.519 2488,463.5C 2491.6,475.433 2499.43,482.933 2511.5,486C 2526.43,488.724 2539.93,485.558 2552,476.5C 2555.69,483.263 2559.19,490.096 2562.5,497C 2558.1,501.243 2553.1,504.576 2547.5,507C 2542.83,508.333 2538.17,509.667 2533.5,511C 2523.17,511.667 2512.83,511.667 2502.5,511C 2474.2,504.369 2459.37,486.536 2458,457.5C 2457.5,414.835 2457.33,372.168 2457.5,329.5C 2445.5,329.5 2433.5,329.5 2421.5,329.5C 2421.5,321.167 2421.5,312.833 2421.5,304.5C 2433.5,304.5 2445.5,304.5 2457.5,304.5C 2457.5,289.833 2457.5,275.167 2457.5,260.5C 2461.37,260.815 2465.04,260.482 2468.5,259.5 Z"/></g>
<g><path style="opacity:0.934" fill="#fefefe" d="M 2682.5,301.5 C 2713.09,301.191 2739.76,311.024 2762.5,331C 2791.35,363.765 2799.51,401.265 2787,443.5C 2769.3,488.201 2736.3,511.201 2688,512.5C 2631.17,510 2596.5,481 2584,425.5C 2577.53,381.782 2591.69,346.616 2626.5,320C 2643.77,309.644 2662.44,303.478 2682.5,301.5 Z M 2676.5,328.5 C 2718.85,325.233 2746.68,343.566 2760,383.5C 2766.27,411.004 2761.6,436.337 2746,459.5C 2721.94,485.048 2693.1,492.215 2659.5,481C 2627.55,466.312 2611.88,441.145 2612.5,405.5C 2614.3,363.384 2635.63,337.717 2676.5,328.5 Z"/></g>
<g><path style="opacity:0.928" fill="#fefefe" d="M 3339.5,301.5 C 3387.75,300.657 3420.92,322.324 3439,366.5C 3444.11,382.43 3446.28,398.763 3445.5,415.5C 3388.5,415.5 3331.5,415.5 3274.5,415.5C 3278.65,452.491 3298.98,475.325 3335.5,484C 3366.98,489.394 3393.81,480.894 3416,458.5C 3421.85,464.376 3427.35,470.543 3432.5,477C 3423.1,489.378 3411.1,498.378 3396.5,504C 3360.13,516.372 3325.13,513.538 3291.5,495.5C 3260.03,473.902 3244.37,443.902 3244.5,405.5C 3244.78,365.412 3261.78,334.912 3295.5,314C 3309.42,306.855 3324.09,302.689 3339.5,301.5 Z M 3337.5,327.5 C 3383.39,326.413 3409.73,348.413 3416.5,393.5C 3369.26,393.17 3322.09,393.503 3275,394.5C 3278.81,356.195 3299.64,333.862 3337.5,327.5 Z"/></g>
<g><path style="opacity:0.931" fill="#fefefe" d="M 3554.5,301.5 C 3574.17,300.264 3593.17,303.097 3611.5,310C 3632.88,321.06 3645.38,338.56 3649,362.5C 3649.33,368.167 3649.67,373.833 3650,379.5C 3650.83,422.738 3650.66,465.904 3649.5,509C 3640.59,509.816 3631.76,509.65 3623,508.5C 3622.67,499.167 3622.33,489.833 3622,480.5C 3609.83,497.283 3593.33,507.117 3572.5,510C 3551.65,512.677 3531.31,510.677 3511.5,504C 3483.04,489.237 3472.21,466.07 3479,434.5C 3485.16,416.342 3497.32,404.175 3515.5,398C 3520.85,396.654 3526.18,395.321 3531.5,394C 3561.38,392.914 3591.22,392.08 3621,391.5C 3624.74,349.408 3605.57,328.075 3563.5,327.5C 3538.54,327.717 3516.54,335.55 3497.5,351C 3496.36,351.749 3495.36,351.583 3494.5,350.5C 3490.63,343.926 3486.63,337.426 3482.5,331C 3497.25,317.627 3514.58,308.96 3534.5,305C 3541.31,303.864 3547.98,302.698 3554.5,301.5 Z M 3544.5,414.5 C 3570.17,414.5 3595.83,414.5 3621.5,414.5C 3626.96,446.688 3614.96,469.521 3585.5,483C 3569.79,487.728 3553.79,488.728 3537.5,486C 3511.07,477.96 3501.57,460.793 3509,434.5C 3511.45,430.717 3514.28,427.217 3517.5,424C 3521.47,422.016 3525.47,420.016 3529.5,418C 3534.69,417.09 3539.69,415.924 3544.5,414.5 Z"/></g>
<g><path style="opacity:0.938" fill="#fefefe" d="M 2282.5,302.5 C 2302,301.237 2320.67,304.403 2338.5,312C 2357.73,322.906 2370.23,339.072 2376,360.5C 2376.68,365.892 2377.68,371.225 2379,376.5C 2379.5,421.165 2379.67,465.832 2379.5,510.5C 2369.83,510.5 2360.17,510.5 2350.5,510.5C 2350.28,466.831 2349.78,423.164 2349,379.5C 2343.77,346.023 2324.1,329.356 2290,329.5C 2245.42,330.96 2221.75,353.96 2219,398.5C 2218.5,435.832 2218.33,473.165 2218.5,510.5C 2208.92,510.818 2199.42,510.485 2190,509.5C 2189.33,441.5 2189.33,373.5 2190,305.5C 2199.08,304.515 2208.25,304.182 2217.5,304.5C 2217.33,316.171 2217.5,327.838 2218,339.5C 2229.85,322.305 2246.02,311.138 2266.5,306C 2272.08,305.354 2277.41,304.188 2282.5,302.5 Z"/></g>
<g><path style="opacity:0.929" fill="#fefefe" d="M 1380.5,303.5 C 1423.42,302.326 1455.26,320.326 1476,357.5C 1484.6,376.23 1487.93,395.897 1486,416.5C 1429.24,417.498 1372.4,417.831 1315.5,417.5C 1320.29,454.789 1340.96,477.623 1377.5,486C 1401.24,489.719 1423.24,485.385 1443.5,473C 1448.05,468.946 1452.71,465.113 1457.5,461.5C 1459.73,462.219 1461.56,463.552 1463,465.5C 1466.49,470.319 1470.32,474.819 1474.5,479C 1464.28,490.858 1451.94,499.858 1437.5,506C 1401.59,518.212 1366.92,515.545 1333.5,498C 1301.7,476.556 1285.7,446.389 1285.5,407.5C 1288.78,346.569 1320.44,311.902 1380.5,303.5 Z M 1378.5,329.5 C 1424.34,328.697 1451,350.697 1458.5,395.5C 1410.93,395.17 1363.43,395.503 1316,396.5C 1318.43,367.099 1332.93,346.266 1359.5,334C 1365.84,331.997 1372.17,330.497 1378.5,329.5 Z"/></g>
<g><path style="opacity:0.941" fill="#fefefe" d="M 1635.5,303.5 C 1655.51,302.277 1674.17,306.443 1691.5,316C 1702.27,323.38 1710.61,332.88 1716.5,344.5C 1736.19,316.44 1763.52,302.773 1798.5,303.5C 1843.5,303.41 1870.34,325.41 1879,369.5C 1880.14,415.846 1880.97,462.18 1881.5,508.5C 1881.17,509.167 1880.83,509.833 1880.5,510.5C 1870.86,511.498 1861.19,511.832 1851.5,511.5C 1851.67,468.832 1851.5,426.165 1851,383.5C 1847.07,348.898 1827.73,330.898 1793,329.5C 1749.56,332.946 1727.23,356.612 1726,400.5C 1725.95,437.498 1726.12,474.498 1726.5,511.5C 1716.5,511.5 1706.5,511.5 1696.5,511.5C 1696.67,469.165 1696.5,426.832 1696,384.5C 1692.86,349.239 1673.53,330.906 1638,329.5C 1594.46,333.046 1572.12,356.713 1571,400.5C 1570.5,437.498 1570.33,474.498 1570.5,511.5C 1560.83,511.5 1551.17,511.5 1541.5,511.5C 1541.5,442.833 1541.5,374.167 1541.5,305.5C 1550.83,305.5 1560.17,305.5 1569.5,305.5C 1569.33,316.838 1569.5,328.172 1570,339.5C 1586.27,317.447 1608.1,305.447 1635.5,303.5 Z"/></g>
<g><path style="opacity:0.923" fill="#fefefe" d="M 2018.5,303.5 C 2048.54,300.043 2075.54,307.21 2099.5,325C 2125.65,349.628 2137.15,380.128 2134,416.5C 2077.24,417.331 2020.4,417.831 1963.5,418C 1969.22,456.384 1991.22,479.05 2029.5,486C 2059.3,489.401 2084.8,480.901 2106,460.5C 2112.56,466.039 2117.89,472.372 2122,479.5C 2101.56,501.721 2076.06,513.055 2045.5,513.5C 2019.1,513.307 1995.1,505.974 1973.5,491.5C 1951.54,473.327 1938.7,449.994 1935,421.5C 1930.12,379.447 1944.29,345.613 1977.5,320C 1990.17,311.921 2003.84,306.421 2018.5,303.5 Z M 2027.5,328.5 C 2072.65,327.984 2098.98,349.984 2106.5,394.5C 2058.83,394.667 2011.17,394.5 1963.5,394C 1968.97,356.364 1990.3,334.531 2027.5,328.5 Z"/></g>
</svg>
