<?xml version="1.0" encoding="UTF-8"?>
<!DOCTYPE svg PUBLIC "-//W3C//DTD SVG 1.1//EN" "http://www.w3.org/Graphics/SVG/1.1/DTD/svg11.dtd">
<svg xmlns="http://www.w3.org/2000/svg" version="1.1" width="4243px" height="739px" style="shape-rendering:geometricPrecision; text-rendering:geometricPrecision; image-rendering:optimizeQuality; fill-rule:evenodd; clip-rule:evenodd" xmlns:xlink="http://www.w3.org/1999/xlink">
<g><path style="opacity:0.813" fill="#fefefe" d="M 755.5,26.5 C 759.437,26.2065 763.27,26.5399 767,27.5C 767.5,252.166 767.667,476.833 767.5,701.5C 763.5,701.5 759.5,701.5 755.5,701.5C 755.5,476.5 755.5,251.5 755.5,26.5 Z"/></g>
<g><path style="opacity:0.965" fill="#faf8f7" d="M 273.5,129.5 C 382.704,124.841 465.537,168.841 522,261.5C 556.479,325.482 563.813,392.482 544,462.5C 511.684,557.484 446.851,616.984 349.5,641C 250.703,658.291 167.536,630.124 100,556.5C 40.8388,482.697 24.1721,400.03 50,308.5C 79.1667,226 135,170.167 217.5,141C 235.97,135.54 254.637,131.707 273.5,129.5 Z M 281.5,155.5 C 360.698,153.031 425.865,181.697 477,241.5C 529.762,310.742 542.095,386.742 514,469.5C 482.205,546.618 425.705,595.118 344.5,615C 260.26,629.987 187.76,607.487 127,547.5C 75.2116,489.374 55.5449,421.707 68,344.5C 88.2126,253.953 142.379,194.12 230.5,165C 247.362,160.303 264.362,157.137 281.5,155.5 Z"/></g>
<g><path style="opacity:0.992" fill="#fbf8f8" d="M 257.5,202.5 C 283.502,202.333 309.502,202.5 335.5,203C 347.443,204.942 354.943,211.776 358,223.5C 358.333,251.167 358.667,278.833 359,306.5C 361.158,316.658 367.324,322.824 377.5,325C 405.167,325.333 432.833,325.667 460.5,326C 470.156,328.323 476.656,334.157 480,343.5C 481.614,371.132 481.948,398.798 481,426.5C 479.66,438.035 473.493,445.535 462.5,449C 435.833,449.333 409.167,449.667 382.5,450C 370.246,450.591 362.412,456.758 359,468.5C 358.667,496.167 358.333,523.833 358,551.5C 355.939,562.561 349.439,569.394 338.5,572C 310.167,572.667 281.833,572.667 253.5,572C 244.035,569.202 237.868,563.035 235,553.5C 234.667,526.167 234.333,498.833 234,471.5C 231.945,458.115 224.112,450.948 210.5,450C 183.5,449.667 156.5,449.333 129.5,449C 121.333,446.167 115.833,440.667 113,432.5C 111.376,404.541 111.043,376.541 112,348.5C 113.269,336.459 119.769,328.959 131.5,326C 159.5,325.667 187.5,325.333 215.5,325C 226.339,321.829 232.506,314.662 234,303.5C 234.333,276.167 234.667,248.833 235,221.5C 238.756,210.563 246.256,204.23 257.5,202.5 Z"/></g>
<g><path style="opacity:0.959" fill="#fdfbfb" d="M 4004.5,209.5 C 4013.83,209.5 4023.17,209.5 4032.5,209.5C 4032.33,249.168 4032.5,288.835 4033,328.5C 4047.84,307.823 4068,295.989 4093.5,293C 4112.01,290.841 4130.01,292.841 4147.5,299C 4175.94,312.329 4191.1,334.829 4193,366.5C 4193.5,410.832 4193.67,455.165 4193.5,499.5C 4183.83,499.5 4174.17,499.5 4164.5,499.5C 4164.67,455.832 4164.5,412.165 4164,368.5C 4157.75,335.602 4137.75,318.935 4104,318.5C 4058.13,321.042 4034.46,345.375 4033,391.5C 4032.5,427.498 4032.33,463.498 4032.5,499.5C 4023.19,500.354 4013.86,500.687 4004.5,500.5C 4004.5,403.5 4004.5,306.5 4004.5,209.5 Z"/></g>
<g><path style="opacity:0.98" fill="#fcfbfb" d="M 3740.5,210.5 C 3750.17,210.5 3759.83,210.5 3769.5,210.5C 3769.5,307.167 3769.5,403.833 3769.5,500.5C 3760.17,500.5 3750.83,500.5 3741.5,500.5C 3741.76,403.829 3741.43,307.162 3740.5,210.5 Z"/></g>
<g><path style="opacity:0.961" fill="#fcfbfb" d="M 2972.5,227.5 C 2982.5,227.5 2992.5,227.5 3002.5,227.5C 3002.5,267.833 3002.5,308.167 3002.5,348.5C 3058.83,348.5 3115.17,348.5 3171.5,348.5C 3171.5,308.167 3171.5,267.833 3171.5,227.5C 3181.17,227.5 3190.83,227.5 3200.5,227.5C 3201.49,318.471 3201.83,409.471 3201.5,500.5C 3191.5,500.5 3181.5,500.5 3171.5,500.5C 3171.5,458.5 3171.5,416.5 3171.5,374.5C 3115.17,374.5 3058.83,374.5 3002.5,374.5C 3002.5,416.5 3002.5,458.5 3002.5,500.5C 2992.51,501.113 2982.51,501.447 2972.5,501.5C 2972.5,410.167 2972.5,318.833 2972.5,227.5 Z"/></g>
<g><path style="opacity:0.945" fill="#fdfcfc" d="M 1217.5,228.5 C 1225.75,228.184 1233.92,228.518 1242,229.5C 1242.5,320.499 1242.67,411.499 1242.5,502.5C 1232.83,502.5 1223.17,502.5 1213.5,502.5C 1213.67,430.833 1213.5,359.166 1213,287.5C 1177.96,347.749 1142.79,407.915 1107.5,468C 1102.47,468.829 1097.47,468.662 1092.5,467.5C 1057.75,408.047 1022.92,348.713 988,289.5C 987.5,360.499 987.333,431.499 987.5,502.5C 977.833,502.5 968.167,502.5 958.5,502.5C 958.5,411.5 958.5,320.5 958.5,229.5C 967.085,229.183 975.585,229.517 984,230.5C 1022.96,297.07 1061.96,363.737 1101,430.5C 1139.71,362.992 1178.54,295.658 1217.5,228.5 Z"/></g>
<g><path style="opacity:0.948" fill="#fcfcfc" d="M 3850.5,249.5 C 3860.17,249.5 3869.83,249.5 3879.5,249.5C 3879.5,264.167 3879.5,278.833 3879.5,293.5C 3900.5,293.5 3921.5,293.5 3942.5,293.5C 3942.5,301.833 3942.5,310.167 3942.5,318.5C 3921.5,318.5 3900.5,318.5 3879.5,318.5C 3879.33,360.501 3879.5,402.501 3880,444.5C 3881.08,461.096 3889.58,471.596 3905.5,476C 3920.13,478.549 3933.3,475.383 3945,466.5C 3949.39,472.885 3952.89,479.718 3955.5,487C 3942.7,497.598 3927.87,502.432 3911,501.5C 3873.63,501.467 3853.63,482.8 3851,445.5C 3850.5,403.168 3850.33,360.835 3850.5,318.5C 3838.5,318.5 3826.5,318.5 3814.5,318.5C 3814.5,310.167 3814.5,301.833 3814.5,293.5C 3826.5,293.5 3838.5,293.5 3850.5,293.5C 3850.5,278.833 3850.5,264.167 3850.5,249.5 Z"/></g>
<g><path style="opacity:0.95" fill="#fcfbfb" d="M 2485.5,250.5 C 2491.5,250.5 2497.5,250.5 2503.5,250.5C 2503.5,265.5 2503.5,280.5 2503.5,295.5C 2524.17,295.5 2544.83,295.5 2565.5,295.5C 2565.5,303.5 2565.5,311.5 2565.5,319.5C 2544.83,319.5 2524.17,319.5 2503.5,319.5C 2503.07,364.519 2503.57,409.519 2505,454.5C 2508.6,466.433 2516.43,473.933 2528.5,477C 2543.43,479.724 2556.93,476.558 2569,467.5C 2572.69,474.263 2576.19,481.096 2579.5,488C 2575.1,492.243 2570.1,495.576 2564.5,498C 2559.83,499.333 2555.17,500.667 2550.5,502C 2540.17,502.667 2529.83,502.667 2519.5,502C 2491.2,495.369 2476.37,477.536 2475,448.5C 2474.5,405.835 2474.33,363.168 2474.5,320.5C 2462.5,320.5 2450.5,320.5 2438.5,320.5C 2438.5,312.167 2438.5,303.833 2438.5,295.5C 2450.5,295.5 2462.5,295.5 2474.5,295.5C 2474.5,280.833 2474.5,266.167 2474.5,251.5C 2478.37,251.815 2482.04,251.482 2485.5,250.5 Z"/></g>
<g><path style="opacity:0.937" fill="#fcfcfc" d="M 2699.5,292.5 C 2730.09,292.191 2756.76,302.024 2779.5,322C 2808.35,354.765 2816.51,392.265 2804,434.5C 2786.3,479.201 2753.3,502.201 2705,503.5C 2648.17,501 2613.5,472 2601,416.5C 2594.53,372.782 2608.69,337.616 2643.5,311C 2660.77,300.644 2679.44,294.478 2699.5,292.5 Z M 2693.5,319.5 C 2735.85,316.233 2763.68,334.566 2777,374.5C 2783.27,402.004 2778.6,427.337 2763,450.5C 2738.94,476.048 2710.1,483.215 2676.5,472C 2644.55,457.312 2628.88,432.145 2629.5,396.5C 2631.3,354.384 2652.63,328.717 2693.5,319.5 Z"/></g>
<g><path style="opacity:0.931" fill="#fdfcfc" d="M 3356.5,292.5 C 3404.75,291.657 3437.92,313.324 3456,357.5C 3461.11,373.43 3463.28,389.763 3462.5,406.5C 3405.5,406.5 3348.5,406.5 3291.5,406.5C 3295.65,443.491 3315.98,466.325 3352.5,475C 3383.98,480.394 3410.81,471.894 3433,449.5C 3438.85,455.376 3444.35,461.543 3449.5,468C 3440.1,480.378 3428.1,489.378 3413.5,495C 3377.13,507.372 3342.13,504.538 3308.5,486.5C 3277.03,464.902 3261.37,434.902 3261.5,396.5C 3261.78,356.412 3278.78,325.912 3312.5,305C 3326.42,297.855 3341.09,293.689 3356.5,292.5 Z M 3354.5,318.5 C 3400.39,317.413 3426.73,339.413 3433.5,384.5C 3386.26,384.17 3339.09,384.503 3292,385.5C 3295.81,347.195 3316.64,324.862 3354.5,318.5 Z"/></g>
<g><path style="opacity:0.937" fill="#fcfbfb" d="M 3571.5,292.5 C 3591.17,291.264 3610.17,294.097 3628.5,301C 3649.88,312.06 3662.38,329.56 3666,353.5C 3666.33,359.167 3666.67,364.833 3667,370.5C 3667.83,413.738 3667.66,456.904 3666.5,500C 3657.59,500.816 3648.76,500.65 3640,499.5C 3639.67,490.167 3639.33,480.833 3639,471.5C 3626.83,488.283 3610.33,498.117 3589.5,501C 3568.65,503.677 3548.31,501.677 3528.5,495C 3500.04,480.237 3489.21,457.07 3496,425.5C 3502.16,407.342 3514.32,395.175 3532.5,389C 3537.85,387.654 3543.18,386.321 3548.5,385C 3578.38,383.914 3608.22,383.08 3638,382.5C 3641.74,340.408 3622.57,319.075 3580.5,318.5C 3555.54,318.717 3533.54,326.55 3514.5,342C 3513.36,342.749 3512.36,342.583 3511.5,341.5C 3507.63,334.926 3503.63,328.426 3499.5,322C 3514.25,308.627 3531.58,299.96 3551.5,296C 3558.31,294.864 3564.98,293.698 3571.5,292.5 Z M 3561.5,405.5 C 3587.17,405.5 3612.83,405.5 3638.5,405.5C 3643.96,437.688 3631.96,460.521 3602.5,474C 3586.79,478.728 3570.79,479.728 3554.5,477C 3528.07,468.96 3518.57,451.793 3526,425.5C 3528.45,421.717 3531.28,418.217 3534.5,415C 3538.47,413.016 3542.47,411.016 3546.5,409C 3551.69,408.09 3556.69,406.924 3561.5,405.5 Z"/></g>
<g><path style="opacity:0.947" fill="#fcfbfb" d="M 2299.5,293.5 C 2319,292.237 2337.67,295.403 2355.5,303C 2374.73,313.906 2387.23,330.072 2393,351.5C 2393.68,356.892 2394.68,362.225 2396,367.5C 2396.5,412.165 2396.67,456.832 2396.5,501.5C 2386.83,501.5 2377.17,501.5 2367.5,501.5C 2367.28,457.831 2366.78,414.164 2366,370.5C 2360.77,337.023 2341.1,320.356 2307,320.5C 2262.42,321.96 2238.75,344.96 2236,389.5C 2235.5,426.832 2235.33,464.165 2235.5,501.5C 2225.92,501.818 2216.42,501.485 2207,500.5C 2206.33,432.5 2206.33,364.5 2207,296.5C 2216.08,295.515 2225.25,295.182 2234.5,295.5C 2234.33,307.171 2234.5,318.838 2235,330.5C 2246.85,313.305 2263.02,302.138 2283.5,297C 2289.08,296.354 2294.41,295.188 2299.5,293.5 Z"/></g>
<g><path style="opacity:0.932" fill="#fcfcfc" d="M 1397.5,294.5 C 1440.42,293.326 1472.26,311.326 1493,348.5C 1501.6,367.23 1504.93,386.897 1503,407.5C 1446.24,408.498 1389.4,408.831 1332.5,408.5C 1337.29,445.789 1357.96,468.623 1394.5,477C 1418.24,480.719 1440.24,476.385 1460.5,464C 1465.05,459.946 1469.71,456.113 1474.5,452.5C 1476.73,453.219 1478.56,454.552 1480,456.5C 1483.49,461.319 1487.32,465.819 1491.5,470C 1481.28,481.858 1468.94,490.858 1454.5,497C 1418.59,509.212 1383.92,506.545 1350.5,489C 1318.7,467.556 1302.7,437.389 1302.5,398.5C 1305.78,337.569 1337.44,302.902 1397.5,294.5 Z M 1395.5,320.5 C 1441.34,319.697 1468,341.697 1475.5,386.5C 1427.93,386.17 1380.43,386.503 1333,387.5C 1335.43,358.099 1349.93,337.266 1376.5,325C 1382.84,322.997 1389.17,321.497 1395.5,320.5 Z"/></g>
<g><path style="opacity:0.946" fill="#fcfbfb" d="M 1652.5,294.5 C 1672.51,293.277 1691.17,297.443 1708.5,307C 1719.27,314.38 1727.61,323.88 1733.5,335.5C 1753.19,307.44 1780.52,293.773 1815.5,294.5C 1860.5,294.41 1887.34,316.41 1896,360.5C 1897.14,406.846 1897.97,453.18 1898.5,499.5C 1898.17,500.167 1897.83,500.833 1897.5,501.5C 1887.86,502.498 1878.19,502.832 1868.5,502.5C 1868.67,459.832 1868.5,417.165 1868,374.5C 1864.07,339.898 1844.73,321.898 1810,320.5C 1766.56,323.946 1744.23,347.612 1743,391.5C 1742.95,428.498 1743.12,465.498 1743.5,502.5C 1733.5,502.5 1723.5,502.5 1713.5,502.5C 1713.67,460.165 1713.5,417.832 1713,375.5C 1709.86,340.239 1690.53,321.906 1655,320.5C 1611.46,324.046 1589.12,347.713 1588,391.5C 1587.5,428.498 1587.33,465.498 1587.5,502.5C 1577.83,502.5 1568.17,502.5 1558.5,502.5C 1558.5,433.833 1558.5,365.167 1558.5,296.5C 1567.83,296.5 1577.17,296.5 1586.5,296.5C 1586.33,307.838 1586.5,319.172 1587,330.5C 1603.27,308.447 1625.1,296.447 1652.5,294.5 Z"/></g>
<g><path style="opacity:0.926" fill="#fdfcfc" d="M 2035.5,294.5 C 2065.54,291.043 2092.54,298.21 2116.5,316C 2142.65,340.628 2154.15,371.128 2151,407.5C 2094.24,408.331 2037.4,408.831 1980.5,409C 1986.22,447.384 2008.22,470.05 2046.5,477C 2076.3,480.401 2101.8,471.901 2123,451.5C 2129.56,457.039 2134.89,463.372 2139,470.5C 2118.56,492.721 2093.06,504.055 2062.5,504.5C 2036.1,504.307 2012.1,496.974 1990.5,482.5C 1968.54,464.327 1955.7,440.994 1952,412.5C 1947.12,370.447 1961.29,336.613 1994.5,311C 2007.17,302.921 2020.84,297.421 2035.5,294.5 Z M 2044.5,319.5 C 2089.65,318.984 2115.98,340.984 2123.5,385.5C 2075.83,385.667 2028.17,385.5 1980.5,385C 1985.97,347.364 2007.3,325.531 2044.5,319.5 Z"/></g>
</svg>
