<svg id="svg" version="1.1" xmlns="http://www.w3.org/2000/svg" xmlns:xlink="http://www.w3.org/1999/xlink" width="400" height="64.02714932126698" viewBox="0, 0, 400,64.02714932126698"><g id="svgg"><path id="path0" d="M358.539 22.333 C 358.539 22.654,358.573 22.785,358.615 22.625 C 358.657 22.465,358.657 22.202,358.615 22.042 C 358.573 21.881,358.539 22.012,358.539 22.333 M286.217 26.833 C 286.217 27.337,286.248 27.544,286.286 27.292 C 286.324 27.040,286.324 26.627,286.286 26.375 C 286.248 26.123,286.217 26.329,286.217 26.833 M96.217 27.667 C 96.217 28.171,96.248 28.377,96.286 28.125 C 96.324 27.873,96.324 27.460,96.286 27.208 C 96.248 26.956,96.217 27.162,96.217 27.667 M152.705 28.667 C 152.705 28.988,152.740 29.119,152.782 28.958 C 152.823 28.798,152.823 28.535,152.782 28.375 C 152.740 28.215,152.705 28.346,152.705 28.667 M355.705 29.667 C 355.705 29.988,355.740 30.119,355.782 29.958 C 355.823 29.798,355.823 29.535,355.782 29.375 C 355.740 29.215,355.705 29.346,355.705 29.667 M96.217 32.667 C 96.217 33.171,96.248 33.377,96.286 33.125 C 96.324 32.873,96.324 32.460,96.286 32.208 C 96.248 31.956,96.217 32.162,96.217 32.667 M182.073 38.667 C 182.073 41.279,182.096 42.348,182.125 41.042 C 182.153 39.735,182.153 37.598,182.125 36.292 C 182.096 34.985,182.073 36.054,182.073 38.667 M248.209 35.583 C 248.211 35.950,248.245 36.080,248.285 35.873 C 248.324 35.666,248.323 35.366,248.281 35.206 C 248.239 35.047,248.207 35.217,248.209 35.583 M150.039 36.333 C 150.039 36.654,150.073 36.785,150.115 36.625 C 150.157 36.465,150.157 36.202,150.115 36.042 C 150.073 35.881,150.039 36.012,150.039 36.333 M398.570 39.417 C 398.570 41.250,398.594 42.023,398.624 41.134 C 398.654 40.245,398.654 38.745,398.624 37.801 C 398.595 36.856,398.570 37.583,398.570 39.417 M321.708 36.948 C 321.869 36.990,322.131 36.990,322.292 36.948 C 322.452 36.906,322.321 36.872,322.000 36.872 C 321.679 36.872,321.548 36.906,321.708 36.948 M179.212 38.333 C 179.212 38.746,179.245 38.915,179.284 38.708 C 179.324 38.502,179.324 38.165,179.284 37.958 C 179.245 37.752,179.212 37.921,179.212 38.333 " stroke="none" fill="#5464ac" fill-rule="evenodd"></path><path id="path1" d="M68.278 1.278 C 68.217 1.339,68.167 15.289,68.167 32.278 L 68.167 63.167 68.750 63.167 L 69.333 63.167 69.333 32.167 L 69.333 1.167 68.861 1.167 C 68.601 1.167,68.339 1.217,68.278 1.278 M20.833 10.439 C 20.329 10.575,19.785 10.686,19.625 10.686 C 19.465 10.687,19.333 10.751,19.333 10.829 C 19.333 10.907,19.202 10.949,19.042 10.923 C 18.881 10.897,18.656 10.951,18.542 11.042 C 18.427 11.133,18.333 11.159,18.333 11.099 C 18.333 11.040,18.109 11.107,17.835 11.249 C 17.561 11.391,17.298 11.504,17.251 11.500 C 16.966 11.479,16.333 11.728,16.333 11.861 C 16.333 11.948,16.258 11.973,16.167 11.917 C 16.075 11.860,16.000 11.891,16.000 11.985 C 16.000 12.079,15.902 12.119,15.782 12.073 C 15.662 12.027,15.388 12.141,15.173 12.328 C 14.958 12.514,14.738 12.672,14.683 12.679 C 14.177 12.744,13.833 12.901,12.867 13.504 C 12.253 13.889,11.690 14.307,11.617 14.435 C 11.543 14.562,11.413 14.667,11.327 14.667 C 11.050 14.667,9.846 15.577,9.840 15.792 C 9.836 15.906,9.732 16.000,9.609 16.000 C 9.366 16.000,6.115 19.337,6.238 19.460 C 6.279 19.502,6.129 19.720,5.903 19.945 C 5.678 20.170,5.544 20.437,5.606 20.537 C 5.668 20.636,5.644 20.672,5.553 20.616 C 5.031 20.293,2.374 26.028,1.901 28.500 C 1.857 28.729,1.744 29.159,1.649 29.455 C 1.554 29.751,1.520 30.065,1.574 30.152 C 1.628 30.239,1.611 30.348,1.535 30.395 C 1.460 30.441,1.407 30.784,1.416 31.156 C 1.426 31.529,1.381 31.833,1.316 31.833 C 1.128 31.833,1.156 36.301,1.350 37.500 C 1.897 40.865,3.029 44.667,3.485 44.667 C 3.546 44.667,3.608 44.829,3.623 45.027 C 3.638 45.225,3.747 45.449,3.867 45.524 C 3.986 45.600,4.029 45.663,3.962 45.664 C 3.760 45.668,5.451 48.531,5.833 48.833 C 5.891 48.879,6.171 49.254,6.456 49.667 C 6.909 50.324,9.667 53.136,9.667 52.941 C 9.667 52.900,9.910 53.103,10.208 53.392 C 10.811 53.976,11.113 54.197,12.631 55.165 C 13.207 55.533,13.788 55.833,13.922 55.833 C 14.057 55.833,14.167 55.896,14.167 55.972 C 14.167 56.094,15.739 56.913,15.986 56.919 C 16.040 56.921,16.164 56.973,16.263 57.037 C 16.670 57.296,19.506 58.150,20.333 58.263 C 20.654 58.306,21.104 58.387,21.333 58.442 C 23.153 58.876,27.478 58.867,30.000 58.423 C 31.620 58.137,34.547 57.300,34.901 57.020 C 35.001 56.941,35.365 56.786,35.708 56.675 C 36.052 56.565,36.333 56.401,36.333 56.311 C 36.333 56.221,36.402 56.190,36.487 56.242 C 36.571 56.294,36.740 56.239,36.862 56.119 C 36.984 56.000,37.327 55.803,37.625 55.681 C 37.923 55.559,38.167 55.394,38.167 55.313 C 38.167 55.233,38.266 55.167,38.387 55.167 C 39.080 55.167,43.404 51.434,44.329 50.038 C 44.606 49.619,44.833 49.340,44.833 49.417 C 44.833 49.495,45.096 49.189,45.417 48.738 C 45.737 48.287,46.000 47.851,46.000 47.769 C 46.000 47.687,46.108 47.537,46.241 47.435 C 46.373 47.333,46.849 46.538,47.299 45.667 C 48.023 44.265,48.265 43.665,48.340 43.083 C 48.352 42.992,48.437 42.826,48.529 42.716 C 48.620 42.605,48.640 42.425,48.572 42.315 C 48.488 42.179,48.519 42.159,48.669 42.252 C 48.828 42.350,48.861 42.313,48.788 42.121 C 48.731 41.975,48.766 41.828,48.865 41.795 C 48.964 41.762,49.053 41.495,49.064 41.201 C 49.075 40.908,49.124 40.667,49.174 40.667 C 49.276 40.667,49.568 39.301,49.816 37.667 C 50.189 35.209,49.872 29.672,49.296 28.597 C 49.194 28.406,49.130 28.230,49.153 28.205 C 49.248 28.104,48.761 26.500,48.635 26.500 C 48.561 26.500,48.500 26.329,48.500 26.120 C 48.500 25.912,48.390 25.584,48.256 25.392 C 48.122 25.201,48.059 24.997,48.116 24.940 C 48.173 24.882,48.077 24.677,47.902 24.484 C 47.727 24.290,47.613 24.121,47.649 24.108 C 47.786 24.058,47.471 23.333,47.312 23.333 C 47.221 23.333,47.193 23.258,47.250 23.167 C 47.307 23.075,47.274 23.000,47.177 23.000 C 47.079 23.000,47.018 22.944,47.041 22.875 C 47.096 22.706,46.065 20.900,45.705 20.533 C 45.546 20.372,45.309 20.034,45.178 19.782 C 44.816 19.088,41.352 15.601,40.504 15.076 C 40.093 14.822,39.645 14.502,39.507 14.364 C 38.924 13.781,35.425 11.869,34.754 11.767 C 34.660 11.752,34.504 11.691,34.408 11.631 C 34.073 11.421,32.748 11.005,32.408 11.002 C 32.220 11.001,31.995 10.928,31.907 10.840 C 31.818 10.752,31.485 10.643,31.165 10.598 C 30.845 10.553,30.396 10.463,30.167 10.397 C 29.288 10.145,21.804 10.179,20.833 10.439 M28.167 12.734 C 29.832 12.980,32.462 13.643,33.333 14.036 C 33.746 14.222,34.158 14.389,34.250 14.406 C 34.602 14.472,36.626 15.567,37.540 16.186 C 38.066 16.542,38.533 16.833,38.577 16.833 C 38.653 16.833,39.756 17.799,40.622 18.625 C 40.838 18.831,41.099 19.000,41.202 19.000 C 41.305 19.000,41.344 19.045,41.289 19.100 C 41.234 19.155,41.390 19.409,41.636 19.664 C 42.348 20.402,43.000 21.165,43.000 21.259 C 43.000 21.505,44.130 22.981,44.237 22.874 C 44.305 22.806,44.341 22.825,44.316 22.917 C 44.259 23.131,45.196 25.001,45.322 24.924 C 45.374 24.892,45.428 25.055,45.442 25.288 C 45.456 25.520,45.539 25.757,45.626 25.813 C 45.713 25.870,45.825 26.104,45.875 26.333 C 45.925 26.563,46.132 27.200,46.336 27.750 C 47.280 30.299,47.718 36.267,47.108 38.268 C 47.055 38.441,46.972 38.818,46.924 39.106 C 46.805 39.809,45.831 42.710,45.647 42.908 C 45.566 42.995,45.500 43.239,45.500 43.450 C 45.500 43.661,45.425 43.833,45.333 43.833 C 45.242 43.833,45.167 43.912,45.167 44.008 C 45.167 44.104,44.910 44.585,44.595 45.076 C 44.281 45.567,44.069 46.013,44.123 46.068 C 44.178 46.122,44.135 46.167,44.028 46.167 C 43.921 46.167,43.832 46.260,43.830 46.375 C 43.829 46.490,43.641 46.760,43.414 46.976 C 43.186 47.192,43.000 47.445,43.000 47.540 C 43.000 47.634,42.839 47.851,42.641 48.022 C 42.444 48.193,42.343 48.333,42.418 48.333 C 42.493 48.333,42.279 48.568,41.944 48.855 C 41.608 49.141,41.333 49.479,41.333 49.605 C 41.333 49.730,41.255 49.833,41.160 49.833 C 41.065 49.833,40.690 50.127,40.327 50.487 C 39.964 50.846,39.667 51.104,39.667 51.058 C 39.667 51.013,39.565 51.075,39.440 51.196 C 38.734 51.882,38.185 52.296,38.099 52.210 C 38.044 52.156,38.000 52.198,38.000 52.303 C 38.000 52.409,37.753 52.599,37.452 52.725 C 37.150 52.851,36.786 53.071,36.643 53.215 C 36.499 53.358,35.902 53.676,35.316 53.920 C 34.730 54.165,33.987 54.478,33.667 54.616 C 32.308 55.201,31.906 55.340,31.250 55.449 C 30.975 55.495,30.637 55.591,30.500 55.661 C 29.200 56.328,23.006 56.365,20.948 55.718 C 20.506 55.580,20.101 55.511,20.046 55.565 C 19.992 55.619,19.847 55.580,19.724 55.478 C 19.601 55.376,19.500 55.348,19.500 55.417 C 19.500 55.485,19.406 55.466,19.292 55.375 C 19.128 55.245,18.172 54.873,17.667 54.743 C 17.403 54.675,16.858 54.442,16.458 54.228 C 16.206 54.092,15.999 54.042,15.997 54.116 C 15.996 54.190,15.940 54.169,15.872 54.069 C 15.805 53.969,15.262 53.610,14.667 53.271 C 13.131 52.395,12.992 52.304,12.425 51.792 C 12.145 51.541,11.857 51.335,11.784 51.334 C 11.551 51.333,8.001 47.596,7.999 47.350 C 7.999 47.295,7.699 46.855,7.333 46.372 C 6.966 45.889,6.667 45.430,6.667 45.353 C 6.667 45.276,6.372 44.677,6.013 44.023 C 5.653 43.369,5.392 42.833,5.434 42.833 C 5.475 42.833,5.382 42.590,5.228 42.292 C 5.073 41.994,4.884 41.506,4.807 41.208 C 4.730 40.910,4.589 40.385,4.495 40.042 C 4.400 39.698,4.288 39.229,4.245 39.000 C 4.004 37.718,3.941 37.393,3.884 37.167 C 3.830 36.947,3.838 32.512,3.895 31.292 C 3.907 31.040,3.963 30.833,4.020 30.833 C 4.077 30.833,4.173 30.477,4.234 30.042 C 4.295 29.606,4.375 29.100,4.412 28.917 C 4.551 28.228,5.367 26.197,6.100 24.715 C 6.517 23.870,6.853 23.139,6.846 23.090 C 6.839 23.040,6.965 22.862,7.125 22.694 C 7.285 22.526,7.717 21.961,8.083 21.438 C 8.450 20.915,9.219 19.992,9.792 19.386 C 10.365 18.781,10.833 18.208,10.833 18.115 C 10.833 18.021,10.880 17.991,10.937 18.048 C 10.994 18.105,11.463 17.808,11.978 17.388 C 12.494 16.968,13.009 16.589,13.123 16.545 C 13.238 16.501,13.289 16.396,13.237 16.312 C 13.185 16.227,13.208 16.179,13.289 16.204 C 13.565 16.290,15.174 15.314,15.060 15.129 C 14.997 15.027,15.025 14.996,15.126 15.058 C 15.224 15.119,15.704 14.965,16.193 14.716 C 16.683 14.468,17.158 14.247,17.250 14.225 C 17.342 14.204,17.968 13.994,18.641 13.760 C 19.314 13.525,19.971 13.333,20.099 13.333 C 20.228 13.333,20.333 13.277,20.333 13.208 C 20.333 13.140,20.502 13.077,20.708 13.070 C 20.915 13.062,21.421 12.997,21.833 12.924 C 23.757 12.586,26.590 12.501,28.167 12.734 M21.184 17.092 C 20.626 17.334,19.845 18.093,19.822 18.417 C 19.815 18.508,19.796 20.427,19.780 22.679 L 19.750 26.776 19.283 27.388 C 18.464 28.462,18.325 28.490,13.768 28.506 C 10.438 28.517,9.626 28.565,9.430 28.760 C 9.298 28.892,9.109 29.000,9.009 29.000 C 8.313 29.000,8.168 29.929,8.167 34.383 C 8.167 38.863,8.281 39.667,8.921 39.667 C 9.056 39.667,9.167 39.730,9.167 39.807 C 9.167 40.193,10.181 40.312,13.691 40.336 C 18.012 40.366,18.195 40.375,18.417 40.544 C 18.825 40.857,19.509 41.500,19.434 41.500 C 19.388 41.500,19.466 41.777,19.608 42.116 C 19.820 42.625,19.856 43.395,19.811 46.547 L 19.756 50.362 20.270 50.972 C 21.065 51.918,21.693 52.030,25.762 51.954 C 28.749 51.898,29.748 51.828,29.958 51.659 C 29.981 51.640,30.056 51.609,30.125 51.590 C 31.337 51.248,31.406 50.977,31.500 46.159 C 31.619 40.102,31.363 40.363,37.195 40.339 C 43.473 40.314,43.187 40.803,43.006 30.382 C 43.003 30.180,42.694 29.692,42.320 29.299 L 41.640 28.583 37.362 28.500 C 31.216 28.380,31.510 28.681,31.489 22.500 C 31.479 19.467,31.316 17.345,31.162 18.250 C 31.146 18.342,31.084 18.240,31.023 18.024 C 30.709 16.904,23.245 16.197,21.184 17.092 M355.717 32.083 L 355.750 45.750 357.212 45.801 L 358.675 45.852 358.643 32.086 L 358.611 18.321 357.148 18.369 L 355.685 18.417 355.717 32.083 M380.671 32.025 L 380.676 45.667 382.087 45.667 L 383.499 45.667 383.470 39.875 C 383.443 34.190,383.458 33.962,383.967 32.500 C 384.015 32.362,384.062 32.212,384.071 32.167 C 384.159 31.718,386.135 29.413,386.295 29.573 C 386.339 29.617,386.610 29.529,386.896 29.377 C 387.491 29.062,387.547 29.047,388.958 28.829 C 389.629 28.725,390.371 28.725,391.042 28.829 C 392.556 29.063,392.576 29.069,393.058 29.385 C 393.301 29.544,393.500 29.627,393.500 29.570 C 393.500 29.469,394.122 30.110,394.691 30.799 C 394.843 30.982,395.021 31.308,395.089 31.524 C 395.156 31.740,395.277 31.959,395.358 32.011 C 395.634 32.189,395.712 33.591,395.782 39.625 L 395.852 45.667 397.218 45.666 L 398.583 45.666 398.555 39.625 C 398.522 32.724,398.507 32.497,397.986 30.851 C 397.607 29.652,396.319 27.833,395.850 27.833 C 395.749 27.833,395.667 27.760,395.667 27.670 C 395.667 27.534,394.440 26.787,394.167 26.756 C 394.121 26.750,393.858 26.663,393.583 26.561 C 392.346 26.101,389.467 25.816,389.271 26.133 C 389.225 26.207,388.872 26.286,388.487 26.308 C 388.101 26.331,387.581 26.456,387.330 26.585 C 387.080 26.714,386.829 26.773,386.771 26.716 C 386.714 26.658,386.667 26.699,386.667 26.806 C 386.667 26.913,386.606 26.981,386.533 26.958 C 386.348 26.901,385.167 27.546,385.167 27.705 C 385.167 27.775,385.067 27.833,384.946 27.833 C 384.723 27.833,383.960 28.547,384.040 28.679 C 384.064 28.718,384.053 28.732,384.015 28.710 C 383.978 28.688,383.847 28.753,383.724 28.855 C 383.533 29.014,383.330 20.293,383.487 18.650 C 383.509 18.424,383.293 18.383,382.089 18.383 L 380.665 18.383 380.671 32.025 M283.317 20.114 C 283.280 20.425,283.366 45.191,283.406 45.458 C 283.443 45.710,283.643 45.750,284.849 45.750 L 286.250 45.750 286.294 39.875 L 286.338 34.000 294.169 34.000 C 300.311 34.000,302.005 34.045,302.022 34.208 C 302.034 34.323,302.052 36.967,302.063 40.083 L 302.083 45.750 303.525 45.798 L 304.968 45.846 304.962 32.923 L 304.956 20.000 303.481 20.000 L 302.006 20.000 302.045 25.708 L 302.083 31.417 294.250 31.382 C 289.942 31.363,286.379 31.344,286.333 31.340 C 286.287 31.336,286.250 28.822,286.250 25.752 C 286.250 22.184,286.190 20.149,286.083 20.110 C 285.734 19.981,283.333 19.985,283.317 20.114 M93.438 20.299 C 93.393 20.372,93.370 26.166,93.386 33.174 L 93.417 45.917 94.894 45.965 L 96.371 46.014 96.296 36.465 C 96.255 31.213,96.277 26.729,96.344 26.500 C 96.423 26.231,96.473 26.187,96.483 26.375 C 96.493 26.535,96.556 26.667,96.625 26.668 C 96.694 26.669,96.833 26.837,96.933 27.043 C 97.436 28.067,97.910 28.833,98.041 28.833 C 98.121 28.833,98.140 28.908,98.083 29.000 C 98.027 29.092,98.060 29.167,98.157 29.167 C 98.254 29.167,98.333 29.240,98.333 29.330 C 98.333 29.543,101.135 34.325,101.436 34.626 C 101.563 34.753,101.712 35.039,101.768 35.262 C 101.824 35.484,101.936 35.667,102.018 35.667 C 102.100 35.667,102.167 35.747,102.167 35.845 C 102.167 35.943,102.280 36.137,102.418 36.275 C 102.557 36.414,102.627 36.596,102.575 36.680 C 102.523 36.764,102.560 36.833,102.657 36.833 C 102.754 36.833,102.833 36.904,102.833 36.991 C 102.833 37.161,103.987 39.196,104.162 39.333 C 104.220 39.379,104.400 39.679,104.561 40.000 C 104.947 40.765,105.396 41.562,105.500 41.667 C 105.546 41.712,105.710 41.975,105.865 42.250 C 106.406 43.212,108.217 42.741,108.247 41.630 C 108.249 41.565,108.375 41.365,108.528 41.186 C 108.681 41.008,108.762 40.818,108.709 40.764 C 108.655 40.711,108.682 40.667,108.768 40.667 C 108.854 40.667,109.070 40.385,109.248 40.042 C 109.426 39.698,109.780 39.103,110.036 38.720 C 110.291 38.337,110.500 37.983,110.500 37.933 C 110.500 37.884,110.837 37.272,111.250 36.574 C 111.662 35.877,112.000 35.269,112.000 35.225 C 112.000 35.180,112.225 34.816,112.500 34.417 C 112.775 34.017,113.000 33.652,113.000 33.605 C 113.000 33.535,113.652 32.414,114.516 31.000 C 114.600 30.863,114.758 30.563,114.867 30.333 C 114.975 30.104,115.155 29.804,115.265 29.667 C 115.553 29.308,116.288 28.023,116.625 27.292 C 116.783 26.948,116.974 26.667,117.049 26.667 C 117.125 26.667,117.152 26.610,117.111 26.542 C 117.069 26.473,117.140 26.320,117.267 26.202 C 117.557 25.934,117.525 24.657,117.520 36.215 L 117.515 46.013 118.883 45.965 L 120.250 45.917 120.283 33.042 L 120.316 20.167 119.059 20.167 C 117.942 20.167,117.792 20.204,117.715 20.500 C 117.667 20.683,117.573 20.833,117.506 20.833 C 117.439 20.833,117.243 21.152,117.072 21.542 C 116.900 21.931,116.710 22.287,116.649 22.333 C 116.588 22.379,116.302 22.855,116.013 23.391 C 115.724 23.927,115.364 24.552,115.214 24.781 C 114.734 25.514,114.334 26.238,114.148 26.708 C 114.049 26.960,113.908 27.167,113.835 27.167 C 113.762 27.167,113.587 27.457,113.445 27.811 C 113.303 28.166,113.089 28.562,112.969 28.693 C 112.630 29.059,112.333 29.635,112.333 29.924 C 112.333 30.068,112.259 30.141,112.169 30.085 C 112.074 30.026,112.046 30.093,112.103 30.240 C 112.161 30.391,112.091 30.539,111.934 30.600 C 111.787 30.656,111.667 30.767,111.667 30.845 C 111.667 30.924,111.442 31.343,111.167 31.777 C 110.892 32.210,110.667 32.705,110.667 32.876 C 110.667 33.047,110.604 33.148,110.527 33.100 C 110.376 33.007,109.223 34.959,109.292 35.192 C 109.315 35.270,109.264 35.333,109.178 35.333 C 109.093 35.333,108.706 35.915,108.318 36.625 C 107.930 37.335,107.464 38.130,107.284 38.391 L 106.955 38.865 106.576 38.391 C 106.369 38.130,106.233 37.861,106.276 37.792 C 106.318 37.723,106.274 37.667,106.177 37.667 C 106.079 37.667,106.000 37.594,106.000 37.505 C 106.000 37.331,104.539 34.805,104.359 34.667 C 104.299 34.621,104.071 34.227,103.852 33.792 C 103.633 33.356,103.402 33.000,103.338 33.000 C 103.274 33.000,103.221 32.906,103.219 32.792 C 103.218 32.677,102.595 31.533,101.834 30.250 C 101.074 28.967,100.013 27.175,99.476 26.269 C 98.939 25.362,98.500 24.556,98.500 24.477 C 98.500 24.398,98.444 24.332,98.375 24.331 C 98.306 24.329,98.066 23.954,97.842 23.497 C 97.618 23.041,97.374 22.667,97.301 22.667 C 97.227 22.667,97.167 22.563,97.167 22.437 C 97.167 22.311,97.057 22.116,96.922 22.004 C 96.787 21.893,96.691 21.752,96.708 21.692 C 96.725 21.632,96.554 21.265,96.328 20.876 L 95.917 20.169 94.718 20.168 C 94.059 20.167,93.483 20.226,93.438 20.299 M366.167 24.189 L 366.167 26.333 364.409 26.333 L 362.652 26.333 362.701 27.542 L 362.750 28.750 364.458 28.797 L 366.167 28.845 366.179 33.464 C 366.185 36.005,366.187 38.871,366.183 39.833 C 366.178 40.796,366.263 41.846,366.372 42.167 C 366.480 42.487,366.578 42.788,366.588 42.833 C 366.658 43.139,367.078 43.833,367.193 43.833 C 367.270 43.833,367.333 43.916,367.333 44.016 C 367.333 44.521,368.574 45.302,370.198 45.819 C 370.863 46.030,373.137 46.016,373.271 45.800 C 373.316 45.726,373.572 45.667,373.839 45.667 C 374.375 45.667,375.651 45.016,375.905 44.613 C 376.021 44.430,375.954 44.114,375.676 43.520 C 375.292 42.699,374.934 42.368,374.752 42.663 C 373.968 43.932,370.582 43.662,369.564 42.250 L 369.083 41.583 369.034 35.167 L 368.985 28.750 371.781 28.800 C 374.956 28.856,375.000 28.839,375.000 27.565 C 375.000 26.279,375.137 26.333,371.899 26.333 L 369.000 26.333 369.000 24.158 L 369.000 21.983 367.583 22.014 L 366.167 22.045 366.167 24.189 M236.345 24.220 L 236.373 26.250 234.688 26.297 C 232.768 26.352,232.765 26.354,232.865 27.928 L 232.917 28.750 234.625 28.797 L 236.333 28.845 236.346 31.797 C 236.353 33.421,236.348 36.162,236.334 37.888 C 236.310 40.900,236.496 42.579,236.884 42.852 C 236.963 42.908,237.023 43.021,237.016 43.102 C 236.992 43.398,237.193 43.833,237.354 43.833 C 237.445 43.833,237.478 43.901,237.427 43.983 C 237.282 44.218,238.475 45.174,239.454 45.607 C 240.460 46.052,243.388 46.173,244.281 45.808 C 244.539 45.702,244.843 45.596,244.956 45.573 C 245.586 45.442,246.332 44.789,246.266 44.426 C 246.105 43.537,245.167 42.178,245.167 42.833 C 245.167 42.925,245.110 42.988,245.042 42.974 C 244.973 42.960,244.625 43.078,244.269 43.236 C 242.095 44.201,239.865 43.328,239.409 41.333 C 239.335 41.012,239.269 38.069,239.262 34.792 L 239.250 28.834 240.000 28.825 C 240.412 28.820,241.725 28.824,242.917 28.832 L 245.083 28.848 245.083 27.633 L 245.083 26.417 242.153 26.417 L 239.223 26.417 239.236 24.333 L 239.250 22.250 237.783 22.220 L 236.316 22.191 236.345 24.220 M219.704 26.334 C 219.037 26.407,218.388 26.552,218.263 26.656 C 218.138 26.760,217.965 26.824,217.879 26.798 C 217.379 26.646,215.004 28.226,214.167 29.268 C 213.865 29.643,213.658 28.353,213.860 27.355 C 214.054 26.397,213.942 26.314,212.521 26.368 L 211.250 26.417 211.250 36.167 L 211.250 45.917 212.629 45.929 L 214.007 45.941 213.989 40.232 C 213.975 36.118,214.028 34.345,214.176 33.886 C 214.644 32.436,214.882 31.889,215.264 31.386 C 215.485 31.094,215.667 30.794,215.668 30.719 C 215.670 30.491,216.760 29.824,217.855 29.382 C 219.659 28.653,222.062 28.706,223.555 29.506 C 223.891 29.686,224.204 29.815,224.249 29.792 C 224.423 29.704,225.511 31.426,225.845 32.318 C 226.177 33.205,226.193 33.545,226.177 39.352 C 226.156 46.646,226.002 46.000,227.767 46.000 L 229.165 46.000 229.156 39.708 C 229.151 36.248,229.079 33.154,228.998 32.833 C 228.916 32.512,228.815 32.063,228.773 31.833 C 228.082 28.059,224.389 25.820,219.704 26.334 M257.318 26.237 C 257.273 26.283,256.902 26.349,256.493 26.386 C 255.498 26.475,254.167 26.837,254.167 27.020 C 254.167 27.101,254.069 27.167,253.950 27.167 C 253.643 27.167,252.836 27.559,252.835 27.708 C 252.834 27.777,252.740 27.835,252.625 27.836 C 252.151 27.843,250.135 29.766,249.790 30.542 C 249.677 30.794,249.529 31.000,249.459 31.000 C 249.390 31.000,249.333 31.150,249.333 31.333 C 249.333 31.517,249.258 31.667,249.167 31.667 C 249.075 31.667,249.000 31.804,249.000 31.972 C 249.000 32.140,248.946 32.331,248.881 32.397 C 248.253 33.025,248.126 37.420,248.686 39.167 C 249.171 40.683,249.383 41.155,249.535 41.061 C 249.608 41.017,249.667 41.134,249.667 41.322 C 249.667 42.544,253.343 45.342,255.500 45.761 C 256.434 45.943,259.523 45.992,260.250 45.837 C 261.501 45.571,261.647 45.523,262.730 45.022 C 263.326 44.746,263.968 44.366,264.157 44.177 C 264.345 43.988,264.500 43.883,264.500 43.943 C 264.500 44.099,265.663 42.868,266.217 42.125 C 266.474 41.781,266.624 41.499,266.550 41.497 C 266.477 41.496,266.500 41.440,266.602 41.372 C 267.584 40.723,268.504 35.169,267.846 33.861 C 267.769 33.709,267.620 33.217,267.514 32.769 C 266.981 30.505,263.549 26.917,261.917 26.917 C 261.825 26.917,261.711 26.865,261.664 26.803 C 261.616 26.740,261.391 26.663,261.164 26.632 C 260.936 26.600,260.675 26.529,260.583 26.473 C 260.367 26.342,257.426 26.129,257.318 26.237 M318.333 26.288 C 317.506 26.415,315.738 27.061,315.500 27.325 C 315.454 27.376,315.198 27.530,314.931 27.667 C 311.442 29.461,309.423 36.104,311.272 39.707 C 311.401 39.958,311.493 40.183,311.476 40.207 C 311.405 40.306,312.042 41.482,312.342 41.804 C 312.520 41.996,312.667 42.212,312.667 42.285 C 312.668 42.809,315.594 45.000,316.292 45.000 C 316.509 45.000,316.646 45.066,316.596 45.146 C 316.546 45.227,316.748 45.349,317.044 45.418 C 317.341 45.486,317.658 45.564,317.750 45.589 C 319.728 46.144,323.059 46.012,324.958 45.303 C 325.440 45.123,325.833 44.915,325.833 44.839 C 325.833 44.764,326.021 44.656,326.250 44.598 C 326.479 44.541,326.667 44.420,326.667 44.330 C 326.667 44.240,326.764 44.167,326.882 44.167 C 327.000 44.167,327.428 43.829,327.833 43.417 C 328.238 43.004,328.479 42.667,328.368 42.667 C 328.257 42.667,328.163 42.573,328.158 42.458 C 328.154 42.344,327.862 41.956,327.509 41.597 L 326.867 40.945 325.808 41.769 C 323.927 43.235,321.107 43.848,319.042 43.241 C 318.652 43.126,318.333 43.064,318.333 43.103 C 318.333 43.142,318.033 43.020,317.667 42.833 C 317.300 42.646,317.000 42.547,317.000 42.612 C 317.000 42.677,316.890 42.585,316.755 42.407 C 316.621 42.229,316.508 42.144,316.505 42.218 C 316.484 42.764,314.200 39.813,313.886 38.833 C 313.404 37.333,313.431 37.001,314.034 36.993 C 314.336 36.988,317.921 36.970,322.000 36.951 L 329.417 36.917 329.393 35.333 C 329.368 33.622,329.217 32.551,328.982 32.405 C 328.900 32.355,328.833 32.170,328.833 31.995 C 328.833 31.668,328.394 30.801,327.781 29.917 C 326.757 28.440,324.936 27.136,323.110 26.571 C 322.300 26.321,319.288 26.143,318.333 26.288 M338.833 26.288 C 337.143 26.546,334.000 27.781,334.000 28.189 C 334.000 28.299,333.950 28.339,333.889 28.277 C 333.725 28.114,333.164 28.673,333.180 28.984 C 333.231 30.017,334.381 31.041,334.923 30.536 C 335.265 30.217,337.167 29.125,337.167 29.247 C 337.167 29.284,337.560 29.196,338.042 29.050 C 342.266 27.767,345.504 29.401,346.018 33.074 C 346.266 34.847,346.687 34.660,342.398 34.685 C 338.884 34.705,337.130 34.841,336.417 35.148 C 336.233 35.227,335.858 35.381,335.583 35.491 C 334.339 35.985,333.116 37.213,332.902 38.182 C 332.854 38.403,332.797 38.658,332.777 38.750 C 332.757 38.842,332.690 38.997,332.629 39.095 C 332.416 39.435,332.594 41.575,332.882 42.151 C 333.039 42.463,333.167 42.817,333.167 42.939 C 333.167 43.248,334.982 45.031,335.175 44.912 C 335.262 44.858,335.333 44.898,335.333 45.000 C 335.333 45.102,335.408 45.140,335.500 45.083 C 335.592 45.027,335.667 45.046,335.667 45.126 C 335.667 45.678,339.899 46.179,341.669 45.837 C 343.415 45.499,344.331 45.013,345.792 43.649 L 346.167 43.298 346.167 44.527 L 346.167 45.755 347.542 45.743 L 348.917 45.731 348.916 39.157 C 348.915 35.542,348.865 32.283,348.805 31.917 C 348.624 30.823,348.473 30.333,348.315 30.333 C 348.234 30.333,348.167 30.228,348.167 30.099 C 348.167 29.682,347.446 28.500,347.191 28.500 C 347.056 28.500,346.993 28.451,347.053 28.392 C 347.370 28.075,345.194 26.825,343.639 26.431 C 342.775 26.213,339.895 26.127,338.833 26.288 M133.500 26.529 C 132.692 26.732,132.747 26.712,131.125 27.358 C 130.873 27.458,130.667 27.611,130.667 27.697 C 130.667 27.783,130.594 27.808,130.506 27.754 C 130.418 27.699,130.193 27.807,130.006 27.994 C 129.819 28.181,129.599 28.333,129.517 28.333 C 129.434 28.333,128.980 28.757,128.507 29.274 C 125.727 32.316,125.194 37.042,127.163 41.208 C 127.368 41.644,127.603 42.000,127.685 42.000 C 127.767 42.000,127.833 42.083,127.833 42.185 C 127.833 42.863,131.686 45.714,132.185 45.405 C 132.267 45.355,132.333 45.385,132.333 45.471 C 132.333 45.880,136.179 46.326,137.583 46.080 C 138.042 46.000,138.509 45.952,138.621 45.974 C 138.733 45.995,139.050 45.897,139.324 45.755 C 139.599 45.613,139.882 45.512,139.953 45.531 C 140.204 45.598,140.833 45.309,140.833 45.128 C 140.833 45.027,140.881 44.992,140.940 45.051 C 141.064 45.176,142.000 44.657,142.000 44.464 C 142.000 44.392,142.078 44.333,142.174 44.333 C 142.444 44.333,143.667 43.142,143.667 42.879 C 143.667 42.750,143.405 42.368,143.085 42.031 C 142.765 41.693,142.502 41.360,142.501 41.292 C 142.498 41.013,142.050 41.199,141.492 41.709 C 138.211 44.709,132.478 44.106,130.000 40.500 C 129.780 40.179,129.536 39.872,129.458 39.818 C 129.380 39.764,129.332 39.651,129.351 39.568 C 129.370 39.485,129.344 39.304,129.293 39.167 C 129.051 38.519,128.798 37.314,128.885 37.226 C 128.939 37.172,132.587 37.137,136.992 37.149 L 145.000 37.171 144.999 36.211 C 144.999 35.682,144.929 34.987,144.844 34.667 C 144.759 34.346,144.656 33.821,144.615 33.500 C 144.529 32.831,144.045 31.535,143.744 31.167 C 143.631 31.029,143.488 30.748,143.425 30.542 C 143.362 30.335,143.241 30.167,143.155 30.167 C 143.070 30.167,143.000 30.064,143.000 29.938 C 143.000 29.732,142.375 29.112,141.081 28.034 C 140.543 27.587,139.667 27.110,139.667 27.266 C 139.667 27.326,139.566 27.291,139.443 27.189 C 139.320 27.086,139.170 27.052,139.110 27.113 C 139.049 27.173,139.000 27.141,139.000 27.041 C 139.000 26.530,134.987 26.156,133.500 26.529 M158.000 26.439 C 157.771 26.481,157.471 26.561,157.333 26.617 C 157.108 26.707,156.946 26.755,156.417 26.887 C 155.890 27.019,154.351 27.894,154.428 28.019 C 154.479 28.100,154.426 28.167,154.311 28.167 C 154.197 28.167,153.824 28.465,153.484 28.830 C 152.727 29.642,152.629 29.491,152.777 27.743 L 152.882 26.500 151.483 26.500 L 150.083 26.500 150.044 31.208 C 150.015 34.622,150.053 35.848,150.184 35.667 C 150.327 35.468,150.337 35.486,150.231 35.750 C 150.158 35.933,150.070 38.315,150.036 41.042 L 149.974 46.000 151.396 46.000 L 152.817 46.000 152.889 40.208 C 152.971 33.570,152.970 33.580,153.676 32.201 C 155.437 28.759,160.126 27.738,162.917 30.189 C 164.526 31.602,164.728 32.611,164.703 39.083 C 164.692 41.925,164.735 44.621,164.800 45.075 L 164.918 45.900 166.209 45.930 L 167.500 45.959 167.500 40.428 C 167.500 34.595,167.718 32.634,168.461 31.792 C 168.603 31.631,168.673 31.500,168.617 31.500 C 168.561 31.500,168.700 31.302,168.925 31.059 C 169.149 30.816,169.333 30.550,169.333 30.466 C 169.333 30.382,169.408 30.360,169.500 30.417 C 169.592 30.473,169.667 30.459,169.667 30.385 C 169.668 29.906,171.737 29.071,173.374 28.888 C 174.637 28.746,176.877 29.413,177.563 30.134 C 178.007 30.601,178.625 31.408,178.642 31.543 C 178.651 31.612,178.784 32.100,178.938 32.626 C 179.294 33.843,179.317 34.325,179.322 40.625 C 179.326 45.489,179.346 45.834,179.622 45.850 C 179.784 45.859,180.404 45.877,181.000 45.891 L 182.083 45.917 182.075 44.500 C 182.007 33.059,181.930 31.374,181.453 30.897 C 181.387 30.831,181.333 30.649,181.333 30.493 C 181.333 30.336,181.222 30.115,181.085 30.002 C 180.949 29.888,180.875 29.734,180.922 29.658 C 180.969 29.582,180.874 29.443,180.712 29.349 C 180.549 29.254,180.485 29.175,180.568 29.172 C 180.855 29.162,179.038 27.556,178.395 27.251 C 178.040 27.083,177.743 26.976,177.734 27.014 C 177.725 27.052,177.613 26.999,177.484 26.897 C 176.916 26.444,173.738 26.235,172.083 26.542 C 170.950 26.753,170.500 26.888,170.500 27.019 C 170.500 27.100,170.390 27.167,170.254 27.167 C 169.613 27.167,168.046 28.357,167.107 29.556 C 166.717 30.055,166.129 30.299,166.409 29.846 C 166.493 29.710,165.500 28.461,164.917 27.969 C 163.502 26.777,160.157 26.036,158.000 26.439 M193.562 26.762 C 190.813 27.731,188.176 30.260,187.666 32.417 C 187.644 32.508,187.555 32.771,187.468 33.000 C 187.381 33.229,187.296 33.765,187.280 34.192 C 187.263 34.618,187.194 34.932,187.125 34.890 C 186.913 34.761,186.992 37.020,187.240 38.190 C 187.512 39.474,188.470 41.872,188.663 41.752 C 188.735 41.708,188.882 41.881,188.988 42.138 C 189.280 42.844,191.232 44.561,192.167 44.936 C 192.304 44.991,192.678 45.152,192.997 45.294 C 193.317 45.436,193.842 45.618,194.164 45.698 C 194.486 45.778,194.900 45.880,195.083 45.926 C 195.899 46.129,199.706 46.016,199.940 45.783 C 200.003 45.719,200.239 45.667,200.462 45.667 C 200.990 45.667,202.813 44.795,203.375 44.274 C 203.616 44.051,203.842 43.898,203.879 43.934 C 203.966 44.022,204.833 43.044,204.833 42.858 C 204.833 42.616,203.486 41.167,203.262 41.167 C 203.146 41.167,202.910 41.323,202.737 41.514 C 201.144 43.274,196.749 44.192,194.831 43.165 C 194.661 43.074,194.367 43.000,194.178 43.000 C 193.988 43.000,193.833 42.943,193.833 42.874 C 193.833 42.805,193.616 42.652,193.350 42.534 C 192.806 42.294,191.169 40.829,191.163 40.579 C 191.161 40.490,191.013 40.229,190.833 40.000 C 190.654 39.771,190.506 39.452,190.504 39.292 C 190.502 39.131,190.421 39.000,190.323 39.000 C 190.226 39.000,190.190 38.930,190.243 38.845 C 190.296 38.760,190.266 38.645,190.177 38.590 C 190.088 38.534,190.052 38.392,190.097 38.273 C 190.143 38.155,190.104 37.857,190.011 37.612 L 189.842 37.167 192.462 37.152 C 193.904 37.144,197.537 37.142,200.535 37.147 L 205.987 37.157 206.095 36.579 C 206.155 36.260,206.158 35.756,206.102 35.458 C 206.047 35.160,205.956 34.579,205.901 34.167 C 205.492 31.117,202.734 27.514,200.477 27.079 C 200.287 27.042,200.047 26.946,199.941 26.865 C 199.123 26.237,195.231 26.173,193.562 26.762 M198.667 29.112 C 200.690 29.689,203.000 32.060,203.000 33.560 C 203.000 33.680,203.051 33.828,203.112 33.890 C 203.174 33.952,203.233 34.189,203.243 34.418 L 203.261 34.833 196.616 34.833 L 189.971 34.833 190.079 34.125 C 190.195 33.362,191.125 31.333,191.358 31.333 C 191.436 31.333,191.500 31.231,191.500 31.107 C 191.500 30.982,191.874 30.619,192.331 30.299 C 192.788 29.979,193.107 29.656,193.039 29.582 C 192.972 29.507,192.995 29.491,193.090 29.545 C 193.185 29.599,193.485 29.538,193.757 29.409 C 195.208 28.718,196.920 28.615,198.667 29.112 M260.167 29.016 C 261.673 29.481,264.000 31.180,264.000 31.815 C 264.000 31.917,264.075 32.000,264.167 32.000 C 264.258 32.000,264.318 32.056,264.300 32.125 C 264.252 32.307,264.523 33.069,264.671 33.167 C 265.090 33.445,265.260 36.832,264.918 38.083 C 264.767 38.633,264.627 39.170,264.606 39.275 C 264.586 39.380,264.496 39.568,264.408 39.692 C 264.319 39.815,264.104 40.173,263.931 40.486 C 263.757 40.799,263.348 41.287,263.022 41.569 C 262.696 41.852,262.295 42.215,262.131 42.375 C 261.967 42.535,261.793 42.659,261.743 42.649 C 261.567 42.616,260.667 43.042,260.667 43.159 C 260.667 43.299,260.706 43.294,258.621 43.396 C 257.726 43.439,256.751 43.400,256.455 43.310 C 256.159 43.219,255.842 43.129,255.750 43.110 C 255.658 43.091,255.218 42.871,254.771 42.621 C 254.324 42.371,253.943 42.167,253.925 42.167 C 253.908 42.167,253.541 41.829,253.110 41.417 C 252.680 41.004,252.371 40.667,252.425 40.667 C 252.479 40.667,252.380 40.460,252.206 40.208 C 250.943 38.384,250.782 34.954,251.852 32.711 C 252.679 30.977,253.940 29.868,256.083 28.987 C 256.811 28.689,259.159 28.705,260.167 29.016 M321.640 28.841 C 322.221 28.935,322.878 29.131,323.098 29.275 C 323.319 29.420,323.500 29.493,323.500 29.437 C 323.500 29.057,325.547 31.197,325.923 31.970 C 326.101 32.337,326.288 32.611,326.338 32.581 C 326.388 32.550,326.434 32.650,326.441 32.804 C 326.447 32.958,326.553 33.437,326.676 33.870 C 326.799 34.302,326.860 34.696,326.811 34.745 C 326.745 34.810,315.227 34.895,313.694 34.841 C 313.525 34.835,313.498 34.660,313.583 34.125 C 313.645 33.735,313.702 33.323,313.709 33.208 C 313.716 33.094,313.770 33.000,313.828 33.000 C 313.886 33.000,314.033 32.724,314.155 32.386 C 314.395 31.723,314.457 31.634,315.333 30.703 C 315.997 29.998,317.190 29.179,317.724 29.064 C 319.771 28.620,320.147 28.598,321.640 28.841 M136.769 28.995 C 137.217 29.083,137.751 29.191,137.955 29.234 C 138.639 29.379,141.000 31.232,141.000 31.625 C 141.000 31.715,141.157 31.988,141.349 32.232 C 141.540 32.475,141.717 32.767,141.740 32.879 C 141.764 32.991,141.830 33.196,141.887 33.333 C 141.944 33.471,142.023 33.771,142.064 34.000 C 142.104 34.229,142.189 34.548,142.253 34.708 C 142.361 34.980,142.156 35.000,139.309 35.003 C 137.627 35.004,134.825 35.011,133.083 35.017 C 128.322 35.035,128.771 35.095,128.912 34.458 C 128.978 34.160,129.054 33.765,129.080 33.580 C 129.128 33.249,129.709 32.113,130.038 31.708 C 130.131 31.594,130.165 31.500,130.114 31.500 C 129.858 31.500,131.846 29.826,132.487 29.503 C 133.675 28.903,135.320 28.708,136.769 28.995 M346.167 38.227 C 346.167 39.876,345.772 41.020,344.988 41.638 C 344.718 41.852,344.547 42.107,344.607 42.206 C 344.668 42.304,344.645 42.340,344.556 42.285 C 344.467 42.230,344.195 42.369,343.952 42.595 C 343.506 43.008,342.933 43.285,342.167 43.459 C 341.471 43.617,338.000 43.632,338.000 43.478 C 338.000 43.398,337.856 43.333,337.680 43.333 C 336.932 43.333,335.532 41.727,335.407 40.727 C 335.227 39.294,335.783 37.994,336.750 37.586 C 338.336 36.916,338.558 36.887,342.375 36.851 L 346.167 36.814 346.167 38.227 " stroke="none" fill="#4c64a7" fill-rule="evenodd"></path><path id="path2" d="M358.550 19.333 C 358.550 19.837,358.581 20.044,358.619 19.792 C 358.658 19.540,358.658 19.127,358.619 18.875 C 358.581 18.623,358.550 18.829,358.550 19.333 M19.737 22.833 C 19.737 24.712,19.761 25.481,19.791 24.542 C 19.821 23.602,19.821 22.065,19.791 21.125 C 19.761 20.185,19.737 20.954,19.737 22.833 M286.235 23.333 C 286.235 24.846,286.260 25.465,286.291 24.708 C 286.322 23.952,286.322 22.715,286.291 21.958 C 286.260 21.202,286.235 21.821,286.235 23.333 M283.212 23.500 C 283.212 23.912,283.245 24.081,283.284 23.875 C 283.324 23.669,283.324 23.331,283.284 23.125 C 283.245 22.919,283.212 23.087,283.212 23.500 M213.811 27.458 C 213.777 27.710,213.794 28.292,213.849 28.750 C 213.938 29.500,213.950 29.454,213.974 28.292 C 214.000 26.995,213.924 26.604,213.811 27.458 M245.039 28.000 C 245.039 28.321,245.073 28.452,245.115 28.292 C 245.157 28.131,245.157 27.869,245.115 27.708 C 245.073 27.548,245.039 27.679,245.039 28.000 M150.055 29.083 C 150.055 29.725,150.086 29.967,150.122 29.621 C 150.158 29.275,150.157 28.750,150.120 28.455 C 150.083 28.159,150.054 28.442,150.055 29.083 M96.217 31.000 C 96.217 31.504,96.248 31.710,96.286 31.458 C 96.324 31.206,96.324 30.794,96.286 30.542 C 96.248 30.290,96.217 30.496,96.217 31.000 M355.709 30.750 C 355.711 31.117,355.745 31.247,355.785 31.040 C 355.824 30.832,355.823 30.532,355.781 30.373 C 355.739 30.214,355.707 30.383,355.709 30.750 M93.383 31.167 C 93.383 31.671,93.415 31.877,93.453 31.625 C 93.491 31.373,93.491 30.960,93.453 30.708 C 93.415 30.456,93.383 30.662,93.383 31.167 M239.205 31.333 C 239.205 31.654,239.240 31.785,239.282 31.625 C 239.323 31.465,239.323 31.202,239.282 31.042 C 239.240 30.881,239.205 31.012,239.205 31.333 M43.071 34.417 C 43.071 36.342,43.095 37.106,43.124 36.116 C 43.154 35.126,43.154 33.551,43.124 32.616 C 43.095 31.681,43.070 32.492,43.071 34.417 M288.958 34.125 C 290.448 34.152,292.885 34.152,294.375 34.125 C 295.865 34.097,294.646 34.074,291.667 34.074 C 288.688 34.074,287.469 34.097,288.958 34.125 M302.059 35.750 C 302.059 36.575,302.087 36.934,302.122 36.547 C 302.157 36.160,302.157 35.485,302.123 35.047 C 302.088 34.609,302.060 34.925,302.059 35.750 M304.879 35.333 C 304.879 35.746,304.911 35.915,304.951 35.708 C 304.991 35.502,304.991 35.165,304.951 34.958 C 304.911 34.752,304.879 34.921,304.879 35.333 M179.207 36.333 C 179.213 37.630,179.223 37.672,179.325 36.833 C 179.387 36.329,179.384 35.692,179.319 35.417 C 179.244 35.098,179.203 35.430,179.207 36.333 M195.208 37.115 C 195.369 37.157,195.631 37.157,195.792 37.115 C 195.952 37.073,195.821 37.039,195.500 37.039 C 195.179 37.039,195.048 37.073,195.208 37.115 M383.385 38.583 C 383.386 39.133,383.417 39.338,383.454 39.039 C 383.491 38.739,383.490 38.289,383.452 38.039 C 383.414 37.788,383.384 38.033,383.385 38.583 M239.221 38.917 C 239.222 39.558,239.252 39.800,239.288 39.455 C 239.324 39.109,239.324 38.584,239.287 38.288 C 239.250 37.992,239.221 38.275,239.221 38.917 M179.167 39.639 C 179.167 40.021,179.237 40.333,179.323 40.333 C 179.409 40.333,179.436 40.055,179.383 39.708 C 179.249 38.843,179.167 38.816,179.167 39.639 M19.737 45.917 C 19.737 47.842,19.762 48.606,19.791 47.616 C 19.821 46.626,19.821 45.051,19.791 44.116 C 19.761 43.181,19.737 43.992,19.737 45.917 M398.558 44.000 C 398.558 44.779,398.587 45.098,398.622 44.708 C 398.657 44.319,398.657 43.681,398.622 43.292 C 398.587 42.902,398.558 43.221,398.558 44.000 M302.055 44.417 C 302.055 45.058,302.086 45.300,302.122 44.955 C 302.158 44.609,302.157 44.084,302.120 43.788 C 302.083 43.492,302.054 43.775,302.055 44.417 " stroke="none" fill="#5464a4" fill-rule="evenodd"></path><path id="path3" d="" stroke="none" fill="#5864ac" fill-rule="evenodd"></path><path id="path4" d="" stroke="none" fill="#5864ac" fill-rule="evenodd"></path></g></svg>