<svg id="svg" version="1.1" xmlns="http://www.w3.org/2000/svg" xmlns:xlink="http://www.w3.org/1999/xlink" width="400" height="69.62616822429906" viewBox="0, 0, 400,69.62616822429906"><g id="svgg"><path id="path0" d="M28.167 16.618 C 26.711 17.150,26.500 17.986,26.500 23.223 C 26.500 30.213,26.712 30.000,19.763 30.000 C 14.759 30.000,14.493 30.043,13.583 30.997 L 13.083 31.521 13.035 36.542 C 12.980 42.152,12.996 42.253,14.053 43.019 L 14.717 43.500 19.317 43.501 C 26.659 43.502,26.499 43.346,26.503 50.469 C 26.507 57.382,26.198 57.083,33.363 57.083 C 40.318 57.083,39.880 57.515,40.005 50.530 C 40.104 44.954,40.123 44.865,41.379 44.033 L 42.058 43.583 46.987 43.500 C 54.067 43.380,53.583 43.869,53.583 36.833 C 53.583 29.662,53.914 30.000,46.893 30.000 C 39.833 30.000,40.120 30.288,40.000 23.083 C 39.883 16.063,40.328 16.494,33.225 16.513 C 30.580 16.520,28.304 16.567,28.167 16.618 " stroke="none" fill="#5364ab" fill-rule="evenodd"></path><path id="path1" d="M73.500 35.333 L 73.500 66.833 74.083 66.833 L 74.667 66.833 74.667 35.333 L 74.667 3.833 74.083 3.833 L 73.500 3.833 73.500 35.333 M31.653 8.230 C 31.599 8.287,30.774 8.444,29.819 8.578 C 26.354 9.067,23.342 10.000,20.250 11.543 C 18.085 12.624,16.601 13.634,14.167 15.686 C 13.662 16.110,13.079 16.546,12.870 16.654 C 12.662 16.762,12.526 16.907,12.569 16.977 C 12.612 17.046,11.977 17.849,11.158 18.760 C 10.338 19.671,9.503 20.735,9.301 21.125 C 9.099 21.515,8.869 21.833,8.790 21.833 C 8.711 21.833,8.693 21.908,8.750 22.000 C 8.807 22.092,8.775 22.167,8.679 22.167 C 8.583 22.167,8.392 22.410,8.256 22.708 C 8.119 23.006,7.930 23.381,7.837 23.542 C 7.410 24.273,7.319 24.443,7.142 24.833 C 7.038 25.063,6.781 25.625,6.571 26.083 C 6.361 26.542,6.136 27.142,6.071 27.417 C 6.007 27.692,5.897 27.992,5.827 28.083 C 5.720 28.224,5.128 30.641,4.929 31.750 C 4.530 33.973,4.473 34.851,4.546 37.655 C 4.591 39.357,4.674 40.956,4.730 41.208 C 4.787 41.460,4.865 41.835,4.904 42.042 C 5.673 46.117,7.680 50.950,9.627 53.417 C 9.699 53.508,10.116 54.051,10.554 54.622 C 11.320 55.623,13.654 58.061,14.506 58.750 C 16.055 60.002,17.147 60.833,17.244 60.833 C 17.306 60.833,17.670 61.046,18.053 61.307 C 18.436 61.567,19.200 61.989,19.750 62.246 C 20.300 62.502,20.787 62.765,20.833 62.829 C 20.879 62.894,21.292 63.085,21.750 63.252 C 22.208 63.420,22.658 63.610,22.750 63.673 C 22.992 63.841,26.054 64.756,27.417 65.067 C 32.711 66.276,40.090 65.645,44.750 63.586 C 45.025 63.465,45.549 63.242,45.914 63.091 C 46.519 62.842,48.431 61.809,49.791 60.997 C 51.850 59.768,54.871 56.948,57.197 54.083 C 58.041 53.044,60.667 48.382,60.667 47.923 C 60.667 47.872,60.813 47.512,60.992 47.123 C 61.478 46.065,62.058 43.779,62.630 40.667 C 62.860 39.413,62.886 34.717,62.670 33.542 C 62.572 33.015,62.390 32.021,62.265 31.333 C 61.969 29.708,61.408 27.671,60.986 26.693 C 58.559 21.069,56.126 17.811,51.750 14.323 C 49.928 12.871,46.964 11.217,44.083 10.047 C 43.006 9.609,41.316 9.104,40.251 8.902 C 40.067 8.867,39.542 8.765,39.083 8.675 C 37.449 8.355,31.851 8.020,31.653 8.230 M38.783 16.719 C 40.016 17.406,40.074 17.675,40.167 23.167 C 40.287 30.285,39.877 29.880,47.083 30.000 C 54.163 30.118,53.750 29.699,53.750 36.763 C 53.750 43.910,54.110 43.547,46.917 43.667 C 41.460 43.758,41.502 43.750,40.715 44.780 L 40.250 45.390 40.167 50.433 C 40.050 57.499,40.472 57.062,33.696 57.134 C 28.427 57.190,28.065 57.160,27.459 56.622 C 26.611 55.868,26.589 55.732,26.492 50.500 C 26.360 43.370,26.655 43.668,19.700 43.665 C 12.581 43.662,12.799 43.890,12.870 36.554 C 12.936 29.691,12.507 30.117,19.470 30.000 C 26.719 29.878,26.480 30.126,26.493 22.703 C 26.501 17.652,26.568 17.396,28.084 16.591 C 28.862 16.177,38.007 16.287,38.783 16.719 M377.167 34.417 L 377.167 48.000 378.500 48.000 L 379.833 48.000 379.834 43.208 C 379.834 36.109,380.148 34.488,381.841 32.846 C 384.176 30.579,388.801 30.559,390.763 32.807 C 392.032 34.262,392.167 35.151,392.167 42.074 L 392.167 48.000 393.500 48.000 L 394.833 48.000 394.833 41.614 C 394.833 33.503,394.699 32.756,392.894 30.826 C 390.114 27.854,383.912 27.881,380.767 30.879 L 379.833 31.769 379.833 26.301 L 379.833 20.833 378.500 20.833 L 377.167 20.833 377.167 34.417 M352.564 34.457 L 352.583 47.913 353.083 48.020 C 353.358 48.079,353.976 48.136,354.456 48.147 L 355.328 48.167 355.331 34.583 L 355.335 21.000 353.940 21.000 L 352.544 21.000 352.564 34.457 M280.667 35.298 L 280.667 48.096 282.141 48.121 L 283.615 48.146 283.590 43.114 C 283.575 40.347,283.597 37.690,283.639 37.208 L 283.713 36.333 291.521 36.333 L 299.329 36.333 299.373 42.208 L 299.417 48.083 300.792 48.088 L 302.167 48.092 302.167 35.296 L 302.167 22.500 300.750 22.500 L 299.333 22.500 299.333 28.167 L 299.333 33.833 291.500 33.833 L 283.667 33.833 283.646 33.042 C 283.635 32.606,283.635 30.056,283.645 27.375 L 283.664 22.500 282.165 22.500 L 280.667 22.500 280.667 35.298 M92.500 35.500 L 92.500 48.333 93.926 48.333 L 95.352 48.333 95.237 38.292 C 95.170 32.474,95.184 28.308,95.269 28.389 C 95.350 28.465,95.419 28.578,95.421 28.639 C 95.428 28.819,96.874 31.241,97.042 31.352 C 97.126 31.408,97.185 31.504,97.172 31.566 C 97.159 31.627,97.403 32.106,97.713 32.630 C 98.023 33.154,98.719 34.333,99.261 35.250 C 99.802 36.167,100.288 36.954,100.340 37.000 C 100.393 37.046,100.534 37.327,100.655 37.625 C 100.775 37.923,100.932 38.167,101.004 38.167 C 101.075 38.167,101.208 38.377,101.297 38.635 C 101.387 38.893,101.563 39.215,101.689 39.351 C 101.814 39.487,102.060 39.858,102.234 40.174 C 102.409 40.491,102.934 41.413,103.401 42.224 C 103.868 43.035,104.429 44.029,104.648 44.432 C 105.276 45.594,106.251 45.534,106.914 44.292 C 107.172 43.810,107.474 43.304,107.586 43.167 C 107.788 42.919,108.349 41.946,109.124 40.500 C 109.345 40.087,109.809 39.300,110.156 38.750 C 110.502 38.200,111.175 37.075,111.651 36.250 C 112.127 35.425,112.584 34.637,112.666 34.500 C 113.062 33.842,114.799 30.865,115.184 30.184 C 115.423 29.762,115.779 29.154,115.976 28.833 L 116.332 28.250 116.333 38.292 L 116.333 48.333 117.777 48.333 L 119.221 48.333 119.110 42.806 C 119.050 39.766,119.000 33.988,119.000 29.965 L 119.000 22.652 117.795 22.701 L 116.590 22.750 116.127 23.583 C 115.873 24.042,115.617 24.529,115.558 24.667 C 115.499 24.804,115.291 25.142,115.095 25.417 C 114.899 25.692,114.649 26.104,114.540 26.333 C 114.430 26.563,114.152 27.050,113.922 27.417 C 113.691 27.783,113.450 28.196,113.387 28.333 C 113.324 28.471,112.986 29.053,112.636 29.628 C 112.286 30.202,112.000 30.722,112.000 30.781 C 112.000 30.841,111.898 31.009,111.773 31.154 C 111.649 31.298,111.324 31.829,111.051 32.333 C 110.346 33.638,110.109 34.049,109.897 34.333 C 109.794 34.471,109.500 34.958,109.244 35.417 C 108.751 36.296,108.693 36.398,107.027 39.316 C 105.760 41.533,105.815 41.491,105.363 40.617 C 105.164 40.232,104.909 39.767,104.796 39.583 C 104.683 39.400,104.366 38.875,104.092 38.417 C 103.818 37.958,103.554 37.546,103.505 37.500 C 103.457 37.454,103.267 37.117,103.083 36.750 C 102.900 36.384,102.469 35.656,102.125 35.133 C 101.781 34.611,101.500 34.133,101.500 34.072 C 101.500 34.010,101.220 33.500,100.878 32.938 C 100.536 32.376,100.137 31.692,99.990 31.417 C 99.395 30.302,97.956 27.900,97.735 27.654 C 97.606 27.509,97.500 27.339,97.500 27.276 C 97.500 27.183,96.061 24.692,95.054 23.042 C 94.852 22.710,94.690 22.667,93.663 22.667 L 92.500 22.667 92.500 35.500 M362.833 26.578 L 362.833 28.655 361.125 28.703 L 359.417 28.750 359.368 29.958 L 359.319 31.167 361.066 31.167 L 362.813 31.167 362.865 37.792 C 362.915 44.230,362.927 44.439,363.287 45.219 C 363.628 45.958,364.918 47.511,365.150 47.463 C 365.249 47.442,365.989 47.736,366.526 48.010 C 367.225 48.365,370.374 48.104,371.387 47.607 C 372.676 46.974,372.775 46.621,372.011 45.384 L 371.682 44.851 371.133 45.131 C 368.889 46.274,366.857 45.920,366.000 44.235 L 365.583 43.417 365.532 37.292 L 365.481 31.167 368.498 31.167 L 371.515 31.167 371.466 29.958 L 371.417 28.750 368.458 28.704 L 365.500 28.659 365.500 26.579 L 365.500 24.500 364.167 24.500 L 362.833 24.500 362.833 26.578 M234.792 24.788 L 234.167 24.853 234.167 26.843 L 234.167 28.833 232.500 28.833 L 230.833 28.833 230.833 30.083 L 230.833 31.333 232.486 31.333 L 234.140 31.333 234.202 37.792 C 234.276 45.365,234.255 45.239,235.752 46.921 C 236.934 48.250,240.072 48.725,242.307 47.914 C 243.995 47.301,244.139 47.083,243.613 45.934 C 243.114 44.844,243.223 44.880,242.119 45.445 C 240.443 46.302,238.408 45.942,237.543 44.636 L 237.083 43.942 237.036 37.554 L 236.989 31.167 239.869 31.166 L 242.750 31.165 242.801 30.019 L 242.852 28.872 240.718 28.876 C 239.544 28.877,238.227 28.868,237.792 28.856 L 237.000 28.833 237.000 26.750 L 237.000 24.667 236.208 24.695 C 235.773 24.710,235.135 24.752,234.792 24.788 M217.250 28.852 C 216.883 28.932,216.387 29.031,216.148 29.072 C 215.343 29.207,213.601 30.243,212.714 31.114 L 211.833 31.978 211.833 30.429 L 211.833 28.880 210.500 28.848 L 209.167 28.816 209.167 38.491 L 209.167 48.167 210.492 48.167 L 211.816 48.167 211.884 42.708 C 211.971 35.759,212.174 34.724,213.781 33.078 C 215.879 30.927,220.327 30.706,222.451 32.646 C 223.920 33.988,224.129 35.384,224.154 44.042 L 224.167 48.167 225.573 48.167 L 226.979 48.167 226.988 42.208 C 226.999 35.168,226.928 34.523,225.911 32.452 C 225.182 30.965,223.255 29.390,221.810 29.101 C 221.594 29.058,221.013 28.942,220.519 28.844 C 219.481 28.639,218.204 28.642,217.250 28.852 M254.833 28.718 C 254.787 28.763,254.375 28.838,253.917 28.885 C 253.131 28.965,252.894 29.021,252.083 29.320 C 251.389 29.575,250.157 30.222,249.794 30.522 C 249.587 30.694,249.136 31.067,248.792 31.351 C 247.919 32.072,247.328 33.000,246.306 35.250 C 245.543 36.931,246.156 42.831,247.163 43.500 C 247.232 43.546,247.340 43.748,247.403 43.949 C 247.610 44.613,249.695 46.571,250.804 47.143 C 254.592 49.096,259.614 48.501,262.541 45.751 C 263.630 44.728,265.339 41.895,265.045 41.600 C 264.994 41.550,265.041 41.402,265.149 41.271 C 265.442 40.918,265.571 37.936,265.353 36.543 C 264.889 33.577,262.381 30.320,259.998 29.587 C 259.770 29.517,259.508 29.404,259.417 29.337 C 258.982 29.019,255.065 28.489,254.833 28.718 M315.083 28.837 C 313.011 29.252,309.333 31.736,309.333 32.721 C 309.333 32.800,309.175 33.087,308.982 33.359 C 308.641 33.837,308.124 35.303,307.872 36.500 C 307.378 38.857,308.134 42.516,309.464 44.207 C 310.537 45.570,313.083 47.621,313.541 47.491 C 313.564 47.484,313.696 47.515,313.833 47.560 C 317.978 48.910,322.011 48.280,324.646 45.871 C 325.502 45.089,325.500 45.031,324.591 44.083 C 323.781 43.237,323.753 43.237,322.800 44.083 C 318.693 47.734,310.789 44.874,310.593 39.667 C 310.585 39.449,311.615 39.406,318.583 39.333 L 326.583 39.250 326.638 38.583 C 326.959 34.693,323.722 29.932,320.173 29.072 C 320.032 29.038,319.617 28.934,319.250 28.842 C 318.473 28.647,316.047 28.644,315.083 28.837 M335.417 28.828 C 334.107 29.102,333.895 29.165,332.831 29.597 C 330.600 30.504,329.582 31.483,330.333 32.000 C 330.399 32.046,330.576 32.322,330.726 32.614 C 331.118 33.381,331.259 33.408,331.957 32.851 C 332.745 32.223,334.798 31.405,336.000 31.242 C 340.276 30.660,342.591 32.184,342.913 35.792 L 343.020 37.000 340.135 37.010 C 333.241 37.033,331.538 37.553,330.068 40.083 C 328.473 42.829,330.757 47.833,333.605 47.833 C 333.786 47.833,334.012 47.912,334.109 48.009 C 334.211 48.111,335.147 48.191,336.351 48.201 C 339.226 48.223,340.907 47.648,342.375 46.141 C 343.039 45.459,343.063 45.481,343.007 46.698 C 342.942 48.095,343.012 48.167,344.436 48.167 L 345.683 48.167 345.630 40.958 C 345.571 32.950,345.594 33.132,344.397 31.383 C 342.946 29.263,338.873 28.104,335.417 28.828 M131.667 29.086 C 130.625 29.372,128.667 30.312,128.667 30.525 C 128.667 30.603,128.587 30.667,128.489 30.667 C 128.211 30.667,126.147 32.833,126.256 33.009 C 126.309 33.096,126.287 33.167,126.207 33.167 C 126.127 33.167,125.926 33.448,125.761 33.792 C 124.163 37.109,124.470 41.898,126.445 44.482 C 127.794 46.245,130.074 47.756,131.917 48.107 C 136.261 48.935,139.449 48.178,141.840 45.750 C 142.446 45.134,142.463 45.239,141.606 44.292 C 140.748 43.345,140.797 43.350,139.937 44.092 C 138.384 45.430,137.209 45.829,134.818 45.832 C 130.877 45.836,127.616 43.069,127.504 39.625 C 127.502 39.556,131.065 39.500,135.422 39.500 C 142.711 39.500,143.352 39.477,143.452 39.218 C 143.594 38.847,143.238 35.686,142.984 35.066 C 142.402 33.646,142.135 33.157,141.421 32.208 C 140.991 31.635,140.583 31.167,140.516 31.167 C 140.449 31.167,140.139 30.940,139.828 30.662 C 139.258 30.153,137.782 29.375,137.220 29.288 C 137.053 29.262,136.812 29.175,136.684 29.095 C 136.244 28.821,132.654 28.814,131.667 29.086 M155.833 29.060 C 154.619 29.353,153.522 29.860,152.958 30.388 C 152.706 30.624,152.500 30.783,152.500 30.742 C 152.500 30.700,152.237 30.944,151.917 31.284 L 151.333 31.903 151.310 31.410 C 151.298 31.139,151.294 30.485,151.302 29.958 L 151.317 29.000 149.923 29.000 L 148.528 29.000 148.527 38.625 L 148.526 48.250 149.721 48.242 C 150.379 48.237,151.004 48.218,151.111 48.200 C 151.252 48.176,151.322 46.563,151.371 42.208 C 151.457 34.527,151.879 33.309,154.955 31.867 C 156.083 31.339,159.181 31.195,159.725 31.646 C 159.876 31.771,160.000 31.824,160.000 31.762 C 160.000 31.539,161.501 32.690,161.891 33.213 C 162.990 34.687,163.048 35.131,163.025 42.015 L 163.004 48.280 164.460 48.265 L 165.917 48.250 165.860 42.917 C 165.787 36.018,165.973 34.980,167.618 33.112 C 169.666 30.785,174.497 30.797,176.279 33.133 C 177.421 34.630,177.518 35.338,177.516 42.208 L 177.514 48.333 178.935 48.333 L 180.357 48.333 180.300 41.542 C 180.245 34.961,180.231 34.716,179.861 33.667 C 179.177 31.728,177.905 30.199,176.500 29.628 C 176.271 29.535,175.933 29.396,175.750 29.320 C 172.347 27.911,167.123 29.368,165.232 32.254 L 164.952 32.682 164.548 31.966 C 163.170 29.526,159.278 28.227,155.833 29.060 M192.828 28.891 C 192.780 28.941,192.480 29.028,192.162 29.083 C 189.526 29.543,186.829 32.139,185.756 35.249 C 185.278 36.632,185.162 40.695,185.581 41.333 C 185.671 41.471,185.747 41.621,185.749 41.667 C 185.820 43.142,188.149 46.087,190.020 47.066 C 194.023 49.162,199.173 48.726,202.125 46.041 C 203.007 45.239,203.006 45.072,202.119 44.201 C 201.276 43.374,201.156 43.355,200.630 43.958 C 199.186 45.617,195.514 46.292,192.741 45.409 C 191.967 45.163,191.333 44.895,191.333 44.814 C 191.333 44.733,191.255 44.667,191.159 44.667 C 190.205 44.667,188.167 41.256,188.167 39.658 C 188.167 39.561,191.190 39.500,196.083 39.500 L 204.000 39.500 204.000 38.157 C 204.000 34.142,201.992 31.044,198.333 29.415 C 197.297 28.954,193.150 28.559,192.828 28.891 M318.966 31.365 C 319.452 31.470,319.887 31.619,319.934 31.695 C 319.981 31.771,320.139 31.833,320.284 31.833 C 321.354 31.833,323.337 34.574,323.751 36.625 L 323.860 37.167 317.241 37.167 L 310.621 37.167 310.725 36.411 C 311.221 32.795,314.975 30.495,318.966 31.365 M137.143 31.961 C 138.935 32.798,140.742 35.410,140.831 37.292 C 140.832 37.315,137.832 37.333,134.165 37.333 L 127.496 37.333 127.605 36.625 C 128.240 32.501,133.156 30.098,137.143 31.961 M197.566 31.837 C 199.412 32.675,200.942 34.711,201.287 36.792 L 201.377 37.333 194.772 37.333 L 188.167 37.333 188.231 36.708 C 188.653 32.569,193.547 30.015,197.566 31.837 M258.582 31.797 C 260.242 32.528,262.069 34.443,262.188 35.576 C 262.193 35.621,262.297 35.993,262.421 36.402 C 263.155 38.842,262.322 42.160,260.552 43.844 C 256.685 47.526,250.422 45.819,249.043 40.708 C 248.058 37.057,249.934 32.626,252.833 31.759 C 253.063 31.691,253.588 31.530,254.000 31.401 C 255.186 31.031,257.247 31.209,258.582 31.797 M343.000 40.627 C 343.000 44.451,338.896 46.943,334.667 45.690 C 333.292 45.282,331.973 43.383,332.220 42.167 C 332.718 39.711,333.949 39.203,339.458 39.181 L 343.000 39.167 343.000 40.627 " stroke="none" fill="#fcfcfc" fill-rule="evenodd"></path><path id="path2" d="M12.907 36.750 C 12.907 39.317,12.930 40.343,12.958 39.032 C 12.986 37.720,12.986 35.620,12.958 34.365 C 12.930 33.110,12.907 34.183,12.907 36.750 " stroke="none" fill="#7484b8" fill-rule="evenodd"></path><path id="path3" d="M53.739 36.833 C 53.739 39.171,53.763 40.127,53.791 38.958 C 53.820 37.790,53.820 35.877,53.791 34.708 C 53.763 33.540,53.739 34.496,53.739 36.833 " stroke="none" fill="#dce2ec" fill-rule="evenodd"></path><path id="path4" d="M31.032 16.458 C 32.195 16.486,34.145 16.486,35.365 16.458 C 36.585 16.429,35.633 16.406,33.250 16.406 C 30.867 16.406,29.868 16.429,31.032 16.458 M17.708 43.625 C 18.877 43.653,20.790 43.653,21.958 43.625 C 23.127 43.596,22.171 43.572,19.833 43.572 C 17.496 43.572,16.540 43.596,17.708 43.625 M44.532 43.624 C 45.695 43.653,47.645 43.653,48.865 43.625 C 50.085 43.596,49.133 43.573,46.750 43.573 C 44.367 43.573,43.368 43.596,44.532 43.624 " stroke="none" fill="#b4c1dc" fill-rule="evenodd"></path><path id="path5" d="M40.073 23.417 C 40.073 25.800,40.096 26.752,40.125 25.532 C 40.153 24.312,40.153 22.362,40.124 21.198 C 40.096 20.035,40.073 21.033,40.073 23.417 M40.073 50.250 C 40.073 52.633,40.096 53.585,40.125 52.365 C 40.153 51.145,40.153 49.195,40.124 48.032 C 40.096 46.868,40.073 47.867,40.073 50.250 " stroke="none" fill="#a4acd4" fill-rule="evenodd"></path><path id="path6" d="" stroke="none" fill="#e4e4f4" fill-rule="evenodd"></path><path id="path7" d="" stroke="none" fill="#ececf4" fill-rule="evenodd"></path><path id="path8" d="M352.550 24.500 C 352.550 25.004,352.581 25.210,352.619 24.958 C 352.658 24.706,352.658 24.294,352.619 24.042 C 352.581 23.790,352.550 23.996,352.550 24.500 M283.542 31.750 C 283.544 32.117,283.578 32.247,283.618 32.040 C 283.658 31.832,283.656 31.532,283.615 31.373 C 283.573 31.214,283.540 31.383,283.542 31.750 M352.569 39.250 C 352.570 40.992,352.594 41.682,352.624 40.783 C 352.654 39.884,352.654 38.459,352.624 37.616 C 352.594 36.773,352.569 37.508,352.569 39.250 M283.542 43.417 C 283.544 43.783,283.578 43.914,283.618 43.706 C 283.658 43.499,283.656 43.199,283.615 43.040 C 283.573 42.880,283.540 43.050,283.542 43.417 M283.539 46.833 C 283.539 47.154,283.573 47.285,283.615 47.125 C 283.657 46.965,283.657 46.702,283.615 46.542 C 283.573 46.381,283.539 46.512,283.539 46.833 " stroke="none" fill="#f4f4f8" fill-rule="evenodd"></path></g></svg>