<svg id="svg" version="1.1" xmlns="http://www.w3.org/2000/svg" xmlns:xlink="http://www.w3.org/1999/xlink" width="400" height="73.34734875029199" viewBox="0, 0, 400,73.34734875029199"><g id="svgg"><path id="path0" d="M73.582 37.083 C 73.582 54.408,73.601 61.471,73.625 52.778 C 73.649 44.086,73.649 29.911,73.625 21.278 C 73.601 12.646,73.582 19.758,73.582 37.083 M377.052 27.083 C 377.053 27.633,377.084 27.838,377.121 27.539 C 377.158 27.239,377.157 26.789,377.119 26.539 C 377.081 26.288,377.051 26.533,377.052 27.083 M362.705 28.667 C 362.705 28.988,362.740 29.119,362.782 28.958 C 362.823 28.798,362.823 28.535,362.782 28.375 C 362.740 28.215,362.705 28.346,362.705 28.667 M95.042 31.583 C 95.044 31.950,95.078 32.080,95.118 31.873 C 95.158 31.666,95.156 31.366,95.115 31.206 C 95.073 31.047,95.040 31.217,95.042 31.583 M17.384 33.624 C 18.374 33.654,19.949 33.654,20.884 33.624 C 21.819 33.595,21.008 33.570,19.083 33.571 C 17.158 33.571,16.394 33.595,17.384 33.624 M40.384 33.624 C 41.374 33.654,42.949 33.654,43.884 33.624 C 44.819 33.595,44.008 33.570,42.083 33.571 C 40.158 33.571,39.394 33.595,40.384 33.624 " stroke="none" fill="#5464ac" fill-rule="evenodd"></path><path id="path1" d="M73.583 37.083 L 73.583 68.667 74.125 68.667 L 74.667 68.667 74.667 37.083 L 74.667 5.500 74.125 5.500 L 73.583 5.500 73.583 37.083 M27.667 15.310 C 27.666 15.369,27.348 15.423,26.958 15.431 C 26.569 15.438,26.025 15.501,25.750 15.570 C 25.475 15.639,25.119 15.694,24.958 15.692 C 24.798 15.689,24.667 15.741,24.667 15.807 C 24.667 15.873,24.476 15.943,24.244 15.962 C 24.011 15.982,23.468 16.164,23.036 16.368 C 22.603 16.572,22.137 16.749,22.000 16.761 C 21.558 16.802,20.924 17.033,20.667 17.249 C 20.529 17.364,20.135 17.548,19.792 17.659 C 19.448 17.769,19.167 17.913,19.167 17.979 C 19.167 18.046,18.897 18.197,18.566 18.317 C 18.236 18.436,17.832 18.668,17.667 18.833 C 17.503 18.997,17.154 19.238,16.892 19.369 C 16.631 19.499,16.437 19.700,16.462 19.815 C 16.488 19.930,16.432 19.977,16.338 19.919 C 16.133 19.793,15.455 20.233,15.612 20.390 C 15.673 20.450,15.593 20.500,15.435 20.500 C 15.276 20.500,15.190 20.570,15.243 20.655 C 15.295 20.740,15.186 20.858,15.000 20.917 C 14.803 20.979,14.709 21.106,14.774 21.220 C 14.836 21.328,14.827 21.363,14.754 21.297 C 14.573 21.133,13.667 21.798,13.667 22.095 C 13.667 22.226,13.554 22.333,13.417 22.333 C 13.279 22.333,13.167 22.397,13.167 22.476 C 13.167 22.554,12.979 22.820,12.750 23.068 C 12.521 23.315,12.333 23.593,12.333 23.685 C 12.333 23.777,12.277 23.819,12.208 23.777 C 12.090 23.706,11.536 24.190,11.625 24.288 C 11.761 24.437,11.621 24.659,11.331 24.751 C 11.146 24.809,11.038 24.927,11.091 25.012 C 11.143 25.097,11.094 25.167,10.982 25.167 C 10.870 25.167,10.820 25.208,10.871 25.260 C 10.922 25.311,10.750 25.586,10.490 25.872 C 10.229 26.157,10.050 26.447,10.093 26.515 C 10.135 26.584,10.060 26.749,9.926 26.883 C 9.792 27.017,9.729 27.173,9.786 27.230 C 9.842 27.287,9.807 27.333,9.707 27.333 C 9.423 27.333,8.095 30.249,8.258 30.513 C 8.298 30.578,8.216 30.676,8.075 30.730 C 7.933 30.785,7.833 30.924,7.852 31.039 C 7.871 31.155,7.800 31.461,7.693 31.719 C 7.587 31.977,7.500 32.281,7.500 32.394 C 7.500 32.507,7.406 32.701,7.292 32.824 C 7.122 33.007,7.130 33.023,7.333 32.909 C 7.549 32.789,7.552 32.808,7.355 33.051 C 7.229 33.206,7.182 33.333,7.250 33.333 C 7.318 33.333,7.300 33.427,7.210 33.542 C 7.119 33.656,7.041 33.862,7.036 34.000 C 7.031 34.137,6.982 34.438,6.927 34.667 C 6.507 36.422,6.492 40.989,6.896 43.750 C 7.108 45.199,7.205 45.587,7.379 45.695 C 7.478 45.756,7.570 46.019,7.583 46.278 C 7.610 46.837,8.135 48.311,8.433 48.667 C 8.548 48.804,8.637 48.954,8.630 49.000 C 8.597 49.221,8.902 49.950,9.142 50.223 C 9.291 50.392,9.421 50.617,9.431 50.723 C 9.484 51.283,9.515 51.344,9.692 51.234 C 9.809 51.162,9.840 51.188,9.770 51.302 C 9.706 51.404,9.801 51.634,9.980 51.813 C 10.159 51.992,10.262 52.183,10.208 52.236 C 10.155 52.290,10.199 52.333,10.306 52.333 C 10.412 52.333,10.500 52.446,10.500 52.583 C 10.500 52.721,10.588 52.833,10.694 52.833 C 10.801 52.833,10.839 52.883,10.778 52.944 C 10.717 53.005,10.874 53.249,11.126 53.486 C 11.778 54.100,12.303 54.755,12.000 54.577 C 11.862 54.496,11.938 54.666,12.167 54.956 C 12.396 55.246,12.715 55.529,12.875 55.586 C 13.035 55.643,13.167 55.798,13.167 55.931 C 13.167 56.065,13.352 56.258,13.578 56.361 C 13.804 56.464,13.952 56.609,13.907 56.683 C 13.861 56.756,13.995 56.905,14.204 57.013 C 14.412 57.120,14.790 57.429,15.042 57.698 C 15.294 57.967,15.500 58.148,15.500 58.099 C 15.500 58.051,15.728 58.234,16.006 58.506 C 16.466 58.956,16.611 59.030,16.943 58.985 C 17.004 58.977,17.120 59.089,17.202 59.235 C 17.283 59.381,17.463 59.500,17.601 59.500 C 17.740 59.500,17.807 59.575,17.750 59.667 C 17.693 59.758,17.804 59.833,17.995 59.833 C 18.187 59.833,18.387 59.945,18.439 60.082 C 18.492 60.219,18.599 60.292,18.678 60.243 C 18.757 60.194,18.977 60.310,19.167 60.500 C 19.357 60.690,19.584 60.801,19.673 60.746 C 19.761 60.692,19.833 60.718,19.833 60.804 C 19.833 60.934,20.420 61.181,20.648 61.148 C 20.684 61.142,20.766 61.225,20.831 61.330 C 20.897 61.436,21.055 61.542,21.183 61.566 C 21.810 61.682,22.833 62.068,22.833 62.188 C 22.833 62.262,22.946 62.280,23.083 62.227 C 23.221 62.174,23.333 62.213,23.333 62.314 C 23.333 62.414,23.502 62.492,23.708 62.486 C 24.108 62.475,24.410 62.541,24.867 62.740 C 25.023 62.807,25.241 62.807,25.351 62.739 C 25.474 62.663,25.508 62.686,25.439 62.797 C 25.321 62.988,25.437 63.012,26.625 63.047 C 27.015 63.058,27.333 63.122,27.333 63.188 C 27.333 63.255,27.577 63.302,27.875 63.292 C 28.173 63.282,29.263 63.321,30.297 63.379 C 31.331 63.437,32.143 63.430,32.102 63.363 C 32.061 63.297,32.321 63.258,32.680 63.279 C 33.039 63.299,33.333 63.244,33.333 63.158 C 33.333 63.071,33.413 63.000,33.510 63.000 C 33.607 63.000,33.648 63.063,33.601 63.139 C 33.553 63.215,33.621 63.278,33.750 63.278 C 33.879 63.278,33.952 63.224,33.911 63.158 C 33.871 63.092,34.021 63.003,34.246 62.960 C 34.471 62.917,34.689 62.965,34.731 63.066 C 34.787 63.200,34.846 63.200,34.946 63.067 C 35.021 62.966,35.196 62.881,35.333 62.878 C 35.665 62.870,36.413 62.718,36.876 62.564 C 37.082 62.496,37.362 62.428,37.500 62.415 C 37.637 62.401,37.886 62.378,38.052 62.362 C 38.236 62.344,38.306 62.257,38.232 62.138 C 38.155 62.013,38.198 61.977,38.355 62.036 C 38.488 62.088,38.733 62.031,38.898 61.910 C 39.064 61.789,39.304 61.730,39.433 61.779 C 39.561 61.829,39.667 61.786,39.667 61.684 C 39.667 61.583,39.843 61.500,40.058 61.500 C 40.272 61.500,40.581 61.353,40.744 61.173 C 40.907 60.994,41.087 60.852,41.145 60.860 C 41.525 60.907,41.837 60.808,41.750 60.667 C 41.693 60.575,41.734 60.500,41.839 60.500 C 41.945 60.500,42.249 60.345,42.515 60.156 C 42.780 59.967,43.073 59.859,43.166 59.916 C 43.258 59.973,43.333 59.940,43.333 59.843 C 43.333 59.746,43.441 59.667,43.573 59.667 C 43.706 59.667,43.867 59.580,43.933 59.474 C 44.011 59.347,43.978 59.327,43.833 59.417 C 43.688 59.507,43.655 59.486,43.736 59.356 C 43.802 59.249,43.935 59.210,44.030 59.269 C 44.126 59.328,44.252 59.310,44.310 59.229 C 44.369 59.149,44.863 58.745,45.408 58.333 C 46.735 57.330,48.096 55.997,48.028 55.768 C 47.997 55.667,48.027 55.638,48.093 55.704 C 48.254 55.865,50.000 54.007,50.000 53.675 C 50.000 53.590,50.226 53.273,50.503 52.970 C 50.779 52.668,50.967 52.322,50.921 52.201 C 50.875 52.081,50.903 52.024,50.984 52.074 C 51.127 52.162,51.833 50.847,51.833 50.492 C 51.833 50.394,51.900 50.355,51.981 50.405 C 52.120 50.491,52.350 50.035,52.583 49.208 C 52.642 49.002,52.767 48.833,52.862 48.833 C 52.958 48.833,52.992 48.721,52.940 48.583 C 52.887 48.446,52.925 48.333,53.025 48.333 C 53.124 48.333,53.166 48.183,53.118 48.000 C 53.063 47.790,53.097 47.707,53.208 47.776 C 53.322 47.846,53.352 47.756,53.292 47.526 C 53.240 47.328,53.260 47.205,53.337 47.252 C 53.525 47.368,53.719 46.719,53.568 46.476 C 53.489 46.347,53.522 46.327,53.665 46.416 C 53.830 46.518,53.856 46.448,53.775 46.122 C 53.707 45.854,53.741 45.670,53.866 45.628 C 53.975 45.592,54.069 45.255,54.074 44.881 C 54.079 44.506,54.130 44.229,54.188 44.264 C 54.332 44.352,54.489 43.500,54.429 42.955 C 54.402 42.710,54.435 42.543,54.501 42.584 C 54.731 42.726,54.811 40.298,54.695 36.698 C 54.679 36.212,54.610 35.848,54.542 35.891 C 54.473 35.933,54.403 35.713,54.386 35.401 C 54.336 34.469,54.296 34.260,54.125 34.044 C 54.036 33.930,54.005 33.727,54.057 33.591 C 54.109 33.455,54.075 33.297,53.981 33.238 C 53.887 33.180,53.851 33.028,53.900 32.900 C 53.949 32.772,53.924 32.667,53.843 32.667 C 53.762 32.667,53.716 32.535,53.740 32.375 C 53.805 31.943,53.493 31.151,53.304 31.268 C 53.213 31.324,53.154 31.230,53.172 31.060 C 53.239 30.434,53.158 30.172,52.792 29.815 C 52.585 29.615,52.529 29.505,52.667 29.571 C 52.804 29.637,52.771 29.573,52.593 29.429 C 52.415 29.285,52.331 29.167,52.405 29.167 C 52.480 29.167,52.438 29.040,52.312 28.885 C 52.115 28.642,52.118 28.620,52.333 28.730 C 52.527 28.829,52.524 28.808,52.319 28.637 C 52.173 28.516,52.081 28.336,52.115 28.237 C 52.148 28.139,51.994 27.862,51.772 27.623 C 51.550 27.383,51.402 27.154,51.443 27.112 C 51.578 26.977,50.891 25.998,50.750 26.126 C 50.675 26.194,50.667 26.157,50.733 26.042 C 50.803 25.919,50.669 25.665,50.402 25.417 C 50.154 25.188,50.002 25.000,50.063 25.000 C 50.124 25.000,50.051 24.813,49.901 24.583 C 49.751 24.354,49.524 24.167,49.397 24.167 C 49.271 24.167,49.179 24.110,49.193 24.042 C 49.241 23.813,48.967 23.334,48.835 23.416 C 48.763 23.460,48.666 23.347,48.618 23.165 C 48.570 22.982,48.407 22.833,48.256 22.833 C 48.104 22.833,48.020 22.769,48.069 22.690 C 48.118 22.611,47.705 22.142,47.151 21.648 C 46.598 21.154,45.966 20.581,45.747 20.375 C 45.528 20.169,45.233 20.000,45.091 20.000 C 44.949 20.000,44.832 19.869,44.831 19.708 C 44.829 19.459,44.805 19.453,44.667 19.667 C 44.527 19.882,44.505 19.878,44.503 19.636 C 44.500 19.381,43.928 19.053,43.625 19.134 C 43.556 19.152,43.519 19.090,43.542 18.996 C 43.565 18.902,43.361 18.696,43.088 18.537 C 42.816 18.379,42.488 18.152,42.359 18.032 C 42.229 17.912,42.017 17.855,41.887 17.905 C 41.755 17.956,41.695 17.923,41.751 17.831 C 41.807 17.741,41.708 17.667,41.530 17.667 C 41.353 17.667,41.118 17.559,41.008 17.427 C 40.899 17.295,40.702 17.228,40.571 17.278 C 40.440 17.328,40.333 17.278,40.333 17.167 C 40.333 17.052,40.221 17.007,40.075 17.064 C 39.926 17.121,39.859 17.093,39.918 16.998 C 39.974 16.907,39.880 16.833,39.710 16.833 C 39.539 16.833,39.299 16.740,39.176 16.625 C 38.993 16.456,38.977 16.463,39.088 16.667 C 39.183 16.842,39.122 16.827,38.883 16.618 C 38.695 16.454,38.476 16.331,38.396 16.346 C 38.316 16.361,38.194 16.355,38.125 16.332 C 38.056 16.310,37.925 16.273,37.833 16.250 C 37.742 16.227,37.629 16.190,37.583 16.167 C 37.537 16.144,37.362 16.116,37.192 16.104 C 37.023 16.093,36.753 15.974,36.592 15.841 C 36.413 15.692,35.925 15.595,35.333 15.591 C 34.801 15.587,34.400 15.527,34.443 15.458 C 34.533 15.312,34.336 15.301,30.542 15.246 C 28.960 15.222,27.667 15.251,27.667 15.310 M31.750 17.669 C 32.392 17.701,33.310 17.732,33.792 17.739 C 34.273 17.745,34.667 17.815,34.667 17.894 C 34.667 17.974,34.817 18.000,35.000 17.952 C 35.183 17.904,35.333 17.933,35.333 18.016 C 35.333 18.099,35.390 18.152,35.458 18.135 C 35.620 18.094,37.489 18.654,37.892 18.864 C 38.129 18.987,38.175 18.973,38.088 18.804 C 38.026 18.683,38.079 18.710,38.206 18.864 C 38.333 19.018,38.658 19.192,38.927 19.249 C 39.196 19.307,39.594 19.391,39.811 19.435 C 40.028 19.480,40.159 19.564,40.100 19.622 C 40.006 19.716,40.579 20.074,41.833 20.705 C 42.063 20.820,42.397 21.048,42.577 21.211 C 42.758 21.375,42.999 21.472,43.114 21.428 C 43.229 21.384,43.374 21.431,43.437 21.533 C 43.510 21.652,43.468 21.675,43.317 21.597 C 43.091 21.479,43.211 21.582,44.229 22.376 C 44.493 22.582,44.959 22.994,45.265 23.292 C 45.572 23.590,45.942 23.833,46.088 23.833 C 46.234 23.833,46.308 23.906,46.253 23.995 C 46.198 24.083,46.363 24.376,46.618 24.645 C 47.427 25.495,47.768 25.922,47.886 26.231 C 47.950 26.397,48.156 26.572,48.344 26.621 C 48.534 26.671,48.649 26.805,48.603 26.925 C 48.558 27.043,48.634 27.182,48.771 27.235 C 48.909 27.288,48.979 27.399,48.928 27.481 C 48.877 27.564,48.948 27.675,49.086 27.728 C 49.224 27.781,49.327 27.882,49.315 27.954 C 49.268 28.240,49.344 28.487,49.542 28.696 C 49.877 29.051,50.500 30.271,50.500 30.574 C 50.500 30.728,50.567 30.812,50.648 30.762 C 50.729 30.711,50.792 30.763,50.788 30.877 C 50.769 31.412,50.848 31.677,50.998 31.585 C 51.093 31.526,51.121 31.593,51.064 31.741 C 51.009 31.884,51.052 32.000,51.159 32.000 C 51.266 32.000,51.305 32.078,51.245 32.174 C 51.186 32.270,51.204 32.438,51.284 32.549 C 51.364 32.660,51.453 32.975,51.482 33.250 C 51.511 33.525,51.604 33.793,51.689 33.847 C 51.775 33.900,51.797 34.069,51.738 34.222 C 51.674 34.388,51.713 34.500,51.835 34.500 C 51.963 34.500,52.009 34.656,51.959 34.917 C 51.915 35.146,51.929 35.333,51.989 35.333 C 52.049 35.333,52.117 35.605,52.139 35.936 C 52.196 36.776,52.227 36.900,52.417 37.039 C 52.518 37.114,52.498 37.163,52.365 37.164 C 52.245 37.166,52.200 37.252,52.264 37.356 C 52.431 37.626,52.447 41.511,52.281 41.277 C 52.202 41.166,52.174 41.331,52.215 41.661 C 52.254 41.979,52.180 42.492,52.051 42.801 C 51.921 43.112,51.895 43.315,51.991 43.255 C 52.242 43.100,52.208 43.367,51.925 43.771 C 51.792 43.960,51.685 44.258,51.686 44.433 C 51.689 44.873,51.286 46.228,51.115 46.351 C 51.038 46.407,50.995 46.557,51.021 46.684 C 51.047 46.812,50.943 47.151,50.791 47.437 C 50.638 47.723,50.567 48.017,50.632 48.089 C 50.697 48.161,50.656 48.166,50.542 48.100 C 50.422 48.032,50.322 48.074,50.308 48.198 C 50.230 48.872,50.021 49.345,49.636 49.718 C 49.466 49.884,49.370 50.090,49.423 50.177 C 49.476 50.263,49.436 50.333,49.333 50.333 C 49.231 50.333,49.193 50.408,49.250 50.500 C 49.307 50.592,49.272 50.667,49.172 50.667 C 49.002 50.667,48.588 51.457,48.634 51.692 C 48.646 51.752,48.527 51.902,48.370 52.026 C 48.111 52.228,48.106 52.221,48.312 51.958 C 48.438 51.798,48.503 51.667,48.457 51.667 C 48.411 51.667,48.163 51.942,47.906 52.279 C 47.650 52.615,47.534 52.832,47.649 52.761 C 47.808 52.662,47.806 52.715,47.639 52.983 C 47.518 53.175,47.365 53.333,47.299 53.333 C 47.156 53.333,46.177 54.316,45.869 54.768 C 45.751 54.942,45.709 54.971,45.776 54.833 C 45.880 54.618,45.858 54.615,45.615 54.812 C 45.460 54.938,45.333 55.139,45.333 55.259 C 45.333 55.379,45.183 55.525,45.000 55.583 C 44.817 55.642,44.667 55.747,44.667 55.818 C 44.667 55.889,44.475 56.034,44.241 56.141 C 43.982 56.258,43.862 56.411,43.935 56.529 C 44.015 56.658,43.964 56.689,43.783 56.619 C 43.610 56.553,43.398 56.660,43.195 56.919 C 43.020 57.140,42.826 57.270,42.763 57.208 C 42.700 57.145,42.596 57.166,42.533 57.255 C 42.359 57.498,41.370 58.167,41.185 58.167 C 41.096 58.167,40.894 58.297,40.735 58.456 C 40.576 58.615,40.364 58.753,40.265 58.764 C 40.165 58.774,39.985 58.794,39.865 58.808 C 39.745 58.822,39.700 58.920,39.766 59.026 C 39.842 59.149,39.811 59.173,39.682 59.093 C 39.569 59.023,39.346 59.088,39.180 59.238 C 39.015 59.387,38.603 59.545,38.265 59.588 C 37.927 59.631,37.429 59.781,37.158 59.921 C 36.888 60.061,36.667 60.141,36.667 60.099 C 36.667 60.057,36.423 60.097,36.125 60.188 C 35.827 60.279,35.397 60.390,35.170 60.437 C 34.943 60.483,34.700 60.610,34.631 60.719 C 34.540 60.862,34.504 60.852,34.503 60.683 C 34.501 60.499,34.431 60.511,34.183 60.735 C 33.965 60.932,33.831 60.964,33.752 60.836 C 33.683 60.725,33.559 60.709,33.443 60.796 C 33.337 60.876,33.044 60.922,32.792 60.897 C 32.540 60.873,32.333 60.922,32.333 61.006 C 32.333 61.096,32.157 61.091,31.906 60.996 C 31.312 60.770,30.785 60.786,30.933 61.026 C 31.009 61.149,30.978 61.173,30.847 61.092 C 30.675 60.985,29.434 60.877,27.303 60.783 C 27.058 60.773,26.900 60.694,26.953 60.608 C 27.008 60.519,26.860 60.488,26.608 60.536 C 26.365 60.582,26.167 60.548,26.167 60.459 C 26.167 60.370,26.057 60.340,25.922 60.392 C 25.787 60.443,25.631 60.410,25.574 60.318 C 25.508 60.211,25.374 60.229,25.203 60.367 C 25.003 60.529,24.967 60.531,25.061 60.375 C 25.144 60.237,25.071 60.160,24.843 60.146 C 24.654 60.134,24.425 60.106,24.333 60.083 C 24.242 60.060,23.998 60.031,23.792 60.018 C 23.486 59.999,23.463 59.965,23.667 59.833 C 23.883 59.694,23.879 59.671,23.639 59.669 C 23.486 59.668,23.230 59.616,23.070 59.555 C 22.849 59.471,22.813 59.501,22.918 59.680 C 23.015 59.846,22.961 59.835,22.737 59.645 C 22.561 59.495,22.248 59.321,22.042 59.258 C 21.835 59.196,21.667 59.066,21.667 58.971 C 21.667 58.876,21.559 58.839,21.427 58.889 C 21.296 58.940,21.163 58.906,21.133 58.815 C 21.102 58.723,20.941 58.629,20.775 58.604 C 20.609 58.580,20.423 58.482,20.362 58.387 C 20.300 58.291,19.987 58.079,19.667 57.914 C 19.004 57.574,18.258 57.073,17.708 56.599 C 17.502 56.421,17.333 56.328,17.333 56.393 C 17.333 56.458,17.115 56.303,16.848 56.047 C 16.582 55.792,16.012 55.246,15.582 54.833 C 15.151 54.421,14.507 53.720,14.150 53.277 C 13.792 52.833,13.493 52.571,13.483 52.693 C 13.474 52.816,13.411 52.729,13.344 52.500 C 13.276 52.271,13.128 52.104,13.015 52.129 C 12.901 52.154,12.856 52.098,12.915 52.003 C 13.018 51.836,12.442 50.873,12.091 50.628 C 11.995 50.560,11.986 50.504,12.071 50.503 C 12.155 50.501,12.049 50.312,11.833 50.083 C 11.618 49.854,11.506 49.667,11.583 49.667 C 11.661 49.667,11.549 49.480,11.335 49.252 C 11.121 49.024,10.925 48.643,10.899 48.406 C 10.874 48.169,10.760 47.862,10.645 47.724 C 10.530 47.585,10.419 47.347,10.398 47.194 C 10.378 47.042,10.245 46.617,10.104 46.250 C 9.963 45.883,9.845 45.448,9.841 45.282 C 9.837 45.116,9.765 45.022,9.682 45.074 C 9.599 45.125,9.573 45.005,9.625 44.808 C 9.677 44.610,9.651 44.490,9.568 44.541 C 9.485 44.593,9.411 44.436,9.403 44.192 C 9.396 43.949,9.335 43.487,9.267 43.167 C 9.200 42.846,9.138 42.377,9.130 42.125 C 9.122 41.873,9.071 41.667,9.016 41.667 C 8.836 41.667,9.007 36.265,9.206 35.667 C 9.495 34.798,9.969 32.416,9.883 32.265 C 9.826 32.165,9.841 32.139,9.916 32.207 C 10.073 32.348,10.868 30.508,10.767 30.238 C 10.730 30.140,10.845 29.969,11.023 29.858 C 11.201 29.747,11.301 29.583,11.247 29.495 C 11.192 29.406,11.208 29.332,11.282 29.331 C 11.356 29.330,11.566 29.012,11.747 28.623 C 11.929 28.235,12.139 27.872,12.214 27.818 C 12.289 27.764,12.362 27.563,12.376 27.372 C 12.391 27.180,12.469 27.037,12.550 27.053 C 12.631 27.070,12.784 26.942,12.891 26.769 C 12.997 26.596,13.322 26.187,13.615 25.861 C 13.907 25.535,14.109 25.208,14.063 25.134 C 14.018 25.060,14.063 25.000,14.165 25.000 C 14.401 25.000,15.154 24.149,15.161 23.875 C 15.164 23.760,15.238 23.685,15.324 23.708 C 15.411 23.731,15.828 23.417,16.252 23.010 C 16.676 22.603,17.186 22.184,17.386 22.079 C 17.586 21.975,17.728 21.793,17.702 21.674 C 17.672 21.541,17.751 21.497,17.910 21.558 C 18.051 21.612,18.167 21.584,18.167 21.495 C 18.167 21.406,18.260 21.332,18.375 21.330 C 18.490 21.329,18.760 21.142,18.975 20.914 C 19.191 20.687,19.426 20.537,19.497 20.582 C 19.569 20.626,19.805 20.522,20.022 20.352 C 20.239 20.181,20.492 20.013,20.583 19.979 C 20.675 19.945,20.731 19.860,20.708 19.792 C 20.685 19.723,20.723 19.675,20.792 19.685 C 21.031 19.719,21.667 19.460,21.667 19.329 C 21.667 19.256,21.798 19.217,21.958 19.243 C 22.119 19.268,22.456 19.185,22.708 19.057 C 22.960 18.929,23.167 18.867,23.167 18.918 C 23.167 18.970,23.335 18.919,23.542 18.806 C 23.748 18.692,23.992 18.585,24.083 18.568 C 24.175 18.551,24.700 18.408,25.250 18.249 C 25.800 18.091,26.419 17.952,26.625 17.939 C 26.831 17.927,27.000 17.862,27.000 17.795 C 27.000 17.728,27.281 17.674,27.625 17.676 C 28.908 17.682,30.143 17.579,30.266 17.456 C 30.337 17.386,30.437 17.392,30.489 17.470 C 30.541 17.548,31.108 17.637,31.750 17.669 M33.974 21.915 C 33.936 21.953,32.190 21.996,30.094 22.009 C 26.332 22.034,26.279 22.040,25.892 22.426 C 25.676 22.642,25.500 22.767,25.500 22.705 C 25.500 22.643,25.379 22.765,25.232 22.975 C 25.002 23.303,24.968 23.925,24.989 27.345 C 25.006 30.115,24.958 31.333,24.833 31.333 C 24.733 31.333,24.664 31.427,24.679 31.542 C 24.747 32.061,24.653 32.678,24.519 32.595 C 24.321 32.473,23.969 32.910,24.126 33.084 C 24.194 33.159,24.156 33.166,24.042 33.100 C 23.927 33.034,23.833 33.064,23.833 33.167 C 23.833 33.269,23.766 33.312,23.684 33.261 C 23.602 33.210,23.254 33.287,22.910 33.430 C 22.395 33.646,21.634 33.685,18.600 33.652 C 14.692 33.610,13.651 33.784,13.901 34.437 C 13.953 34.573,13.931 34.644,13.851 34.594 C 13.436 34.338,13.315 35.551,13.384 39.267 C 13.467 43.697,13.486 43.835,14.097 44.445 C 14.631 44.979,14.424 44.957,19.331 44.996 C 21.587 45.014,22.991 45.090,23.127 45.203 C 23.245 45.301,23.387 45.335,23.443 45.280 C 23.730 44.992,24.563 46.009,24.738 46.862 C 24.763 46.984,24.840 47.215,24.910 47.376 C 24.980 47.537,25.009 49.319,24.976 51.335 C 24.942 53.351,24.976 55.000,25.050 55.000 C 25.125 55.000,25.145 55.067,25.094 55.150 C 25.043 55.232,25.227 55.541,25.503 55.836 L 26.004 56.373 30.502 56.395 C 32.976 56.407,35.000 56.356,35.000 56.282 C 35.000 56.208,35.064 56.186,35.141 56.234 C 35.340 56.357,36.225 55.397,36.101 55.194 C 36.044 55.103,36.092 54.997,36.207 54.959 C 36.366 54.906,36.429 53.887,36.469 50.755 C 36.514 47.238,36.563 46.557,36.800 46.186 C 37.308 45.392,37.993 44.944,38.437 45.114 C 38.594 45.175,38.679 45.155,38.626 45.070 C 38.569 44.978,40.107 44.936,42.483 44.964 L 46.434 45.011 47.119 44.359 C 47.703 43.804,47.820 43.576,47.914 42.812 C 48.045 41.749,47.943 35.592,47.785 35.015 C 47.567 34.215,45.988 33.112,45.608 33.492 C 45.495 33.605,44.222 33.654,42.008 33.630 L 38.583 33.594 42.083 33.497 L 45.583 33.401 41.750 33.378 C 37.421 33.352,37.520 33.370,36.919 32.503 L 36.476 31.865 36.494 28.178 C 36.516 23.308,36.283 22.505,34.750 22.170 C 34.658 22.150,34.462 22.069,34.314 21.989 C 34.165 21.910,34.013 21.876,33.974 21.915 M377.047 35.867 C 377.026 43.228,377.051 49.383,377.101 49.545 C 377.183 49.814,379.505 49.884,379.764 49.625 C 379.880 49.509,379.850 38.329,379.733 38.139 C 379.655 38.013,379.690 37.995,379.836 38.085 C 379.993 38.182,380.028 38.147,379.958 37.965 C 379.904 37.824,379.962 37.511,380.087 37.271 C 380.211 37.030,380.279 36.833,380.236 36.833 C 380.194 36.833,380.282 36.646,380.432 36.417 C 380.582 36.188,380.663 36.000,380.612 36.000 C 380.413 36.000,380.975 35.151,381.392 34.823 C 381.635 34.632,381.833 34.364,381.833 34.228 C 381.833 34.092,381.900 34.021,381.981 34.072 C 382.062 34.122,382.221 34.052,382.333 33.917 C 382.446 33.781,382.596 33.706,382.667 33.750 C 382.738 33.794,382.888 33.718,383.002 33.581 C 383.115 33.445,383.311 33.333,383.437 33.333 C 383.563 33.333,383.667 33.277,383.667 33.208 C 383.667 33.085,384.304 33.000,385.208 33.004 C 385.460 33.005,385.667 32.947,385.667 32.875 C 385.667 32.743,386.329 32.761,387.250 32.917 C 387.525 32.964,387.959 33.013,388.214 33.027 C 388.470 33.040,388.718 33.115,388.766 33.192 C 388.814 33.270,388.964 33.333,389.100 33.333 C 389.236 33.333,389.505 33.481,389.699 33.661 C 389.892 33.841,390.126 33.942,390.218 33.885 C 390.310 33.828,390.335 33.863,390.273 33.962 C 390.212 34.062,390.314 34.191,390.500 34.250 C 390.686 34.309,390.798 34.422,390.750 34.500 C 390.702 34.578,390.809 34.689,390.989 34.747 C 391.169 34.804,391.279 34.947,391.234 35.065 C 391.189 35.183,391.267 35.375,391.407 35.492 C 391.548 35.609,391.615 35.782,391.556 35.878 C 391.497 35.973,391.587 36.152,391.756 36.275 C 391.925 36.399,391.986 36.500,391.891 36.500 C 391.776 36.500,391.786 36.765,391.921 37.292 C 392.033 37.727,392.107 38.252,392.085 38.458 C 392.063 38.665,392.120 38.833,392.210 38.833 C 392.313 38.833,392.316 38.911,392.218 39.042 C 392.131 39.158,392.049 41.550,392.031 44.471 L 392.000 49.692 393.379 49.638 L 394.758 49.583 394.779 43.708 C 394.790 40.477,394.751 37.833,394.691 37.833 C 394.632 37.834,394.599 37.421,394.619 36.917 C 394.638 36.413,394.598 36.000,394.529 36.000 C 394.461 36.000,394.394 35.868,394.382 35.707 C 394.346 35.230,394.258 34.923,394.129 34.826 C 394.063 34.776,393.984 34.577,393.955 34.384 C 393.885 33.927,393.011 32.667,392.763 32.667 C 392.658 32.667,392.439 32.442,392.277 32.167 C 392.114 31.892,391.882 31.667,391.761 31.667 C 391.640 31.667,391.448 31.555,391.335 31.419 C 391.222 31.282,391.076 31.203,391.011 31.243 C 390.946 31.283,390.673 31.183,390.405 31.020 C 389.550 30.502,385.503 30.091,385.252 30.497 C 385.199 30.582,385.052 30.612,384.924 30.563 C 384.797 30.514,384.532 30.560,384.336 30.665 C 383.979 30.856,383.436 31.014,383.042 31.041 C 382.927 31.049,382.833 31.131,382.833 31.222 C 382.833 31.314,382.789 31.345,382.736 31.291 C 382.682 31.238,382.492 31.319,382.314 31.472 C 382.135 31.625,381.973 31.719,381.953 31.680 C 381.933 31.642,381.746 31.702,381.537 31.814 C 381.328 31.925,381.203 32.090,381.258 32.179 C 381.313 32.268,381.284 32.321,381.194 32.296 C 381.104 32.271,380.761 32.550,380.432 32.917 L 379.834 33.583 379.815 29.833 C 379.804 27.771,379.811 25.287,379.830 24.315 L 379.863 22.546 378.473 22.515 L 377.083 22.485 377.047 35.867 M352.644 29.042 C 352.632 32.548,352.611 38.642,352.599 42.583 L 352.577 49.750 353.497 49.741 C 354.003 49.736,354.579 49.717,354.776 49.699 L 355.136 49.667 355.141 36.167 L 355.145 22.667 353.906 22.667 L 352.667 22.667 352.644 29.042 M280.710 36.989 L 280.684 49.825 281.993 49.816 L 283.301 49.807 283.379 49.279 C 283.422 48.988,283.444 46.331,283.427 43.375 L 283.397 38.000 291.282 38.000 C 297.461 38.000,299.174 38.045,299.199 38.208 C 299.217 38.323,299.236 40.904,299.241 43.944 C 299.251 50.279,299.089 49.676,300.801 49.731 L 302.136 49.774 302.116 42.899 C 302.105 39.117,302.037 36.060,301.965 36.105 C 301.797 36.209,301.792 35.764,301.958 35.597 C 302.153 35.403,302.147 29.434,301.952 29.308 C 301.851 29.243,301.841 29.079,301.928 28.892 C 302.107 28.509,302.131 25.836,301.956 25.944 C 301.885 25.988,301.875 25.624,301.932 25.137 L 302.036 24.250 300.595 24.195 L 299.154 24.140 299.203 29.195 C 299.229 31.975,299.213 34.549,299.167 34.915 L 299.083 35.581 291.245 35.582 L 283.406 35.583 283.407 29.917 L 283.409 24.250 282.072 24.202 L 280.736 24.154 280.710 36.989 M116.960 24.474 C 116.480 24.589,115.748 25.728,115.948 26.050 C 116.007 26.146,115.968 26.167,115.859 26.099 C 115.745 26.029,115.667 26.086,115.667 26.240 C 115.667 26.383,115.588 26.500,115.493 26.500 C 115.397 26.500,115.341 26.631,115.368 26.792 C 115.397 26.965,115.326 27.064,115.193 27.036 C 115.070 27.011,115.001 27.085,115.039 27.202 C 115.078 27.318,115.010 27.514,114.887 27.637 C 114.764 27.760,114.706 27.929,114.758 28.013 C 114.810 28.098,114.741 28.167,114.604 28.167 C 114.374 28.167,114.058 28.755,114.134 29.042 C 114.152 29.110,114.087 29.167,113.990 29.167 C 113.893 29.167,113.855 29.234,113.906 29.316 C 113.957 29.398,113.878 29.511,113.732 29.567 C 113.585 29.623,113.506 29.774,113.555 29.902 C 113.604 30.030,113.531 30.273,113.393 30.442 C 113.250 30.617,113.190 30.642,113.252 30.500 C 113.313 30.363,113.214 30.433,113.032 30.656 C 112.850 30.880,112.744 31.173,112.796 31.309 C 112.854 31.460,112.820 31.511,112.707 31.442 C 112.602 31.377,112.475 31.490,112.409 31.706 C 112.346 31.913,112.185 32.208,112.051 32.360 C 111.917 32.513,111.792 32.746,111.773 32.879 C 111.753 33.011,111.609 33.248,111.452 33.405 C 111.295 33.562,111.167 33.840,111.167 34.022 C 111.167 34.204,111.092 34.307,111.000 34.250 C 110.908 34.193,110.833 34.267,110.833 34.414 C 110.833 34.561,110.686 34.839,110.506 35.032 C 110.326 35.226,110.214 35.442,110.258 35.514 C 110.303 35.585,110.151 35.846,109.923 36.093 C 109.694 36.340,109.547 36.608,109.596 36.688 C 109.646 36.768,109.602 36.833,109.500 36.833 C 109.398 36.833,109.360 36.908,109.417 37.000 C 109.473 37.092,109.452 37.167,109.369 37.167 C 109.161 37.167,108.405 38.677,108.469 38.965 C 108.499 39.097,108.444 39.152,108.344 39.090 C 108.247 39.030,108.167 39.060,108.167 39.157 C 108.167 39.254,108.014 39.486,107.827 39.673 C 107.641 39.859,107.533 40.084,107.587 40.173 C 107.642 40.261,107.609 40.333,107.514 40.333 C 107.300 40.333,106.814 41.246,106.873 41.537 C 106.897 41.654,106.827 41.733,106.718 41.712 C 106.609 41.691,106.468 41.841,106.404 42.045 C 106.185 42.745,105.769 43.147,105.529 42.890 C 105.412 42.765,105.362 42.588,105.418 42.498 C 105.474 42.407,105.448 42.333,105.361 42.333 C 105.274 42.333,105.156 42.146,105.098 41.917 C 105.041 41.688,104.878 41.500,104.737 41.500 C 104.596 41.500,104.523 41.431,104.575 41.346 C 104.657 41.214,104.104 40.074,103.841 39.833 C 103.790 39.787,103.637 39.525,103.500 39.250 C 103.237 38.723,102.607 37.707,102.356 37.404 C 102.274 37.305,102.161 37.080,102.105 36.904 C 101.943 36.399,100.730 34.493,100.632 34.590 C 100.584 34.639,100.497 34.446,100.441 34.161 C 100.373 33.826,100.269 33.687,100.143 33.765 C 100.014 33.845,99.994 33.812,100.083 33.667 C 100.168 33.530,100.104 33.366,99.910 33.225 C 99.741 33.101,99.649 33.000,99.704 33.000 C 99.760 33.000,99.626 32.681,99.406 32.292 C 99.186 31.902,98.929 31.410,98.836 31.198 C 98.731 30.958,98.589 30.858,98.459 30.933 C 98.344 30.999,98.305 30.993,98.372 30.919 C 98.504 30.773,97.925 29.614,97.464 29.101 C 97.307 28.926,97.218 28.719,97.266 28.641 C 97.314 28.564,97.269 28.500,97.167 28.500 C 97.064 28.500,97.027 28.425,97.083 28.333 C 97.140 28.242,97.107 28.167,97.010 28.167 C 96.913 28.167,96.833 28.087,96.833 27.989 C 96.833 27.891,96.637 27.554,96.397 27.239 C 96.157 26.924,96.012 26.667,96.075 26.667 C 96.138 26.667,96.034 26.449,95.845 26.183 C 95.655 25.916,95.500 25.616,95.500 25.516 C 95.500 25.416,95.443 25.333,95.373 25.333 C 95.303 25.333,95.172 25.165,95.081 24.958 C 94.936 24.628,94.776 24.578,93.743 24.535 L 92.569 24.487 92.543 37.243 L 92.518 50.000 93.967 49.997 C 94.871 49.996,95.329 49.939,95.184 49.848 C 94.998 49.729,94.987 49.558,95.129 48.975 C 95.251 48.476,95.266 45.584,95.177 39.680 C 95.106 34.967,95.103 30.864,95.171 30.563 C 95.239 30.263,95.247 29.963,95.189 29.898 C 95.131 29.833,95.174 29.832,95.284 29.895 C 95.395 29.959,95.443 30.120,95.392 30.254 C 95.341 30.388,95.414 30.542,95.556 30.596 C 95.697 30.650,95.772 30.800,95.722 30.929 C 95.673 31.058,95.752 31.210,95.899 31.266 C 96.046 31.323,96.167 31.478,96.167 31.611 C 96.167 31.744,96.241 31.807,96.331 31.751 C 96.426 31.693,96.454 31.759,96.397 31.907 C 96.339 32.058,96.409 32.206,96.566 32.266 C 96.713 32.323,96.833 32.473,96.833 32.601 C 96.833 32.729,96.913 32.833,97.010 32.833 C 97.107 32.833,97.143 32.903,97.091 32.988 C 96.961 33.198,97.347 34.011,97.524 33.902 C 97.603 33.853,97.672 33.874,97.679 33.948 C 97.726 34.443,97.844 34.764,98.032 34.912 C 98.152 35.006,98.420 35.443,98.627 35.884 C 98.858 36.374,99.076 36.639,99.190 36.569 C 99.303 36.499,99.344 36.545,99.294 36.685 C 99.200 36.951,99.604 37.833,99.820 37.833 C 99.899 37.833,100.084 38.133,100.231 38.500 C 100.377 38.867,100.573 39.167,100.665 39.167 C 100.758 39.167,100.833 39.313,100.833 39.492 C 100.833 39.670,100.927 39.877,101.042 39.950 C 101.277 40.101,101.807 40.935,101.946 41.375 C 101.997 41.535,102.110 41.667,102.196 41.667 C 102.282 41.667,102.307 41.742,102.250 41.833 C 102.193 41.925,102.220 42.000,102.310 42.000 C 102.400 42.000,102.523 42.225,102.583 42.500 C 102.644 42.775,102.761 43.000,102.843 43.000 C 102.926 43.000,103.041 43.188,103.098 43.417 C 103.156 43.646,103.270 43.833,103.351 43.833 C 103.433 43.833,103.500 43.934,103.500 44.058 C 103.500 44.181,103.650 44.417,103.833 44.583 C 104.017 44.749,104.167 44.986,104.167 45.109 C 104.167 45.232,104.242 45.333,104.333 45.333 C 104.425 45.333,104.500 45.483,104.500 45.667 C 104.500 45.850,104.575 46.000,104.667 46.000 C 104.758 46.000,104.821 46.056,104.807 46.125 C 104.664 46.802,106.397 46.970,106.803 46.319 C 106.960 46.068,106.958 45.999,106.793 45.994 C 106.678 45.991,106.750 45.850,106.953 45.681 C 107.156 45.511,107.512 45.015,107.744 44.579 C 107.976 44.142,108.230 43.702,108.308 43.601 C 108.386 43.500,108.629 43.079,108.850 42.667 C 109.070 42.254,109.341 41.821,109.451 41.704 C 109.562 41.586,109.605 41.368,109.548 41.218 C 109.487 41.059,109.512 40.988,109.608 41.047 C 109.799 41.165,111.058 39.062,110.925 38.846 C 110.875 38.767,110.952 38.657,111.095 38.602 C 111.238 38.547,111.309 38.429,111.254 38.339 C 111.198 38.250,111.341 38.013,111.571 37.813 C 111.801 37.613,111.954 37.394,111.912 37.326 C 111.870 37.257,111.952 37.157,112.095 37.102 C 112.238 37.047,112.312 36.933,112.260 36.849 C 112.207 36.764,112.234 36.670,112.320 36.639 C 112.405 36.608,112.499 36.474,112.529 36.340 C 112.559 36.206,112.715 35.948,112.875 35.767 C 113.036 35.585,113.158 35.357,113.147 35.260 C 113.103 34.870,113.175 34.652,113.317 34.740 C 113.491 34.847,114.181 33.747,114.214 33.309 C 114.227 33.147,114.269 33.047,114.308 33.086 C 114.404 33.182,115.271 31.805,115.578 31.071 C 115.868 30.375,116.325 29.857,116.348 30.196 C 116.357 30.318,116.363 34.785,116.362 40.124 C 116.362 45.463,116.415 49.864,116.481 49.905 C 116.547 49.946,117.172 49.936,117.869 49.883 L 119.137 49.787 119.054 48.269 C 119.008 47.433,118.958 41.725,118.943 35.583 L 118.917 24.417 118.167 24.391 C 117.754 24.377,117.211 24.414,116.960 24.474 M362.914 26.504 C 362.864 26.585,362.807 27.535,362.787 28.617 L 362.750 30.583 361.044 30.543 L 359.339 30.503 359.378 31.626 L 359.417 32.750 360.974 32.750 C 362.874 32.750,362.740 32.524,362.772 35.775 C 362.787 37.255,362.853 38.708,362.918 39.004 C 362.998 39.372,362.979 39.507,362.856 39.431 C 362.729 39.352,362.687 40.109,362.713 41.977 C 362.733 43.439,362.795 44.607,362.850 44.573 C 362.905 44.539,362.932 44.865,362.911 45.297 C 362.889 45.730,362.972 46.280,363.096 46.521 C 363.219 46.761,363.275 47.003,363.219 47.058 C 363.164 47.114,363.242 47.206,363.392 47.264 C 363.542 47.321,363.629 47.427,363.584 47.499 C 363.480 47.667,364.644 48.930,364.851 48.873 C 364.938 48.850,365.053 48.943,365.105 49.081 C 365.158 49.219,365.269 49.290,365.351 49.239 C 365.433 49.188,365.500 49.211,365.500 49.289 C 365.500 49.742,369.415 50.083,369.909 49.673 C 370.028 49.575,370.249 49.542,370.402 49.601 C 370.564 49.663,370.827 49.577,371.035 49.395 C 371.266 49.192,371.341 49.171,371.250 49.333 C 371.149 49.513,371.203 49.501,371.443 49.292 C 371.626 49.131,371.855 49.000,371.951 49.000 C 372.242 49.000,372.539 48.531,372.394 48.299 C 372.320 48.180,372.243 47.972,372.222 47.836 C 372.202 47.701,372.106 47.563,372.009 47.531 C 371.912 47.499,371.833 47.341,371.833 47.181 C 371.833 46.702,371.659 46.664,371.000 47.000 C 370.656 47.175,370.328 47.272,370.271 47.215 C 370.213 47.158,370.167 47.180,370.167 47.264 C 370.166 47.348,369.969 47.428,369.728 47.442 C 369.487 47.456,369.226 47.569,369.147 47.692 C 369.069 47.816,369.004 47.835,369.003 47.736 C 369.001 47.637,368.838 47.568,368.639 47.582 C 368.246 47.611,367.029 47.232,366.736 46.988 C 366.635 46.905,366.503 46.886,366.443 46.946 C 366.383 47.006,366.333 46.947,366.333 46.815 C 366.333 46.682,366.177 46.440,365.986 46.277 C 365.795 46.113,365.680 45.872,365.731 45.740 C 365.781 45.608,365.763 45.500,365.689 45.500 C 365.495 45.500,365.340 33.104,365.532 32.912 C 365.563 32.881,366.862 32.832,368.419 32.803 L 371.250 32.750 371.302 31.928 C 371.331 31.475,371.310 30.928,371.255 30.712 L 371.157 30.318 368.328 30.367 L 365.500 30.417 365.464 29.000 C 365.444 28.221,365.426 27.315,365.422 26.986 L 365.417 26.389 364.210 26.373 C 363.547 26.365,362.964 26.424,362.914 26.504 M234.249 26.669 C 234.186 26.770,234.151 27.617,234.170 28.551 C 234.189 29.485,234.196 30.370,234.186 30.516 C 234.169 30.745,233.933 30.774,232.490 30.725 C 231.402 30.687,230.850 30.725,230.917 30.834 C 230.973 30.925,230.940 31.000,230.843 31.000 C 230.739 31.000,230.667 31.406,230.667 31.996 L 230.667 32.993 232.465 32.930 L 234.263 32.868 234.223 39.320 C 234.193 44.288,234.232 45.867,234.396 46.183 C 234.513 46.408,234.578 46.684,234.540 46.796 C 234.503 46.908,234.586 47.044,234.726 47.097 C 234.865 47.151,234.940 47.295,234.893 47.418 C 234.846 47.540,234.963 47.797,235.154 47.987 C 235.344 48.178,235.444 48.336,235.375 48.340 C 235.306 48.344,235.456 48.459,235.708 48.595 C 235.960 48.732,236.167 48.921,236.167 49.015 C 236.167 49.109,236.237 49.143,236.323 49.090 C 236.409 49.036,236.542 49.105,236.619 49.242 C 236.695 49.379,236.906 49.514,237.087 49.542 C 237.268 49.570,237.525 49.660,237.657 49.743 C 238.489 50.262,242.751 49.792,243.462 49.103 C 243.744 48.830,243.862 48.167,243.629 48.167 C 243.528 48.167,243.492 48.119,243.551 48.060 C 243.609 48.002,243.509 47.747,243.328 47.493 C 243.148 47.239,242.998 46.931,242.995 46.808 C 242.991 46.633,242.944 46.639,242.786 46.833 C 242.674 46.971,242.471 47.108,242.334 47.138 C 242.198 47.169,242.038 47.272,241.979 47.368 C 241.919 47.464,241.787 47.491,241.685 47.428 C 241.583 47.365,241.500 47.374,241.500 47.448 C 241.499 47.523,241.293 47.604,241.041 47.629 C 240.789 47.654,240.433 47.689,240.250 47.706 C 239.688 47.759,238.322 47.487,238.412 47.340 C 238.460 47.264,238.382 47.157,238.240 47.103 C 238.073 47.038,238.017 47.076,238.081 47.210 C 238.135 47.324,238.083 47.279,237.965 47.111 C 237.847 46.943,237.619 46.650,237.458 46.460 C 237.298 46.271,237.167 45.994,237.167 45.845 C 237.167 45.696,237.053 45.412,236.915 45.215 C 236.756 44.987,236.725 44.817,236.832 44.751 C 236.924 44.694,237.000 44.572,237.000 44.480 C 237.000 44.389,236.944 44.348,236.875 44.391 C 236.806 44.433,236.750 41.862,236.750 38.678 L 236.750 32.887 239.616 32.966 L 242.482 33.045 242.590 32.617 C 242.649 32.382,242.655 31.903,242.605 31.553 C 242.554 31.203,242.510 30.857,242.506 30.785 C 242.503 30.713,242.069 30.673,241.542 30.698 C 241.015 30.722,239.742 30.725,238.713 30.704 L 236.844 30.667 236.797 28.625 L 236.750 26.583 235.556 26.535 C 234.817 26.505,234.319 26.556,234.249 26.669 M218.833 30.459 C 218.833 30.528,218.627 30.594,218.375 30.607 C 217.222 30.664,216.086 30.860,215.989 31.018 C 215.930 31.114,215.564 31.234,215.176 31.287 C 214.789 31.339,214.432 31.482,214.385 31.606 C 214.337 31.730,214.231 31.790,214.149 31.739 C 214.067 31.688,214.000 31.731,214.000 31.833 C 214.000 31.936,213.933 31.978,213.851 31.927 C 213.769 31.877,213.658 31.948,213.605 32.086 C 213.553 32.224,213.439 32.317,213.353 32.293 C 213.156 32.239,212.167 33.324,212.167 33.596 C 212.167 33.707,212.073 33.834,211.958 33.878 C 211.801 33.938,211.750 33.569,211.750 32.354 L 211.750 30.750 210.460 30.727 C 209.744 30.714,209.211 30.770,209.261 30.852 C 209.312 30.933,209.274 31.000,209.177 31.000 C 209.079 31.000,209.000 31.113,209.000 31.250 C 209.000 31.387,209.075 31.500,209.167 31.500 C 209.274 31.500,209.320 32.934,209.297 35.542 L 209.260 39.583 209.168 36.000 C 209.109 33.692,209.084 34.938,209.097 39.500 C 209.109 43.396,209.169 47.333,209.231 48.250 C 209.314 49.485,209.296 49.852,209.159 49.667 C 209.003 49.455,208.985 49.454,209.041 49.660 C 209.090 49.842,209.453 49.919,210.474 49.963 L 211.841 50.023 211.822 44.686 C 211.812 41.751,211.849 39.276,211.905 39.185 C 211.961 39.095,212.000 38.810,211.991 38.552 C 211.972 37.982,212.239 36.899,212.468 36.620 C 212.560 36.508,212.661 36.274,212.692 36.101 C 212.765 35.702,214.590 33.833,214.907 33.833 C 215.037 33.833,215.269 33.708,215.422 33.554 C 216.006 32.970,221.107 32.904,221.298 33.478 C 221.333 33.583,221.430 33.626,221.514 33.575 C 221.598 33.523,221.667 33.560,221.667 33.657 C 221.667 33.754,221.779 33.833,221.917 33.833 C 222.054 33.833,222.169 33.890,222.171 33.958 C 222.174 34.027,222.510 34.458,222.920 34.917 C 223.343 35.391,223.664 35.916,223.665 36.136 C 223.666 36.348,223.745 36.669,223.841 36.848 C 224.038 37.217,224.154 38.862,224.139 41.083 C 224.127 42.900,224.130 43.446,224.169 47.132 L 224.199 50.013 225.475 49.965 L 226.750 49.917 226.789 44.000 C 226.810 40.676,226.759 37.882,226.672 37.625 C 226.586 37.368,226.582 37.167,226.664 37.167 C 226.747 37.167,226.745 36.941,226.660 36.643 C 226.577 36.355,226.546 36.060,226.591 35.988 C 226.636 35.916,226.595 35.809,226.500 35.750 C 226.405 35.691,226.371 35.574,226.424 35.488 C 226.477 35.403,226.436 35.333,226.333 35.333 C 226.231 35.333,226.187 35.268,226.236 35.189 C 226.286 35.109,226.180 34.753,226.003 34.397 C 225.825 34.041,225.674 33.825,225.667 33.917 C 225.660 34.008,225.548 33.840,225.418 33.542 C 225.289 33.244,225.104 33.000,225.008 33.000 C 224.912 33.000,224.833 32.885,224.833 32.745 C 224.833 32.604,224.702 32.439,224.542 32.378 C 224.381 32.316,224.121 32.113,223.964 31.925 C 223.807 31.737,223.675 31.651,223.672 31.734 C 223.669 31.817,223.525 31.757,223.352 31.600 C 223.179 31.444,222.879 31.303,222.685 31.289 C 222.492 31.274,222.333 31.195,222.333 31.113 C 222.333 31.031,222.217 31.009,222.075 31.064 C 221.926 31.121,221.859 31.093,221.918 30.998 C 221.974 30.907,221.921 30.822,221.802 30.807 C 221.682 30.793,221.358 30.752,221.083 30.717 C 220.808 30.682,220.302 30.645,219.958 30.634 C 219.615 30.623,219.333 30.551,219.333 30.474 C 219.333 30.396,219.221 30.333,219.083 30.333 C 218.946 30.333,218.833 30.390,218.833 30.459 M254.927 30.483 C 254.870 30.576,254.619 30.642,254.370 30.630 C 253.375 30.580,251.728 31.034,251.386 31.452 C 251.252 31.616,251.199 31.637,251.270 31.500 C 251.375 31.293,251.353 31.286,251.142 31.457 C 251.001 31.571,250.837 31.614,250.776 31.554 C 250.716 31.494,250.667 31.536,250.667 31.649 C 250.667 31.761,250.597 31.810,250.511 31.757 C 250.426 31.704,250.239 31.829,250.095 32.034 C 249.951 32.240,249.833 32.352,249.833 32.284 C 249.833 32.216,249.590 32.410,249.292 32.715 C 248.994 33.020,248.617 33.320,248.455 33.381 C 248.292 33.442,248.111 33.625,248.051 33.788 C 247.992 33.950,247.770 34.261,247.558 34.478 C 247.345 34.696,247.213 34.940,247.262 35.020 C 247.312 35.101,247.274 35.167,247.177 35.167 C 247.079 35.167,247.000 35.273,247.000 35.403 C 247.000 35.533,246.923 35.664,246.830 35.696 C 246.736 35.727,246.642 35.988,246.621 36.277 C 246.600 36.565,246.527 36.766,246.458 36.724 C 246.390 36.682,246.333 36.826,246.333 37.046 C 246.333 37.265,246.281 37.496,246.218 37.560 C 245.992 37.786,245.927 38.440,245.960 40.167 C 246.006 42.527,246.020 42.674,246.186 42.572 C 246.265 42.523,246.286 42.595,246.233 42.733 C 246.180 42.871,246.199 43.081,246.274 43.200 C 246.427 43.442,246.449 43.526,246.479 43.988 C 246.491 44.165,246.616 44.425,246.757 44.566 C 246.898 44.708,247.093 45.051,247.190 45.328 C 247.287 45.606,247.434 45.833,247.516 45.833 C 247.599 45.833,247.667 45.946,247.667 46.083 C 247.667 46.221,247.779 46.333,247.917 46.333 C 248.054 46.333,248.167 46.452,248.167 46.596 C 248.167 46.846,249.026 47.833,249.244 47.833 C 249.301 47.833,249.511 47.986,249.711 48.172 C 249.911 48.359,250.489 48.711,250.996 48.954 C 251.973 49.424,251.980 49.427,252.745 49.584 C 253.017 49.641,253.341 49.771,253.466 49.874 C 253.637 50.016,253.729 50.003,253.843 49.823 C 253.927 49.691,253.996 49.660,253.997 49.755 C 253.999 49.860,254.699 49.931,255.828 49.939 C 256.834 49.946,257.628 49.905,257.593 49.849 C 257.558 49.792,257.759 49.736,258.039 49.724 C 258.702 49.697,259.833 49.323,259.833 49.130 C 259.833 49.048,259.908 49.027,260.000 49.083 C 260.092 49.140,260.167 49.094,260.167 48.982 C 260.167 48.870,260.213 48.824,260.270 48.881 C 260.327 48.938,260.483 48.875,260.617 48.741 C 260.751 48.607,260.923 48.536,260.999 48.583 C 261.075 48.630,261.450 48.368,261.832 48.001 C 262.215 47.634,262.596 47.333,262.680 47.333 C 262.764 47.333,262.833 47.269,262.833 47.191 C 262.833 47.113,263.017 46.850,263.242 46.608 C 263.467 46.365,263.611 46.167,263.561 46.167 C 263.512 46.167,263.709 45.868,263.998 45.503 C 264.287 45.138,264.476 44.763,264.418 44.670 C 264.361 44.576,264.375 44.500,264.449 44.500 C 264.609 44.500,265.006 43.434,265.072 42.833 C 265.096 42.604,265.174 42.284,265.244 42.123 C 265.314 41.961,265.332 41.680,265.284 41.498 C 265.237 41.316,265.262 41.127,265.341 41.079 C 265.419 41.030,265.446 40.486,265.399 39.870 C 265.353 39.254,265.321 38.538,265.328 38.280 C 265.336 37.990,265.273 37.851,265.165 37.918 C 265.052 37.987,265.017 37.872,265.066 37.599 C 265.109 37.364,265.073 37.128,264.986 37.075 C 264.899 37.021,264.871 36.907,264.924 36.822 C 264.977 36.736,264.943 36.667,264.848 36.667 C 264.754 36.667,264.717 36.564,264.765 36.438 C 264.813 36.313,264.731 36.163,264.582 36.106 C 264.434 36.049,264.359 35.927,264.416 35.835 C 264.473 35.742,264.440 35.667,264.343 35.667 C 264.246 35.667,264.185 35.601,264.208 35.520 C 264.281 35.264,263.273 33.667,263.038 33.667 C 262.915 33.667,262.852 33.605,262.898 33.530 C 263.024 33.326,262.348 32.805,262.131 32.939 C 262.009 33.014,261.980 32.960,262.047 32.786 C 262.143 32.535,261.637 32.209,261.292 32.300 C 261.223 32.318,261.185 32.245,261.208 32.137 C 261.231 32.029,261.025 31.861,260.750 31.764 C 260.475 31.667,260.212 31.541,260.167 31.483 C 260.060 31.349,259.289 31.090,259.125 31.134 C 259.056 31.152,258.999 31.073,258.997 30.958 C 258.996 30.819,258.941 30.833,258.833 31.000 C 258.744 31.137,258.671 31.164,258.669 31.059 C 258.668 30.955,258.550 30.824,258.408 30.770 C 258.232 30.702,258.189 30.737,258.273 30.877 C 258.369 31.036,258.342 31.039,258.157 30.891 C 257.743 30.559,255.087 30.224,254.927 30.483 M315.600 30.455 C 315.540 30.515,315.325 30.589,315.121 30.620 C 314.304 30.745,313.528 31.015,313.341 31.241 C 313.232 31.373,313.035 31.439,312.904 31.389 C 312.774 31.339,312.667 31.393,312.667 31.510 C 312.667 31.627,312.618 31.673,312.558 31.614 C 312.498 31.554,312.343 31.635,312.212 31.794 C 312.068 31.971,312.024 31.986,312.100 31.833 C 312.245 31.540,311.674 31.991,310.936 32.750 C 310.669 33.025,310.547 33.100,310.664 32.917 C 310.782 32.733,310.530 32.958,310.106 33.417 C 309.432 34.146,308.715 35.318,308.699 35.717 C 308.696 35.791,308.573 36.034,308.426 36.259 C 308.279 36.483,308.207 36.667,308.267 36.667 C 308.326 36.667,308.281 36.779,308.167 36.917 C 307.999 37.118,308.004 37.167,308.188 37.169 C 308.376 37.171,308.377 37.197,308.196 37.312 C 308.074 37.389,307.996 37.557,308.022 37.684 C 308.048 37.812,307.971 38.095,307.851 38.313 C 307.669 38.642,307.670 38.734,307.858 38.855 C 308.001 38.947,308.023 39.046,307.917 39.125 C 307.773 39.233,307.691 41.266,307.820 41.500 C 307.846 41.546,307.884 41.771,307.906 42.000 C 308.005 43.037,308.192 43.671,308.368 43.562 C 308.480 43.493,308.504 43.525,308.430 43.644 C 308.298 43.859,308.975 45.500,309.196 45.500 C 309.272 45.500,309.317 45.556,309.296 45.625 C 309.226 45.862,309.870 46.664,310.044 46.556 C 310.140 46.497,310.169 46.528,310.109 46.625 C 310.049 46.722,310.307 47.053,310.682 47.359 C 311.057 47.666,311.525 48.057,311.723 48.229 C 312.118 48.573,313.064 49.025,313.576 49.117 C 313.755 49.149,313.957 49.264,314.024 49.372 C 314.091 49.480,314.481 49.582,314.891 49.599 C 315.301 49.615,315.737 49.692,315.860 49.769 C 316.176 49.968,319.224 49.951,319.372 49.750 C 319.449 49.646,319.496 49.660,319.497 49.786 C 319.500 49.981,319.652 49.968,320.292 49.720 C 320.563 49.615,320.969 49.527,321.451 49.469 C 321.562 49.455,321.693 49.339,321.742 49.211 C 321.795 49.073,321.955 49.016,322.133 49.073 C 322.314 49.130,322.582 49.031,322.801 48.828 C 323.002 48.640,323.168 48.546,323.170 48.619 C 323.172 48.691,323.307 48.577,323.470 48.365 C 323.633 48.154,323.913 47.959,324.091 47.934 C 324.270 47.908,324.498 47.725,324.598 47.528 C 324.698 47.330,324.829 47.218,324.890 47.279 C 324.950 47.339,325.000 47.270,325.000 47.125 C 325.000 46.980,325.094 46.823,325.208 46.777 C 325.369 46.712,325.366 46.690,325.198 46.680 C 325.079 46.673,325.027 46.592,325.083 46.500 C 325.178 46.347,324.950 46.259,324.613 46.318 C 324.537 46.331,324.518 46.273,324.570 46.188 C 324.622 46.104,324.542 45.988,324.392 45.930 C 324.242 45.873,324.167 45.778,324.225 45.719 C 324.379 45.565,323.698 45.128,323.497 45.252 C 323.404 45.309,323.379 45.439,323.441 45.540 C 323.512 45.654,323.460 45.687,323.304 45.627 C 323.154 45.570,322.869 45.726,322.596 46.015 C 322.344 46.282,322.041 46.500,321.923 46.500 C 321.804 46.500,321.616 46.610,321.504 46.745 C 321.393 46.879,321.252 46.977,321.192 46.963 C 320.983 46.912,320.000 47.194,320.000 47.305 C 320.000 47.421,319.171 47.488,317.750 47.486 C 316.420 47.485,316.000 47.428,315.997 47.250 C 315.996 47.158,315.926 47.193,315.841 47.327 C 315.708 47.537,315.644 47.531,315.374 47.287 C 315.202 47.131,314.816 46.955,314.516 46.895 C 314.217 46.835,313.931 46.680,313.881 46.550 C 313.831 46.420,313.698 46.350,313.586 46.393 C 313.473 46.436,313.138 46.178,312.842 45.819 C 312.545 45.460,312.232 45.210,312.147 45.262 C 312.062 45.315,312.012 45.262,312.038 45.145 C 312.063 45.028,311.978 44.928,311.849 44.924 C 311.720 44.920,311.594 44.776,311.569 44.603 C 311.544 44.431,311.443 44.210,311.345 44.112 C 311.247 44.014,311.167 43.805,311.167 43.647 C 311.167 43.490,311.075 43.331,310.963 43.293 C 310.851 43.256,310.746 42.978,310.731 42.676 C 310.716 42.373,310.639 42.079,310.560 42.021 C 310.481 41.964,310.403 41.710,310.385 41.458 L 310.354 41.000 315.135 40.993 C 317.765 40.988,321.392 40.982,323.195 40.979 L 326.472 40.973 326.425 39.590 C 326.399 38.829,326.319 38.112,326.247 37.995 C 326.175 37.879,326.093 37.525,326.065 37.208 C 326.036 36.892,325.926 36.528,325.819 36.400 C 325.713 36.272,325.687 36.167,325.761 36.167 C 325.836 36.167,325.759 36.066,325.590 35.942 C 325.421 35.818,325.336 35.631,325.401 35.525 C 325.466 35.420,325.436 35.333,325.333 35.333 C 325.231 35.333,325.186 35.270,325.234 35.192 C 325.282 35.114,325.174 34.892,324.994 34.699 C 324.814 34.505,324.667 34.269,324.667 34.174 C 324.667 34.078,324.597 34.000,324.511 34.000 C 324.426 34.000,324.308 33.850,324.250 33.667 C 324.192 33.483,324.037 33.333,323.905 33.333 C 323.774 33.333,323.667 33.238,323.667 33.120 C 323.667 32.884,323.086 32.333,322.837 32.333 C 322.750 32.333,322.601 32.189,322.507 32.013 C 322.413 31.837,322.054 31.602,321.710 31.490 C 321.365 31.378,320.943 31.190,320.773 31.072 C 320.602 30.955,320.358 30.898,320.231 30.947 C 320.104 30.996,320.000 30.947,320.000 30.839 C 320.000 30.731,319.831 30.665,319.625 30.691 C 319.419 30.718,319.143 30.673,319.011 30.591 C 318.729 30.416,315.758 30.297,315.600 30.455 M336.405 30.518 C 336.369 30.576,336.110 30.597,335.828 30.564 C 335.547 30.531,335.351 30.560,335.392 30.627 C 335.434 30.695,335.232 30.755,334.942 30.761 C 333.928 30.782,332.947 31.113,333.112 31.379 C 333.181 31.492,333.116 31.516,332.932 31.446 C 332.625 31.328,330.833 32.112,330.833 32.365 C 330.833 32.444,330.642 32.581,330.409 32.670 C 329.908 32.860,329.920 33.189,330.457 33.947 C 330.664 34.239,330.833 34.550,330.833 34.638 C 330.833 34.909,331.397 35.032,331.583 34.801 C 331.800 34.531,332.215 34.269,333.115 33.837 C 333.499 33.652,333.855 33.433,333.907 33.349 C 333.958 33.266,334.162 33.240,334.360 33.292 C 334.564 33.345,334.677 33.318,334.622 33.229 C 334.568 33.142,334.650 33.068,334.804 33.063 C 334.958 33.059,335.458 32.996,335.917 32.923 C 336.375 32.850,336.883 32.796,337.045 32.802 C 337.208 32.808,337.297 32.743,337.244 32.657 C 337.186 32.563,337.315 32.564,337.570 32.662 C 337.803 32.750,338.276 32.838,338.621 32.856 C 338.967 32.875,339.331 32.951,339.429 33.024 C 339.527 33.098,339.773 33.127,339.975 33.088 C 340.177 33.049,340.303 33.081,340.255 33.158 C 340.169 33.298,340.638 33.577,340.875 33.526 C 340.944 33.512,341.000 33.588,341.000 33.694 C 341.000 33.801,341.044 33.845,341.097 33.791 C 341.234 33.655,341.833 34.195,341.833 34.454 C 341.833 34.571,341.900 34.667,341.982 34.667 C 342.064 34.667,342.178 34.857,342.237 35.090 C 342.295 35.323,342.403 35.476,342.477 35.431 C 342.551 35.385,342.614 35.438,342.618 35.549 C 342.621 35.660,342.679 36.087,342.746 36.500 C 342.890 37.386,342.888 38.668,342.742 38.814 C 342.685 38.870,340.913 38.898,338.804 38.875 C 336.695 38.851,334.883 38.887,334.776 38.953 C 334.670 39.019,334.428 39.082,334.239 39.093 C 333.636 39.126,332.351 39.561,332.438 39.702 C 332.484 39.776,332.292 39.883,332.011 39.939 C 331.730 39.996,331.500 40.107,331.500 40.188 C 331.500 40.268,331.415 40.333,331.311 40.333 C 331.037 40.333,330.387 41.079,330.463 41.307 C 330.499 41.413,330.411 41.500,330.269 41.500 C 330.096 41.500,330.046 41.592,330.117 41.777 C 330.177 41.934,330.155 42.012,330.065 41.957 C 329.978 41.903,329.827 42.113,329.730 42.423 C 329.629 42.747,329.621 42.945,329.711 42.889 C 329.797 42.836,329.735 42.995,329.572 43.244 C 329.321 43.627,329.312 43.718,329.513 43.845 C 329.647 43.930,329.668 43.996,329.561 43.997 C 329.342 44.000,329.423 45.378,329.668 45.836 C 329.753 45.994,329.774 46.170,329.716 46.228 C 329.658 46.286,329.696 46.333,329.800 46.333 C 329.904 46.333,329.946 46.446,329.894 46.583 C 329.841 46.721,329.885 46.833,329.992 46.833 C 330.099 46.833,330.145 46.900,330.094 46.983 C 330.043 47.065,330.114 47.175,330.251 47.227 C 330.388 47.280,330.500 47.438,330.500 47.578 C 330.500 47.718,330.617 47.833,330.760 47.833 C 330.903 47.833,330.974 47.907,330.918 47.997 C 330.862 48.088,331.064 48.308,331.367 48.488 C 331.669 48.667,332.002 48.889,332.107 48.980 C 332.212 49.072,332.343 49.101,332.399 49.046 C 332.455 48.990,332.500 49.022,332.500 49.117 C 332.500 49.293,333.613 49.662,334.292 49.711 C 334.498 49.725,334.667 49.780,334.667 49.833 C 334.667 49.965,337.980 49.909,338.114 49.775 C 338.173 49.715,338.501 49.667,338.841 49.667 C 339.195 49.667,339.550 49.557,339.673 49.409 C 339.791 49.267,339.999 49.194,340.135 49.247 C 340.272 49.299,340.527 49.189,340.702 49.001 C 340.877 48.813,341.090 48.703,341.177 48.756 C 341.263 48.809,341.333 48.774,341.333 48.677 C 341.333 48.579,341.450 48.500,341.593 48.500 C 341.736 48.500,341.807 48.425,341.750 48.333 C 341.693 48.242,341.759 48.167,341.896 48.167 C 342.032 48.167,342.191 48.018,342.249 47.837 C 342.307 47.655,342.419 47.524,342.498 47.545 C 342.578 47.566,342.742 47.451,342.863 47.288 C 343.051 47.037,343.079 47.201,343.052 48.399 L 343.020 49.805 344.260 49.778 C 344.942 49.762,345.506 49.712,345.515 49.667 C 345.609 49.127,345.602 37.833,345.507 37.833 C 345.436 37.833,345.398 37.346,345.423 36.750 C 345.448 36.155,345.408 35.629,345.333 35.583 C 345.259 35.537,345.234 35.363,345.277 35.197 C 345.321 35.030,345.243 34.799,345.105 34.685 C 344.966 34.570,344.890 34.381,344.934 34.265 C 344.979 34.148,344.899 33.957,344.758 33.840 C 344.616 33.722,344.500 33.549,344.500 33.456 C 344.500 33.363,344.275 33.071,344.000 32.808 C 343.725 32.545,343.500 32.256,343.500 32.165 C 343.500 32.074,343.387 32.000,343.250 32.000 C 343.113 32.000,343.000 31.921,343.000 31.824 C 343.000 31.545,341.414 30.871,340.558 30.786 C 340.360 30.766,340.233 30.694,340.276 30.625 C 340.318 30.556,340.205 30.500,340.023 30.500 C 339.842 30.500,339.557 30.455,339.389 30.401 C 339.128 30.316,339.120 30.331,339.333 30.500 C 339.542 30.665,339.528 30.678,339.250 30.578 C 338.504 30.308,338.113 30.278,338.251 30.502 C 338.348 30.658,338.320 30.678,338.151 30.574 C 337.881 30.406,336.502 30.363,336.405 30.518 M133.324 30.662 C 133.182 30.745,132.919 30.790,132.741 30.761 C 132.563 30.732,132.173 30.808,131.875 30.929 C 131.577 31.050,131.333 31.107,131.333 31.054 C 131.333 31.002,131.228 31.046,131.100 31.153 C 130.941 31.285,130.847 31.290,130.807 31.171 C 130.771 31.064,130.586 31.108,130.334 31.285 C 130.106 31.445,129.826 31.589,129.712 31.606 C 129.287 31.668,128.335 32.368,128.441 32.540 C 128.502 32.638,128.477 32.672,128.385 32.616 C 128.146 32.468,126.727 33.903,126.392 34.632 C 126.236 34.972,125.969 35.386,125.800 35.552 C 125.631 35.717,125.536 35.924,125.589 36.010 C 125.643 36.096,125.598 36.167,125.490 36.167 C 125.379 36.167,125.331 36.305,125.379 36.489 C 125.425 36.667,125.369 36.848,125.254 36.892 C 124.989 36.994,124.823 37.808,125.040 37.941 C 125.135 38.000,125.109 38.099,124.976 38.181 C 124.636 38.392,124.656 42.166,125.000 42.590 C 125.181 42.812,125.187 42.860,125.024 42.761 C 124.756 42.600,124.933 43.344,125.203 43.519 C 125.291 43.575,125.355 43.668,125.348 43.727 C 125.340 43.785,125.343 43.871,125.354 43.917 C 125.366 43.962,125.394 44.075,125.417 44.167 C 125.440 44.258,125.477 44.371,125.500 44.417 C 125.555 44.527,125.620 44.791,125.646 45.010 C 125.657 45.107,125.741 45.141,125.831 45.085 C 125.923 45.028,125.955 45.089,125.904 45.224 C 125.853 45.357,125.956 45.567,126.133 45.691 C 126.450 45.913,126.500 46.001,126.500 46.333 C 126.500 46.425,126.612 46.500,126.750 46.500 C 126.888 46.500,127.000 46.572,127.000 46.661 C 127.000 46.886,128.043 48.000,128.254 48.000 C 128.349 48.000,128.532 48.146,128.660 48.324 C 128.789 48.503,128.955 48.611,129.030 48.565 C 129.105 48.518,129.167 48.557,129.167 48.652 C 129.167 48.746,129.298 48.776,129.458 48.718 C 129.619 48.661,129.694 48.675,129.626 48.750 C 129.466 48.927,130.810 49.534,131.043 49.390 C 131.139 49.331,131.170 49.359,131.112 49.453 C 131.019 49.604,131.635 49.784,132.708 49.921 C 132.869 49.942,133.019 49.976,133.042 49.997 C 133.130 50.080,136.425 50.104,136.576 50.023 C 136.664 49.976,136.920 49.918,137.145 49.894 C 137.369 49.870,137.597 49.786,137.652 49.707 C 137.706 49.628,137.900 49.554,138.083 49.544 C 138.847 49.499,139.582 49.216,139.528 48.986 C 139.497 48.856,139.525 48.803,139.590 48.868 C 139.760 49.037,140.796 48.448,141.658 47.693 L 142.399 47.043 141.658 46.195 C 141.040 45.490,140.076 44.949,140.417 45.500 C 140.473 45.592,140.435 45.667,140.331 45.667 C 140.084 45.667,139.667 46.089,139.667 46.339 C 139.667 46.447,139.554 46.492,139.417 46.440 C 139.279 46.387,139.167 46.421,139.167 46.515 C 139.167 46.609,139.092 46.640,139.000 46.583 C 138.908 46.527,138.833 46.551,138.833 46.637 C 138.833 46.723,138.627 46.870,138.375 46.964 C 138.123 47.058,137.767 47.192,137.583 47.261 C 137.400 47.330,137.186 47.372,137.107 47.354 C 137.029 47.336,136.879 47.389,136.774 47.472 C 136.669 47.555,136.058 47.640,135.417 47.660 C 134.775 47.681,134.025 47.717,133.750 47.740 C 133.475 47.763,133.123 47.674,132.969 47.541 C 132.814 47.409,132.619 47.343,132.535 47.395 C 132.451 47.447,132.243 47.388,132.073 47.263 C 131.903 47.139,131.667 47.074,131.549 47.120 C 131.430 47.165,131.333 47.119,131.333 47.018 C 131.333 46.916,131.232 46.833,131.109 46.833 C 130.985 46.833,130.711 46.683,130.500 46.500 C 130.289 46.317,130.015 46.167,129.891 46.167 C 129.768 46.167,129.667 46.050,129.667 45.907 C 129.667 45.764,129.592 45.693,129.500 45.750 C 129.408 45.807,129.333 45.742,129.333 45.605 C 129.333 45.469,129.136 45.202,128.894 45.012 C 128.653 44.822,128.508 44.667,128.572 44.667 C 128.637 44.667,128.545 44.460,128.368 44.208 C 128.191 43.956,127.946 43.356,127.825 42.875 C 127.676 42.287,127.556 42.068,127.458 42.208 C 127.372 42.332,127.359 42.180,127.426 41.833 C 127.488 41.512,127.564 41.223,127.594 41.189 C 127.625 41.155,131.201 41.126,135.542 41.124 L 143.435 41.120 143.461 40.227 C 143.475 39.735,143.433 39.333,143.368 39.333 C 143.303 39.333,143.241 38.872,143.229 38.310 C 143.214 37.549,143.138 37.247,142.934 37.133 C 142.783 37.049,142.706 36.905,142.763 36.813 C 142.895 36.599,142.510 35.650,142.174 35.363 C 141.986 35.201,141.981 35.176,142.157 35.267 C 142.289 35.336,142.177 35.086,141.908 34.712 C 141.639 34.337,141.350 34.073,141.267 34.124 C 141.183 34.176,141.171 34.128,141.240 34.017 C 141.315 33.895,141.160 33.620,140.849 33.323 C 140.565 33.052,140.333 32.861,140.333 32.899 C 140.333 32.936,140.100 32.749,139.816 32.484 C 139.531 32.218,139.226 32.000,139.137 32.000 C 139.049 32.000,138.863 31.887,138.725 31.748 C 138.586 31.610,138.404 31.540,138.320 31.592 C 138.236 31.644,138.167 31.625,138.167 31.551 C 138.167 31.259,136.862 30.873,135.432 30.742 C 135.074 30.709,134.680 30.643,134.557 30.596 C 134.434 30.549,134.333 30.598,134.333 30.705 C 134.333 30.851,134.283 30.850,134.133 30.700 C 133.898 30.464,133.679 30.454,133.324 30.662 M156.667 30.682 C 156.254 30.755,155.729 30.861,155.500 30.917 C 155.271 30.973,155.008 31.036,154.917 31.056 C 154.296 31.194,153.079 31.976,152.200 32.802 L 151.167 33.773 151.167 32.216 L 151.167 30.658 149.865 30.690 L 148.564 30.722 148.556 40.320 L 148.548 49.917 149.912 49.917 L 151.277 49.917 151.263 43.974 C 151.255 40.396,151.311 38.070,151.403 38.127 C 151.488 38.179,151.509 38.097,151.450 37.944 C 151.392 37.791,151.405 37.667,151.479 37.667 C 151.553 37.667,151.708 37.352,151.824 36.967 C 151.939 36.582,152.210 36.006,152.426 35.689 C 152.642 35.371,152.772 35.030,152.716 34.930 C 152.659 34.831,152.676 34.807,152.753 34.877 C 152.937 35.044,153.686 34.333,153.552 34.117 C 153.492 34.018,153.532 34.000,153.650 34.073 C 153.768 34.146,153.985 34.043,154.176 33.823 C 154.389 33.577,154.501 33.529,154.503 33.683 C 154.505 33.875,154.530 33.877,154.646 33.694 C 154.724 33.572,154.854 33.469,154.935 33.466 C 155.017 33.463,155.271 33.388,155.500 33.299 C 155.729 33.210,156.179 33.137,156.500 33.136 C 156.821 33.135,157.158 33.087,157.250 33.030 C 157.497 32.876,157.833 32.846,157.833 32.978 C 157.833 33.042,158.077 33.106,158.375 33.121 C 159.692 33.187,160.000 33.230,160.000 33.350 C 160.000 33.420,160.169 33.531,160.375 33.597 C 160.876 33.756,161.963 34.933,162.323 35.708 C 162.482 36.051,162.674 36.276,162.750 36.208 C 162.825 36.139,162.840 36.212,162.784 36.370 C 162.727 36.527,162.756 36.702,162.847 36.759 C 162.939 36.815,162.965 37.014,162.906 37.202 C 162.824 37.459,162.852 37.509,163.024 37.406 C 163.211 37.293,163.213 37.315,163.034 37.537 C 162.915 37.683,162.878 37.842,162.953 37.888 C 163.028 37.934,163.088 40.221,163.086 42.970 C 163.085 45.719,163.140 47.933,163.208 47.891 C 163.277 47.848,163.333 47.918,163.333 48.046 C 163.333 48.173,163.277 48.334,163.208 48.404 C 163.140 48.473,163.083 48.842,163.083 49.223 L 163.083 49.917 164.453 49.863 L 165.823 49.809 165.793 47.280 C 165.732 42.226,165.863 38.125,166.108 37.423 C 166.501 36.295,167.024 35.257,167.272 35.115 C 167.401 35.040,167.456 34.898,167.394 34.797 C 167.329 34.692,167.358 34.663,167.464 34.728 C 167.564 34.790,167.707 34.745,167.781 34.628 C 167.969 34.332,169.106 33.500,169.322 33.500 C 169.420 33.500,169.500 33.427,169.500 33.339 C 169.500 33.250,169.612 33.220,169.750 33.273 C 169.887 33.326,170.131 33.313,170.292 33.244 C 170.452 33.175,170.790 33.135,171.042 33.155 C 171.294 33.175,171.500 33.124,171.500 33.040 C 171.500 32.857,172.001 32.878,172.320 33.075 C 172.491 33.181,172.515 33.157,172.410 32.984 C 172.291 32.787,172.312 32.785,172.544 32.973 C 172.695 33.095,172.885 33.154,172.967 33.104 C 173.196 32.962,174.362 33.332,174.905 33.718 C 175.174 33.909,175.338 33.976,175.270 33.866 C 175.202 33.756,175.209 33.667,175.284 33.667 C 175.359 33.667,175.498 33.835,175.592 34.042 C 175.685 34.248,175.859 34.396,175.977 34.371 C 176.095 34.346,176.156 34.383,176.113 34.454 C 176.013 34.619,176.431 35.013,176.564 34.880 C 176.619 34.825,176.712 35.019,176.770 35.310 C 176.829 35.602,176.942 35.881,177.022 35.930 C 177.101 35.979,177.167 36.165,177.167 36.343 C 177.167 36.521,177.230 36.667,177.308 36.667 C 177.386 36.667,177.420 36.967,177.383 37.333 C 177.347 37.700,177.377 38.000,177.450 38.000 C 177.523 38.000,177.583 40.690,177.583 43.978 L 177.583 49.955 178.828 49.928 L 180.073 49.900 180.184 49.358 C 180.328 48.655,180.337 37.804,180.194 37.584 C 180.134 37.492,180.074 37.154,180.062 36.833 C 180.018 35.728,179.296 33.733,179.005 33.913 C 178.909 33.973,178.877 33.913,178.931 33.774 C 179.019 33.544,177.716 32.000,177.433 32.000 C 177.365 32.000,177.196 31.887,177.058 31.748 C 176.920 31.610,176.745 31.535,176.671 31.581 C 176.596 31.627,176.492 31.553,176.439 31.416 C 176.387 31.279,176.154 31.167,175.922 31.167 C 175.690 31.167,175.500 31.096,175.500 31.010 C 175.500 30.924,175.369 30.854,175.208 30.853 C 175.048 30.852,174.579 30.800,174.167 30.737 C 172.984 30.555,170.167 30.632,170.167 30.846 C 170.167 30.918,169.935 30.971,169.651 30.963 C 169.367 30.955,169.068 31.054,168.987 31.183 C 168.905 31.311,168.837 31.349,168.836 31.266 C 168.834 31.183,168.670 31.258,168.471 31.433 C 168.248 31.628,168.166 31.654,168.257 31.500 C 168.372 31.304,168.306 31.313,167.952 31.542 C 167.703 31.702,167.313 31.954,167.085 32.102 C 166.856 32.249,166.712 32.438,166.764 32.522 C 166.816 32.606,166.795 32.654,166.717 32.629 C 166.458 32.545,165.634 33.312,165.762 33.519 C 165.835 33.637,165.814 33.674,165.711 33.611 C 165.615 33.551,165.406 33.702,165.246 33.946 L 164.955 34.390 164.722 33.945 C 164.594 33.700,164.412 33.500,164.318 33.500 C 164.224 33.500,164.187 33.436,164.235 33.358 C 164.283 33.279,164.138 33.041,163.912 32.829 C 163.685 32.616,163.499 32.511,163.498 32.596 C 163.496 32.681,163.402 32.571,163.289 32.352 C 163.176 32.133,163.020 31.969,162.943 31.988 C 162.866 32.007,162.709 31.893,162.593 31.736 C 162.478 31.578,162.308 31.496,162.214 31.554 C 162.121 31.612,161.915 31.516,161.757 31.341 C 161.598 31.166,161.362 31.063,161.232 31.113 C 161.102 31.163,160.892 31.118,160.766 31.013 C 160.339 30.659,157.902 30.462,156.667 30.682 M193.333 30.686 C 193.333 30.756,193.202 30.808,193.042 30.803 C 192.112 30.774,190.786 31.121,190.931 31.356 C 190.987 31.448,190.932 31.503,190.808 31.478 C 190.272 31.374,189.015 32.064,189.005 32.468 C 189.002 32.588,188.936 32.647,188.858 32.598 C 188.622 32.453,187.127 33.990,187.234 34.269 C 187.288 34.409,187.258 34.473,187.165 34.415 C 187.074 34.359,187.000 34.381,187.000 34.464 C 187.000 34.547,186.817 34.828,186.593 35.089 C 186.369 35.349,186.218 35.615,186.258 35.679 C 186.297 35.743,186.215 35.891,186.075 36.007 C 185.935 36.123,185.836 36.337,185.853 36.484 C 185.871 36.630,185.793 36.975,185.680 37.250 C 185.567 37.525,185.449 37.954,185.417 38.204 C 185.385 38.453,185.308 38.819,185.245 39.016 C 185.161 39.281,185.186 39.341,185.341 39.245 C 185.492 39.152,185.510 39.182,185.405 39.349 C 185.196 39.683,185.169 41.000,185.371 41.000 C 185.474 41.000,185.464 41.093,185.346 41.235 C 185.219 41.388,185.209 41.507,185.318 41.574 C 185.410 41.631,185.448 41.775,185.403 41.893 C 185.357 42.012,185.410 42.328,185.521 42.596 C 185.632 42.864,185.738 43.140,185.757 43.208 C 185.776 43.277,185.807 43.352,185.825 43.375 C 185.843 43.398,185.891 43.604,185.931 43.833 C 186.048 44.509,186.361 45.169,186.517 45.073 C 186.597 45.023,186.613 45.111,186.553 45.269 C 186.473 45.478,186.502 45.518,186.664 45.418 C 186.820 45.322,186.845 45.346,186.750 45.500 C 186.669 45.631,186.712 45.790,186.860 45.900 C 186.994 46.001,187.155 46.219,187.217 46.386 C 187.280 46.552,187.408 46.640,187.503 46.582 C 187.598 46.523,187.656 46.537,187.633 46.613 C 187.578 46.794,188.405 47.667,188.633 47.667 C 188.731 47.667,188.859 47.818,188.917 48.002 C 188.976 48.187,189.094 48.295,189.179 48.243 C 189.264 48.190,189.333 48.230,189.333 48.332 C 189.333 48.495,190.432 49.069,190.541 48.963 C 190.564 48.940,190.865 49.095,191.208 49.308 C 191.648 49.579,191.834 49.628,191.836 49.472 C 191.838 49.308,191.871 49.302,191.964 49.448 C 192.110 49.677,192.818 49.860,193.692 49.893 C 194.027 49.906,194.265 49.975,194.221 50.046 C 194.178 50.117,194.635 50.154,195.238 50.129 C 195.840 50.104,196.333 50.027,196.333 49.958 C 196.333 49.890,196.413 49.833,196.510 49.833 C 196.607 49.833,196.640 49.908,196.583 50.000 C 196.527 50.092,196.555 50.167,196.647 50.167 C 196.739 50.167,196.854 50.102,196.903 50.022 C 196.952 49.943,197.192 49.916,197.437 49.963 C 197.721 50.017,197.844 49.985,197.776 49.875 C 197.711 49.770,197.947 49.663,198.376 49.603 C 198.765 49.549,199.174 49.492,199.284 49.475 C 199.395 49.458,199.526 49.340,199.575 49.212 C 199.624 49.084,199.740 49.025,199.832 49.082 C 200.046 49.215,200.706 48.762,200.541 48.596 C 200.472 48.528,200.492 48.487,200.583 48.506 C 200.675 48.524,200.806 48.521,200.875 48.499 C 200.944 48.477,201.057 48.449,201.127 48.438 C 201.342 48.402,202.833 47.105,202.833 46.953 C 202.833 46.874,202.523 46.442,202.144 45.992 L 201.455 45.175 200.986 45.451 C 200.729 45.603,200.546 45.773,200.580 45.829 C 200.615 45.884,200.423 46.026,200.155 46.145 C 199.886 46.264,199.667 46.459,199.667 46.579 C 199.667 46.698,199.573 46.788,199.458 46.778 C 199.106 46.747,197.833 47.210,197.833 47.370 C 197.833 47.452,197.758 47.473,197.667 47.417 C 197.575 47.360,197.500 47.402,197.500 47.511 C 197.500 47.657,197.436 47.655,197.250 47.500 C 197.112 47.386,197.000 47.364,197.000 47.452 C 197.000 47.631,196.921 47.642,195.455 47.668 C 194.880 47.679,194.224 47.618,193.997 47.533 C 193.769 47.449,193.435 47.402,193.253 47.431 C 193.071 47.459,192.777 47.355,192.599 47.199 C 192.422 47.044,192.332 47.012,192.400 47.128 C 192.468 47.244,192.247 47.151,191.909 46.922 C 191.570 46.692,191.216 46.553,191.121 46.611 C 191.021 46.673,190.999 46.637,191.067 46.526 C 191.133 46.420,191.102 46.333,190.998 46.333 C 190.894 46.333,190.696 46.220,190.558 46.082 C 190.420 45.943,190.226 45.880,190.127 45.941 C 190.029 46.002,189.990 45.984,190.041 45.901 C 190.091 45.818,189.905 45.487,189.628 45.167 C 189.350 44.846,189.182 44.696,189.255 44.833 C 189.333 44.981,189.325 45.027,189.235 44.944 C 189.152 44.868,189.081 44.756,189.077 44.694 C 189.074 44.633,188.988 44.433,188.886 44.250 C 188.783 44.067,188.693 43.842,188.684 43.750 C 188.676 43.658,188.573 43.471,188.455 43.333 C 188.271 43.118,188.212 43.012,188.156 42.792 C 188.150 42.769,188.131 42.394,188.114 41.958 L 188.083 41.166 189.667 41.154 C 190.537 41.148,194.100 41.135,197.583 41.125 L 203.917 41.108 203.930 39.721 C 203.937 38.958,203.886 38.333,203.815 38.333 C 203.745 38.333,203.685 38.202,203.683 38.042 C 203.680 37.881,203.648 37.563,203.610 37.333 C 203.573 37.104,203.533 36.818,203.521 36.698 C 203.510 36.579,203.426 36.526,203.335 36.582 C 203.243 36.639,203.211 36.577,203.263 36.443 C 203.393 36.104,202.514 34.474,202.275 34.611 C 202.169 34.671,202.137 34.661,202.202 34.589 C 202.479 34.282,200.898 32.507,200.458 32.631 C 200.390 32.651,200.352 32.575,200.375 32.462 C 200.398 32.350,200.247 32.232,200.039 32.200 C 199.832 32.169,199.705 32.074,199.757 31.989 C 199.809 31.904,199.642 31.748,199.384 31.643 C 199.127 31.537,198.631 31.319,198.281 31.158 C 197.932 30.997,197.465 30.885,197.244 30.909 C 197.023 30.933,196.877 30.897,196.920 30.829 C 197.043 30.629,195.947 30.524,195.605 30.703 C 195.433 30.793,195.334 30.801,195.384 30.720 C 195.433 30.639,194.993 30.570,194.404 30.567 C 193.815 30.563,193.333 30.617,193.333 30.686 M255.670 32.831 C 255.805 32.748,255.982 32.749,256.085 32.835 C 256.184 32.917,256.620 33.015,257.054 33.052 C 257.487 33.089,257.890 33.168,257.949 33.227 C 258.008 33.285,258.193 33.333,258.361 33.333 C 258.529 33.333,258.673 33.427,258.680 33.542 C 258.690 33.702,258.712 33.703,258.775 33.547 C 258.833 33.403,258.962 33.441,259.210 33.672 C 259.404 33.852,259.643 34.000,259.740 34.000 C 259.838 34.000,260.130 34.225,260.390 34.500 C 260.649 34.775,260.928 35.000,261.009 35.000 C 261.090 35.000,261.113 35.112,261.060 35.250 C 261.000 35.408,261.063 35.500,261.232 35.500 C 261.379 35.500,261.482 35.556,261.460 35.625 C 261.390 35.848,261.869 36.833,262.048 36.833 C 262.144 36.833,262.175 36.880,262.118 36.938 C 262.060 36.995,262.119 37.297,262.249 37.608 C 262.513 38.239,262.500 38.178,262.500 38.760 C 262.500 38.994,262.556 39.152,262.625 39.109 C 262.801 39.001,262.781 41.035,262.604 41.310 C 262.509 41.456,262.539 41.589,262.687 41.683 C 262.867 41.797,262.870 41.829,262.698 41.831 C 262.579 41.832,262.527 41.908,262.583 42.000 C 262.640 42.092,262.607 42.167,262.510 42.167 C 262.413 42.167,262.345 42.223,262.360 42.292 C 262.375 42.360,262.300 42.628,262.194 42.886 C 262.087 43.144,262.000 43.458,262.000 43.584 C 262.000 43.710,261.920 43.863,261.822 43.924 C 261.724 43.984,261.683 44.136,261.731 44.261 C 261.779 44.386,261.634 44.633,261.409 44.810 C 261.184 44.987,261.000 45.214,261.000 45.316 C 261.000 45.417,260.906 45.500,260.791 45.500 C 260.675 45.500,260.353 45.749,260.074 46.053 C 259.795 46.357,259.492 46.581,259.401 46.550 C 259.310 46.520,259.083 46.636,258.898 46.809 C 258.386 47.286,255.137 47.791,254.623 47.473 C 254.515 47.407,254.317 47.442,254.182 47.551 C 253.989 47.707,253.963 47.705,254.061 47.542 C 254.181 47.342,254.119 47.318,253.319 47.267 C 253.173 47.258,252.948 47.165,252.819 47.062 C 252.689 46.959,252.415 46.822,252.208 46.759 C 252.002 46.696,251.833 46.574,251.833 46.489 C 251.833 46.403,251.723 46.333,251.589 46.333 C 251.455 46.333,251.262 46.178,251.160 45.987 C 251.050 45.781,250.875 45.679,250.729 45.735 C 250.590 45.788,250.527 45.757,250.585 45.665 C 250.641 45.574,250.605 45.500,250.506 45.500 C 250.406 45.500,250.252 45.308,250.163 45.073 C 250.064 44.814,249.925 44.693,249.808 44.766 C 249.693 44.837,249.660 44.812,249.727 44.704 C 249.788 44.604,249.761 44.475,249.667 44.417 C 249.572 44.358,249.538 44.240,249.590 44.155 C 249.643 44.070,249.602 44.000,249.500 44.000 C 249.398 44.000,249.360 43.925,249.417 43.833 C 249.473 43.742,249.440 43.667,249.343 43.667 C 249.246 43.667,249.167 43.529,249.167 43.361 C 249.167 43.193,249.119 43.008,249.060 42.949 C 249.001 42.890,248.924 42.484,248.888 42.046 C 248.853 41.608,248.758 41.025,248.677 40.750 C 248.498 40.137,248.561 39.008,248.800 38.561 C 248.898 38.379,249.001 37.935,249.030 37.574 C 249.060 37.212,249.158 36.831,249.250 36.727 C 249.604 36.323,250.083 35.612,250.083 35.489 C 250.083 35.419,250.152 35.299,250.235 35.222 C 250.324 35.141,250.336 35.186,250.264 35.333 C 250.197 35.471,250.259 35.433,250.402 35.250 C 251.031 34.444,251.331 34.163,251.902 33.842 C 252.236 33.654,252.611 33.500,252.735 33.500 C 252.858 33.500,253.046 33.395,253.152 33.267 C 253.259 33.139,253.493 33.073,253.674 33.120 C 253.854 33.167,254.104 33.121,254.230 33.017 C 254.355 32.913,254.592 32.879,254.756 32.942 C 254.972 33.025,255.018 32.998,254.924 32.845 C 254.823 32.682,254.867 32.673,255.114 32.805 C 255.303 32.906,255.531 32.917,255.670 32.831 M318.167 32.903 C 318.487 32.937,318.862 33.002,319.000 33.046 C 319.137 33.091,319.577 33.226,319.976 33.346 C 320.375 33.467,320.739 33.662,320.785 33.782 C 320.831 33.901,320.935 33.957,321.017 33.906 C 321.100 33.855,321.167 33.898,321.167 34.000 C 321.167 34.102,321.244 34.139,321.337 34.081 C 321.431 34.023,321.488 34.047,321.462 34.134 C 321.437 34.222,321.735 34.635,322.125 35.053 C 322.515 35.472,322.833 35.893,322.833 35.990 C 322.833 36.087,322.921 36.167,323.028 36.167 C 323.135 36.167,323.172 36.217,323.111 36.278 C 323.049 36.340,323.112 36.562,323.249 36.772 C 323.387 36.983,323.545 37.439,323.600 37.786 C 323.655 38.133,323.786 38.472,323.892 38.539 C 324.031 38.628,324.027 38.662,323.875 38.664 C 323.760 38.666,323.667 38.762,323.667 38.880 C 323.667 39.133,310.660 39.188,310.476 38.936 C 310.418 38.855,310.507 38.310,310.674 37.725 C 310.841 37.139,310.985 36.625,310.994 36.582 C 311.069 36.200,311.292 35.846,311.702 35.459 C 311.968 35.207,312.140 34.925,312.083 34.834 C 312.027 34.742,312.086 34.667,312.216 34.667 C 312.345 34.667,312.647 34.485,312.887 34.263 C 313.127 34.041,313.476 33.810,313.664 33.751 C 313.851 33.691,313.959 33.568,313.902 33.477 C 313.846 33.386,313.901 33.331,314.025 33.356 C 314.149 33.381,314.512 33.315,314.833 33.209 C 315.154 33.104,315.667 32.982,315.974 32.938 C 316.281 32.894,316.564 32.825,316.603 32.785 C 316.643 32.746,316.880 32.742,317.129 32.777 C 317.379 32.812,317.846 32.868,318.167 32.903 M135.500 33.162 C 136.004 33.262,136.510 33.354,136.625 33.366 C 136.740 33.379,136.833 33.443,136.833 33.510 C 136.833 33.609,137.455 33.850,137.851 33.903 C 137.906 33.911,138.157 34.160,138.407 34.458 C 138.658 34.756,138.969 35.000,139.098 35.000 C 139.228 35.000,139.318 35.056,139.299 35.125 C 139.233 35.365,139.849 36.343,140.005 36.247 C 140.095 36.191,140.116 36.272,140.053 36.435 C 139.982 36.621,140.008 36.682,140.127 36.608 C 140.245 36.535,140.307 36.659,140.300 36.955 C 140.294 37.209,140.423 37.717,140.586 38.083 C 140.749 38.450,140.901 38.833,140.923 38.934 C 141.034 39.441,127.584 39.505,127.451 38.999 C 127.408 38.831,127.436 38.631,127.514 38.553 C 127.592 38.475,127.674 38.163,127.697 37.860 C 127.721 37.556,127.799 37.271,127.872 37.226 C 127.946 37.181,127.962 37.074,127.910 36.988 C 127.857 36.903,127.888 36.833,127.979 36.833 C 128.124 36.833,128.435 36.164,128.350 36.034 C 128.332 36.007,128.760 35.539,129.299 34.994 C 129.839 34.449,130.255 33.965,130.224 33.918 C 130.192 33.872,130.217 33.871,130.278 33.917 C 130.339 33.963,130.518 33.885,130.674 33.743 C 130.830 33.602,131.024 33.505,131.104 33.527 C 131.184 33.550,131.550 33.463,131.917 33.334 C 132.283 33.206,132.715 33.120,132.875 33.144 C 133.035 33.168,133.167 33.106,133.167 33.005 C 133.167 32.806,133.975 32.860,135.500 33.162 M193.331 33.083 C 193.334 32.896,195.604 32.866,196.000 33.048 C 196.137 33.111,196.400 33.189,196.583 33.222 C 197.413 33.370,197.931 33.558,198.106 33.776 C 198.210 33.906,198.464 34.044,198.670 34.084 C 199.103 34.167,199.247 34.283,199.258 34.556 C 199.262 34.663,199.361 34.729,199.478 34.704 C 199.596 34.679,199.649 34.726,199.598 34.809 C 199.472 35.013,200.420 36.188,200.588 36.036 C 200.660 35.971,200.664 36.014,200.596 36.132 C 200.527 36.251,200.557 36.451,200.661 36.576 C 200.765 36.702,200.888 37.016,200.935 37.274 C 200.982 37.532,201.102 37.793,201.201 37.854 C 201.300 37.916,201.340 38.123,201.290 38.316 C 201.239 38.509,201.266 38.708,201.349 38.760 C 201.791 39.033,201.161 39.079,197.613 39.036 C 195.475 39.010,193.093 39.047,192.321 39.119 C 191.549 39.191,190.271 39.228,189.482 39.202 L 188.048 39.154 188.084 38.536 C 188.104 38.195,188.136 37.917,188.156 37.917 C 188.176 37.917,188.216 37.804,188.245 37.667 C 188.368 37.090,188.423 36.921,188.545 36.757 C 189.076 36.037,189.529 35.353,189.709 35.000 C 189.825 34.771,190.032 34.559,190.169 34.529 C 190.305 34.499,190.442 34.404,190.473 34.317 C 190.528 34.165,191.469 33.604,191.694 33.590 C 191.756 33.586,191.862 33.527,191.931 33.458 C 191.999 33.390,192.184 33.333,192.341 33.333 C 192.498 33.333,192.722 33.217,192.840 33.075 C 193.011 32.869,193.082 32.861,193.191 33.034 C 193.267 33.153,193.329 33.175,193.331 33.083 M17.384 33.458 C 18.374 33.487,19.949 33.487,20.884 33.458 C 21.819 33.428,21.008 33.404,19.083 33.404 C 17.158 33.404,16.394 33.428,17.384 33.458 M336.747 40.829 C 336.803 40.919,337.163 40.959,337.549 40.918 C 337.935 40.878,339.268 40.806,340.513 40.758 L 342.777 40.672 342.838 41.628 C 342.982 43.872,342.761 45.348,342.322 45.076 C 342.236 45.023,342.167 45.067,342.167 45.173 C 342.167 45.375,341.008 46.489,340.792 46.496 C 340.723 46.498,340.667 46.604,340.667 46.730 C 340.667 46.866,340.342 47.041,339.875 47.158 C 339.440 47.266,338.933 47.445,338.750 47.554 C 338.317 47.812,335.373 47.768,334.667 47.493 C 334.621 47.475,334.527 47.469,334.458 47.480 C 334.390 47.491,334.333 47.425,334.333 47.333 C 334.333 47.242,334.224 47.167,334.090 47.167 C 333.957 47.167,333.545 46.879,333.175 46.527 C 332.805 46.175,332.464 45.925,332.418 45.971 C 332.371 46.018,332.333 45.814,332.333 45.518 C 332.333 45.222,332.277 45.015,332.208 45.058 C 332.140 45.100,332.083 44.737,332.083 44.250 C 332.083 43.763,332.140 43.400,332.208 43.442 C 332.277 43.485,332.333 43.360,332.333 43.165 C 332.333 42.969,332.447 42.696,332.585 42.558 C 332.723 42.420,332.799 42.245,332.752 42.171 C 332.672 42.040,332.921 41.883,333.231 41.869 C 333.313 41.865,333.425 41.788,333.481 41.697 C 333.650 41.424,335.482 40.875,336.017 40.937 C 336.316 40.972,336.476 40.929,336.415 40.831 C 336.359 40.741,336.389 40.667,336.480 40.667 C 336.572 40.667,336.692 40.740,336.747 40.829 " stroke="none" fill="#4c64ab" fill-rule="evenodd"></path><path id="path2" d="M36.318 15.864 C 36.127 16.000,36.134 16.015,36.355 15.945 C 36.504 15.898,36.710 15.944,36.813 16.046 C 36.945 16.179,37.000 16.180,37.000 16.051 C 37.000 15.784,36.590 15.672,36.318 15.864 M22.542 16.415 C 22.244 16.545,22.000 16.690,22.000 16.738 C 22.000 16.841,22.844 16.498,23.075 16.302 C 23.294 16.115,23.173 16.141,22.542 16.415 M21.082 19.669 C 21.024 19.763,20.896 19.788,20.796 19.727 C 20.688 19.660,20.663 19.693,20.734 19.808 C 20.846 19.989,21.500 19.792,21.500 19.577 C 21.500 19.431,21.186 19.500,21.082 19.669 M27.016 21.905 C 27.126 22.015,34.173 22.050,34.281 21.941 C 34.327 21.895,32.693 21.849,30.649 21.840 C 28.606 21.830,26.971 21.860,27.016 21.905 M352.482 22.792 C 352.429 23.166,352.541 35.428,352.598 35.486 C 352.636 35.524,352.667 32.656,352.667 29.111 C 352.667 23.778,352.611 21.885,352.482 22.792 M377.048 23.417 C 377.049 23.875,377.081 24.043,377.120 23.789 C 377.158 23.536,377.157 23.161,377.117 22.956 C 377.078 22.751,377.046 22.958,377.048 23.417 M24.904 27.917 C 24.904 29.842,24.928 30.606,24.958 29.616 C 24.987 28.626,24.987 27.051,24.958 26.116 C 24.928 25.181,24.904 25.992,24.904 27.917 M283.381 25.250 C 283.382 25.708,283.415 25.876,283.453 25.623 C 283.491 25.369,283.490 24.994,283.451 24.789 C 283.411 24.584,283.380 24.792,283.381 25.250 M301.958 25.263 C 301.890 25.332,301.833 25.541,301.833 25.728 C 301.833 25.973,301.884 26.016,302.016 25.884 C 302.116 25.784,302.172 25.575,302.141 25.419 C 302.109 25.264,302.027 25.193,301.958 25.263 M235.667 26.398 C 235.667 26.434,235.929 26.494,236.250 26.532 C 236.571 26.569,236.833 26.540,236.833 26.467 C 236.833 26.393,236.571 26.333,236.250 26.333 C 235.929 26.333,235.667 26.363,235.667 26.398 M302.042 26.917 C 302.044 27.283,302.078 27.414,302.118 27.206 C 302.158 26.999,302.156 26.699,302.115 26.540 C 302.073 26.380,302.040 26.550,302.042 26.917 M365.375 27.083 C 365.377 27.450,365.411 27.580,365.451 27.373 C 365.491 27.166,365.490 26.866,365.448 26.706 C 365.406 26.547,365.374 26.717,365.375 27.083 M362.709 27.583 C 362.711 27.950,362.745 28.080,362.785 27.873 C 362.824 27.666,362.823 27.366,362.781 27.206 C 362.739 27.047,362.707 27.217,362.709 27.583 M301.922 28.882 C 301.851 29.047,301.839 29.228,301.896 29.285 C 302.065 29.454,302.202 29.216,302.124 28.888 C 302.055 28.597,302.046 28.597,301.922 28.882 M240.708 30.782 C 240.869 30.823,241.131 30.823,241.292 30.782 C 241.452 30.740,241.321 30.705,241.000 30.705 C 240.679 30.705,240.548 30.740,240.708 30.782 M215.333 31.108 L 214.750 31.338 215.321 31.250 C 215.889 31.164,216.119 31.056,215.986 30.939 C 215.948 30.905,215.654 30.981,215.333 31.108 M377.061 32.417 C 377.061 33.333,377.089 33.687,377.123 33.203 C 377.157 32.718,377.156 31.968,377.122 31.536 C 377.088 31.104,377.060 31.500,377.061 32.417 M302.045 32.000 C 302.045 32.412,302.078 32.581,302.118 32.375 C 302.157 32.169,302.157 31.831,302.118 31.625 C 302.078 31.419,302.045 31.587,302.045 32.000 M209.083 36.208 C 209.083 38.798,209.133 40.542,209.194 40.083 C 209.348 38.918,209.361 31.500,209.208 31.500 C 209.140 31.500,209.083 33.619,209.083 36.208 M280.705 32.000 C 280.705 32.321,280.740 32.452,280.782 32.292 C 280.823 32.131,280.823 31.869,280.782 31.708 C 280.740 31.548,280.705 31.679,280.705 32.000 M148.542 32.583 C 148.544 32.950,148.578 33.080,148.618 32.873 C 148.658 32.666,148.656 32.366,148.615 32.206 C 148.573 32.047,148.540 32.217,148.542 32.583 M95.042 32.750 C 95.044 33.117,95.078 33.247,95.118 33.040 C 95.158 32.832,95.156 32.532,95.115 32.373 C 95.073 32.214,95.040 32.383,95.042 32.750 M249.006 32.771 C 248.720 33.011,248.521 33.243,248.563 33.285 C 248.605 33.327,248.882 33.131,249.178 32.848 C 249.835 32.220,249.721 32.169,249.006 32.771 M92.545 33.333 C 92.545 33.746,92.578 33.915,92.618 33.708 C 92.657 33.502,92.657 33.165,92.618 32.958 C 92.578 32.752,92.545 32.921,92.545 33.333 M299.217 33.500 C 299.217 34.004,299.248 34.210,299.286 33.958 C 299.324 33.706,299.324 33.294,299.286 33.042 C 299.248 32.790,299.217 32.996,299.217 33.500 M233.865 32.946 C 234.020 32.987,234.178 33.185,234.217 33.385 C 234.275 33.686,234.292 33.669,234.311 33.292 C 234.329 32.916,234.266 32.837,233.958 32.853 C 233.693 32.866,233.665 32.894,233.865 32.946 M236.960 32.951 C 237.168 32.991,237.468 32.990,237.627 32.948 C 237.786 32.906,237.617 32.874,237.250 32.875 C 236.883 32.877,236.753 32.911,236.960 32.951 M283.379 34.167 C 283.379 34.579,283.411 34.748,283.451 34.542 C 283.491 34.335,283.491 33.998,283.451 33.792 C 283.411 33.585,283.379 33.754,283.379 34.167 M362.723 34.833 C 362.723 35.521,362.752 35.802,362.788 35.458 C 362.824 35.115,362.824 34.552,362.788 34.208 C 362.752 33.865,362.723 34.146,362.723 34.833 M251.365 34.173 C 250.834 34.667,250.917 34.798,251.458 34.321 C 251.710 34.098,251.948 33.898,251.986 33.875 C 252.024 33.852,251.982 33.833,251.893 33.833 C 251.803 33.833,251.565 33.986,251.365 34.173 M126.213 34.708 C 126.024 34.953,125.814 35.500,125.910 35.500 C 125.946 35.500,126.088 35.275,126.225 35.000 C 126.488 34.474,126.483 34.360,126.213 34.708 M148.539 35.333 C 148.539 35.654,148.573 35.785,148.615 35.625 C 148.657 35.465,148.657 35.202,148.615 35.042 C 148.573 34.881,148.539 35.012,148.539 35.333 M176.505 35.000 C 176.505 35.137,176.578 35.362,176.667 35.500 C 176.810 35.722,176.828 35.722,176.828 35.500 C 176.828 35.362,176.756 35.137,176.667 35.000 C 176.523 34.778,176.505 34.778,176.505 35.000 M236.712 35.833 C 236.712 36.246,236.745 36.415,236.784 36.208 C 236.824 36.002,236.824 35.665,236.784 35.458 C 236.745 35.252,236.712 35.421,236.712 35.833 M297.628 35.621 C 297.928 35.658,298.378 35.657,298.628 35.619 C 298.878 35.581,298.633 35.551,298.083 35.552 C 297.533 35.553,297.328 35.584,297.628 35.621 M301.955 35.601 C 301.888 35.668,301.833 35.837,301.833 35.978 C 301.833 36.165,301.883 36.184,302.019 36.048 C 302.121 35.946,302.175 35.776,302.140 35.671 C 302.105 35.565,302.022 35.534,301.955 35.601 M365.372 36.167 C 365.372 36.487,365.406 36.619,365.448 36.458 C 365.490 36.298,365.490 36.035,365.448 35.875 C 365.406 35.715,365.372 35.846,365.372 36.167 M280.705 36.500 C 280.705 36.821,280.740 36.952,280.782 36.792 C 280.823 36.631,280.823 36.369,280.782 36.208 C 280.740 36.048,280.705 36.179,280.705 36.500 M249.421 36.487 C 249.360 36.678,249.236 36.833,249.146 36.833 C 249.055 36.833,249.033 36.919,249.098 37.024 C 249.173 37.145,249.302 37.049,249.454 36.759 C 249.585 36.509,249.656 36.267,249.612 36.223 C 249.567 36.178,249.481 36.297,249.421 36.487 M362.667 38.212 C 362.667 38.818,362.733 39.355,362.814 39.405 C 362.950 39.489,362.867 37.338,362.728 37.181 C 362.694 37.142,362.667 37.607,362.667 38.212 M352.565 40.083 C 352.565 41.275,352.592 41.741,352.624 41.118 C 352.656 40.496,352.656 39.521,352.623 38.951 C 352.591 38.382,352.564 38.892,352.565 40.083 M299.217 39.167 C 299.217 39.671,299.248 39.877,299.286 39.625 C 299.324 39.373,299.324 38.960,299.286 38.708 C 299.248 38.456,299.217 38.662,299.217 39.167 M302.042 38.917 C 302.044 39.283,302.078 39.414,302.118 39.206 C 302.158 38.999,302.156 38.699,302.115 38.540 C 302.073 38.380,302.040 38.550,302.042 38.917 M188.030 39.085 C 188.146 39.202,192.681 39.208,192.797 39.092 C 192.847 39.042,191.776 39.000,190.417 39.000 C 189.057 39.000,187.983 39.038,188.030 39.085 M314.121 39.120 C 314.417 39.157,314.942 39.158,315.288 39.122 C 315.634 39.086,315.392 39.055,314.750 39.055 C 314.108 39.054,313.825 39.083,314.121 39.120 M321.955 39.120 C 322.250 39.157,322.775 39.158,323.121 39.122 C 323.467 39.086,323.225 39.055,322.583 39.055 C 321.942 39.054,321.659 39.083,321.955 39.120 M130.458 39.291 C 131.856 39.319,134.144 39.319,135.542 39.291 C 136.940 39.263,135.796 39.241,133.000 39.241 C 130.204 39.241,129.060 39.263,130.458 39.291 M224.032 41.022 C 224.045 42.380,224.075 42.589,224.172 42.000 C 224.298 41.244,224.249 39.527,224.098 39.376 C 224.053 39.331,224.024 40.072,224.032 41.022 M392.042 40.417 C 392.044 40.783,392.078 40.914,392.118 40.706 C 392.158 40.499,392.156 40.199,392.115 40.040 C 392.073 39.880,392.040 40.050,392.042 40.417 M365.388 41.250 C 365.389 41.892,365.419 42.134,365.455 41.788 C 365.491 41.442,365.490 40.917,365.454 40.621 C 365.417 40.325,365.387 40.608,365.388 41.250 M101.412 40.625 C 101.909 41.586,101.998 41.719,101.995 41.500 C 101.994 41.362,101.838 41.063,101.648 40.833 C 101.459 40.604,101.353 40.511,101.412 40.625 M177.539 41.000 C 177.539 41.321,177.573 41.452,177.615 41.292 C 177.657 41.131,177.657 40.869,177.615 40.708 C 177.573 40.548,177.539 40.679,177.539 41.000 M283.375 41.083 C 283.377 41.450,283.411 41.580,283.451 41.373 C 283.491 41.166,283.490 40.866,283.448 40.706 C 283.406 40.547,283.374 40.717,283.375 41.083 M299.205 41.167 C 299.205 41.487,299.240 41.619,299.282 41.458 C 299.323 41.298,299.323 41.035,299.282 40.875 C 299.240 40.715,299.205 40.846,299.205 41.167 M339.333 40.836 L 337.250 40.937 339.957 40.955 C 341.447 40.965,342.706 40.904,342.758 40.820 C 342.811 40.734,342.538 40.681,342.135 40.700 C 341.740 40.719,340.479 40.780,339.333 40.836 M133.044 41.120 C 133.297 41.158,133.672 41.157,133.877 41.117 C 134.082 41.078,133.875 41.046,133.417 41.048 C 132.958 41.049,132.791 41.081,133.044 41.120 M140.544 41.120 C 140.797 41.158,141.172 41.157,141.377 41.117 C 141.582 41.078,141.375 41.046,140.917 41.048 C 140.458 41.049,140.291 41.081,140.544 41.120 M311.375 41.123 C 311.810 41.157,312.523 41.157,312.958 41.123 C 313.394 41.088,313.037 41.060,312.167 41.060 C 311.296 41.060,310.940 41.088,311.375 41.123 M362.709 42.250 C 362.711 42.617,362.745 42.747,362.785 42.540 C 362.824 42.332,362.823 42.032,362.781 41.873 C 362.739 41.714,362.707 41.883,362.709 42.250 M163.042 42.917 C 163.044 43.283,163.078 43.414,163.118 43.206 C 163.158 42.999,163.156 42.699,163.115 42.540 C 163.073 42.380,163.040 42.550,163.042 42.917 M283.372 42.833 C 283.372 43.154,283.406 43.285,283.448 43.125 C 283.490 42.965,283.490 42.702,283.448 42.542 C 283.406 42.381,283.372 42.512,283.372 42.833 M299.205 42.833 C 299.205 43.154,299.240 43.285,299.282 43.125 C 299.323 42.965,299.323 42.702,299.282 42.542 C 299.240 42.381,299.205 42.512,299.205 42.833 M345.567 44.750 C 345.567 46.125,345.593 46.665,345.624 45.951 C 345.655 45.236,345.655 44.111,345.624 43.451 C 345.592 42.790,345.566 43.375,345.567 44.750 M342.875 43.250 C 342.877 43.617,342.911 43.747,342.951 43.540 C 342.991 43.332,342.990 43.032,342.948 42.873 C 342.906 42.714,342.874 42.883,342.875 43.250 M185.669 43.514 C 185.671 43.644,185.746 43.862,185.836 44.000 C 185.967 44.198,185.990 44.173,185.949 43.879 C 185.890 43.453,185.665 43.160,185.669 43.514 M283.375 44.583 C 283.377 44.950,283.411 45.080,283.451 44.873 C 283.491 44.666,283.490 44.366,283.448 44.206 C 283.406 44.047,283.374 44.217,283.375 44.583 M95.212 44.833 C 95.212 45.246,95.245 45.415,95.284 45.208 C 95.324 45.002,95.324 44.665,95.284 44.458 C 95.245 44.252,95.212 44.421,95.212 44.833 M163.048 44.917 C 163.049 45.375,163.081 45.543,163.120 45.289 C 163.158 45.036,163.157 44.661,163.117 44.456 C 163.078 44.251,163.046 44.458,163.048 44.917 M342.533 44.533 C 342.304 44.763,342.259 45.232,342.480 45.096 C 342.606 45.018,342.864 44.333,342.768 44.333 C 342.749 44.333,342.643 44.423,342.533 44.533 M148.552 45.750 C 148.553 46.300,148.584 46.505,148.621 46.205 C 148.658 45.906,148.657 45.456,148.619 45.205 C 148.581 44.955,148.551 45.200,148.552 45.750 M151.209 45.417 C 151.211 45.783,151.245 45.914,151.285 45.706 C 151.324 45.499,151.323 45.199,151.281 45.040 C 151.239 44.880,151.207 45.050,151.209 45.417 M283.375 46.250 C 283.377 46.617,283.411 46.747,283.451 46.540 C 283.491 46.332,283.490 46.032,283.448 45.873 C 283.406 45.714,283.374 45.883,283.375 46.250 M324.372 45.897 C 324.531 46.018,324.606 46.177,324.539 46.252 C 324.472 46.326,324.514 46.331,324.633 46.262 C 324.882 46.118,324.602 45.663,324.271 45.672 C 324.168 45.675,324.213 45.776,324.372 45.897 M352.556 47.500 C 352.556 48.188,352.585 48.469,352.621 48.125 C 352.657 47.781,352.657 47.219,352.621 46.875 C 352.585 46.531,352.556 46.813,352.556 47.500 M377.039 46.833 C 377.039 47.154,377.073 47.285,377.115 47.125 C 377.157 46.965,377.157 46.702,377.115 46.542 C 377.073 46.381,377.039 46.512,377.039 46.833 M209.003 47.931 C 209.004 48.748,209.081 49.529,209.174 49.667 C 209.292 49.841,209.323 49.422,209.274 48.283 C 209.187 46.211,208.999 45.967,209.003 47.931 M105.458 46.784 C 105.665 46.824,106.002 46.824,106.208 46.784 C 106.415 46.745,106.246 46.712,105.833 46.712 C 105.421 46.712,105.252 46.745,105.458 46.784 M177.556 47.833 C 177.556 48.521,177.585 48.802,177.621 48.458 C 177.657 48.115,177.657 47.552,177.621 47.208 C 177.585 46.865,177.556 47.146,177.556 47.833 M119.055 47.917 C 119.055 48.558,119.086 48.800,119.122 48.455 C 119.158 48.109,119.157 47.584,119.120 47.288 C 119.083 46.992,119.054 47.275,119.055 47.917 M243.011 46.917 C 243.011 47.008,243.121 47.229,243.255 47.407 C 243.390 47.585,243.500 47.655,243.500 47.564 C 243.500 47.472,243.390 47.251,243.255 47.074 C 243.121 46.896,243.011 46.825,243.011 46.917 M24.904 50.667 C 24.904 52.546,24.928 53.315,24.958 52.375 C 24.987 51.435,24.987 49.898,24.958 48.958 C 24.928 48.019,24.904 48.788,24.904 50.667 M163.122 47.934 C 163.055 48.001,163.000 48.171,163.000 48.311 C 163.000 48.499,163.049 48.517,163.185 48.381 C 163.287 48.279,163.342 48.110,163.307 48.004 C 163.272 47.899,163.188 47.867,163.122 47.934 M151.205 48.833 C 151.205 49.154,151.240 49.285,151.282 49.125 C 151.323 48.965,151.323 48.702,151.282 48.542 C 151.240 48.381,151.205 48.512,151.205 48.833 M95.114 49.059 C 95.040 49.412,95.021 49.743,95.073 49.795 C 95.261 49.983,95.354 49.685,95.303 49.058 L 95.250 48.417 95.114 49.059 M116.372 49.167 C 116.372 49.487,116.406 49.619,116.448 49.458 C 116.490 49.298,116.490 49.035,116.448 48.875 C 116.406 48.715,116.372 48.846,116.372 49.167 M299.192 49.292 C 299.170 49.755,299.221 49.831,299.542 49.814 C 299.808 49.800,299.835 49.773,299.635 49.720 C 299.480 49.680,299.323 49.444,299.285 49.198 C 299.223 48.794,299.214 48.803,299.192 49.292 M180.131 49.500 C 180.091 49.775,180.120 50.000,180.196 50.000 C 180.271 50.000,180.333 49.775,180.333 49.500 C 180.333 49.225,180.304 49.000,180.269 49.000 C 180.233 49.000,180.171 49.225,180.131 49.500 M163.056 49.500 C 163.083 49.908,163.113 49.917,164.459 49.927 L 165.834 49.938 164.511 49.879 C 163.304 49.825,163.181 49.788,163.108 49.452 C 163.041 49.138,163.033 49.146,163.056 49.500 M394.250 49.500 L 393.750 49.627 394.198 49.647 C 394.445 49.658,394.693 49.592,394.750 49.500 C 394.807 49.408,394.830 49.342,394.802 49.353 C 394.773 49.364,394.525 49.430,394.250 49.500 M337.974 49.874 C 338.049 49.949,338.292 49.936,338.513 49.846 C 338.893 49.691,338.885 49.683,338.377 49.709 C 338.080 49.725,337.899 49.799,337.974 49.874 M117.708 49.953 C 117.960 49.991,118.373 49.991,118.625 49.953 C 118.877 49.915,118.671 49.883,118.167 49.883 C 117.662 49.883,117.456 49.915,117.708 49.953 M149.460 49.951 C 149.668 49.991,149.968 49.990,150.127 49.948 C 150.286 49.906,150.117 49.874,149.750 49.875 C 149.383 49.877,149.253 49.911,149.460 49.951 M336.875 49.948 C 337.035 49.990,337.298 49.990,337.458 49.948 C 337.619 49.906,337.487 49.872,337.167 49.872 C 336.846 49.872,336.715 49.906,336.875 49.948 M368.375 49.948 C 368.535 49.990,368.798 49.990,368.958 49.948 C 369.119 49.906,368.988 49.872,368.667 49.872 C 368.346 49.872,368.215 49.906,368.375 49.948 M134.875 50.115 C 135.035 50.157,135.298 50.157,135.458 50.115 C 135.619 50.073,135.487 50.039,135.167 50.039 C 134.846 50.039,134.715 50.073,134.875 50.115 M28.884 56.458 C 29.874 56.487,31.449 56.487,32.384 56.458 C 33.319 56.428,32.508 56.404,30.583 56.404 C 28.658 56.404,27.894 56.428,28.884 56.458 M38.583 59.423 C 38.165 59.624,38.151 59.647,38.500 59.563 C 38.729 59.508,38.988 59.396,39.075 59.315 C 39.291 59.113,39.172 59.139,38.583 59.423 M42.500 60.180 L 42.083 60.520 42.625 60.256 C 42.923 60.110,43.167 59.956,43.167 59.912 C 43.167 59.747,42.901 59.853,42.500 60.180 M34.462 62.927 C 34.410 62.979,34.135 63.028,33.850 63.036 C 33.566 63.044,33.333 63.106,33.333 63.174 C 33.333 63.241,33.615 63.260,33.958 63.214 C 34.613 63.128,34.778 63.056,34.639 62.917 C 34.593 62.871,34.513 62.876,34.462 62.927 " stroke="none" fill="#5464a4" fill-rule="evenodd"></path><path id="path3" d="" stroke="none" fill="#5864ac" fill-rule="evenodd"></path><path id="path4" d="" stroke="none" fill="#5864ac" fill-rule="evenodd"></path></g></svg>