<svg id="svg" version="1.1" xmlns="http://www.w3.org/2000/svg" xmlns:xlink="http://www.w3.org/1999/xlink" width="400" height="134.34912222590262" viewBox="0, 0, 400,134.34912222590262"><g id="svgg"><path id="path0" d="M48.917 15.858 C 47.817 16.032,46.279 16.325,45.500 16.508 C 44.721 16.692,43.939 16.840,43.762 16.838 C 43.585 16.835,42.910 16.998,42.262 17.199 C 39.503 18.054,37.162 18.832,36.883 18.987 C 36.718 19.079,36.021 19.392,35.334 19.684 C 33.284 20.555,29.512 22.520,29.022 22.972 C 28.890 23.095,28.624 23.263,28.432 23.347 C 27.764 23.639,26.178 24.752,24.333 26.224 C 23.078 27.227,22.945 27.341,21.789 28.416 C 21.443 28.737,21.120 29.000,21.069 29.000 C 20.945 29.000,18.833 31.151,18.833 31.278 C 18.833 31.333,18.665 31.545,18.458 31.748 C 16.749 33.434,14.345 36.510,13.246 38.417 C 12.982 38.875,12.719 39.287,12.661 39.333 C 12.551 39.421,11.475 41.383,10.833 42.667 C 10.742 42.850,10.592 43.150,10.500 43.333 C 10.408 43.517,10.258 43.817,10.167 44.000 C 10.075 44.183,9.934 44.465,9.852 44.625 C 9.771 44.785,9.537 45.329,9.332 45.833 C 9.128 46.337,8.861 46.942,8.739 47.177 C 8.618 47.412,8.360 48.124,8.167 48.760 C 7.974 49.396,7.736 50.142,7.637 50.417 C 5.382 56.724,4.727 67.931,6.231 74.500 C 6.368 75.096,6.641 76.296,6.838 77.167 C 7.035 78.037,7.330 79.162,7.493 79.667 C 7.656 80.171,7.918 80.996,8.075 81.500 C 8.495 82.848,10.011 86.357,10.776 87.750 C 11.149 88.430,11.340 88.801,11.720 89.583 C 11.898 89.950,12.090 90.287,12.147 90.333 C 12.257 90.422,12.325 90.531,13.247 92.083 C 13.573 92.633,13.933 93.233,14.045 93.416 C 14.241 93.734,15.482 95.327,15.669 95.500 C 15.718 95.546,16.013 95.921,16.325 96.333 C 16.636 96.746,17.047 97.247,17.237 97.447 C 17.428 97.647,17.958 98.243,18.417 98.772 C 19.326 99.820,20.603 101.086,21.672 102.000 C 22.047 102.321,22.484 102.712,22.643 102.870 C 23.283 103.505,26.765 106.175,27.259 106.410 C 27.550 106.548,27.882 106.774,27.997 106.914 C 28.113 107.053,28.277 107.167,28.363 107.167 C 28.448 107.167,28.960 107.467,29.500 107.833 C 30.040 108.200,30.594 108.500,30.731 108.500 C 30.868 108.500,31.029 108.578,31.088 108.674 C 31.221 108.890,35.546 111.000,35.857 111.001 C 35.981 111.001,36.329 111.151,36.629 111.334 C 36.929 111.517,37.267 111.667,37.379 111.668 C 37.491 111.668,37.771 111.765,38.000 111.883 C 38.376 112.076,38.978 112.273,42.462 113.345 C 43.037 113.522,43.664 113.667,43.855 113.667 C 44.046 113.667,44.814 113.811,45.560 113.988 C 51.577 115.413,59.415 115.410,66.167 113.980 C 68.534 113.478,68.795 113.412,70.333 112.930 C 71.112 112.685,71.976 112.426,72.253 112.352 C 72.734 112.225,73.237 112.021,74.796 111.320 C 75.188 111.144,75.590 111.000,75.690 111.000 C 75.930 111.000,80.506 108.742,81.203 108.279 C 81.504 108.080,81.956 107.810,82.208 107.680 C 82.460 107.550,82.667 107.381,82.667 107.305 C 82.667 107.229,82.782 107.167,82.924 107.167 C 83.065 107.167,83.271 107.090,83.382 106.997 C 83.852 106.601,84.772 105.992,85.042 105.897 C 85.202 105.841,85.333 105.741,85.333 105.676 C 85.333 105.611,85.744 105.264,86.246 104.904 C 86.749 104.544,87.161 104.194,87.163 104.125 C 87.165 104.056,87.277 104.000,87.411 104.000 C 87.545 104.000,87.735 103.850,87.833 103.667 C 87.931 103.483,88.075 103.333,88.153 103.333 C 88.230 103.333,88.659 102.995,89.105 102.582 C 89.552 102.169,90.254 101.557,90.667 101.222 C 91.079 100.886,91.737 100.230,92.128 99.764 C 92.871 98.879,94.296 97.273,94.741 96.819 C 94.884 96.674,95.000 96.468,95.000 96.361 C 95.000 96.254,95.060 96.167,95.133 96.167 C 95.304 96.167,97.000 94.043,97.000 93.829 C 97.000 93.740,97.063 93.667,97.140 93.667 C 97.217 93.667,97.366 93.498,97.472 93.292 C 97.719 92.810,98.142 92.101,98.723 91.197 C 99.744 89.607,101.594 85.972,102.344 84.083 C 102.417 83.900,102.658 83.300,102.880 82.750 C 103.102 82.200,103.454 81.188,103.663 80.500 C 103.871 79.813,104.182 78.818,104.354 78.291 C 104.526 77.764,104.666 77.164,104.666 76.958 C 104.666 76.752,104.814 75.946,104.994 75.167 C 106.408 69.077,106.408 61.074,104.995 55.227 C 104.814 54.480,104.667 53.713,104.667 53.522 C 104.667 53.330,104.509 52.666,104.316 52.045 C 104.124 51.424,103.815 50.429,103.630 49.833 C 103.261 48.642,102.765 47.342,102.402 46.611 C 102.272 46.352,102.167 46.064,102.167 45.972 C 102.167 45.645,99.295 40.070,98.747 39.333 C 98.440 38.921,98.184 38.529,98.178 38.462 C 98.155 38.209,96.906 36.369,95.941 35.167 C 94.987 33.977,94.773 33.725,94.146 33.044 C 93.998 32.882,93.359 32.147,92.727 31.410 C 92.095 30.673,90.979 29.557,90.247 28.930 C 89.516 28.303,88.792 27.650,88.640 27.478 C 88.488 27.307,88.284 27.167,88.187 27.167 C 88.091 27.167,87.931 27.017,87.833 26.833 C 87.735 26.650,87.551 26.500,87.425 26.500 C 87.298 26.500,87.169 26.443,87.139 26.374 C 87.108 26.304,86.746 25.991,86.333 25.678 C 85.921 25.365,85.508 25.026,85.417 24.925 C 85.325 24.824,84.875 24.501,84.417 24.208 C 83.958 23.915,83.493 23.598,83.382 23.504 C 83.271 23.410,83.099 23.333,83.000 23.333 C 82.901 23.333,82.729 23.257,82.618 23.164 C 82.151 22.770,80.902 22.006,80.720 22.003 C 80.612 22.001,80.425 21.904,80.304 21.787 C 80.093 21.584,77.556 20.306,76.333 19.788 C 73.369 18.530,72.976 18.382,71.250 17.859 C 70.608 17.665,69.614 17.355,69.041 17.170 C 68.468 16.985,67.829 16.833,67.621 16.833 C 67.413 16.833,66.702 16.683,66.040 16.500 C 65.379 16.317,64.593 16.167,64.293 16.167 C 63.994 16.167,62.962 16.017,62.000 15.833 C 59.548 15.366,51.936 15.381,48.917 15.858 M63.083 17.414 C 66.775 18.019,68.733 18.490,72.000 19.556 C 73.336 19.992,76.036 21.165,78.083 22.199 C 103.685 35.130,112.430 67.109,96.991 91.336 C 93.841 96.280,87.759 102.485,83.250 105.358 C 70.386 113.553,54.983 115.851,41.500 111.586 C 40.721 111.340,39.821 111.063,39.500 110.971 C 38.580 110.707,34.582 108.939,32.750 107.986 C 23.904 103.384,16.654 96.119,12.223 87.417 C 6.330 75.843,5.176 63.556,8.835 51.321 C 10.486 45.797,13.523 39.932,16.898 35.750 C 22.667 28.601,28.427 24.199,36.583 20.704 C 38.812 19.749,39.620 19.462,42.250 18.690 C 48.401 16.885,56.744 16.374,63.083 17.414 M345.127 25.285 C 345.334 25.324,345.634 25.323,345.794 25.281 C 345.953 25.239,345.783 25.207,345.417 25.209 C 345.050 25.211,344.920 25.245,345.127 25.285 M47.430 30.169 C 44.832 31.184,44.769 31.438,44.668 41.333 L 44.583 49.583 43.951 50.617 C 43.457 51.424,43.091 51.791,42.284 52.284 L 41.250 52.917 33.000 53.000 L 24.750 53.083 24.000 53.476 C 21.533 54.769,21.500 54.914,21.500 64.504 C 21.500 73.720,21.554 74.028,23.381 75.254 C 24.587 76.062,24.624 76.065,33.250 76.162 L 41.417 76.254 42.171 76.703 C 43.038 77.220,43.609 77.803,44.179 78.750 L 44.580 79.417 44.665 87.667 C 44.791 99.892,44.235 99.333,56.272 99.333 C 64.740 99.333,65.497 99.205,66.766 97.552 C 67.715 96.316,67.720 96.265,67.822 87.500 C 67.962 75.567,67.233 76.295,79.167 76.155 C 91.545 76.009,90.986 76.561,90.986 64.500 C 90.986 56.168,90.959 55.936,89.843 54.639 C 88.470 53.046,88.794 53.096,79.333 52.995 L 71.083 52.906 70.329 52.460 C 69.465 51.948,68.894 51.368,68.319 50.417 L 67.917 49.750 67.828 41.583 C 67.734 32.952,67.731 32.924,66.920 31.715 C 66.434 30.990,65.807 30.521,64.822 30.147 C 63.545 29.662,48.681 29.681,47.430 30.169 " stroke="none" fill="#5464ac" fill-rule="evenodd"></path><path id="path1" d="M124.000 64.508 L 124.000 124.016 125.042 123.966 L 126.083 123.917 126.129 64.833 C 126.154 32.337,126.134 5.581,126.084 5.375 C 126.003 5.038,125.893 5.000,124.997 5.000 L 124.000 5.000 124.000 64.508 M147.667 31.268 L 147.667 49.500 149.660 49.500 L 151.654 49.500 151.643 40.958 C 151.624 24.851,151.669 21.208,151.886 21.667 C 151.994 21.896,152.195 22.217,152.333 22.380 C 152.471 22.544,152.585 22.731,152.588 22.797 C 152.590 22.863,152.704 23.104,152.841 23.333 C 152.979 23.563,153.178 23.900,153.285 24.083 C 153.391 24.267,153.837 25.017,154.275 25.750 C 154.712 26.483,155.251 27.421,155.472 27.833 C 155.693 28.246,155.959 28.696,156.062 28.833 C 156.237 29.066,156.452 29.429,156.901 30.250 C 157.001 30.433,157.130 30.621,157.186 30.667 C 157.242 30.712,157.449 31.050,157.646 31.417 C 158.036 32.143,158.242 32.486,158.750 33.249 C 158.933 33.525,159.085 33.787,159.087 33.833 C 159.096 34.033,160.095 35.666,160.208 35.666 C 160.277 35.667,160.333 35.744,160.333 35.839 C 160.333 35.934,160.840 36.879,161.458 37.939 C 162.077 38.999,162.760 40.178,162.976 40.558 C 163.192 40.939,163.538 41.512,163.744 41.833 C 164.378 42.819,165.167 44.167,165.167 44.264 C 165.167 44.824,167.248 45.088,167.668 44.581 C 167.965 44.224,168.473 43.330,168.685 42.792 C 168.785 42.540,168.925 42.333,168.996 42.333 C 169.068 42.333,169.225 42.090,169.345 41.792 C 169.466 41.494,169.613 41.212,169.671 41.167 C 169.805 41.062,171.597 37.962,172.355 36.522 C 172.518 36.213,172.756 35.838,172.884 35.688 C 173.011 35.539,173.163 35.304,173.221 35.167 C 173.279 35.029,173.497 34.642,173.705 34.306 C 173.913 33.970,174.659 32.695,175.363 31.472 C 176.068 30.250,176.795 28.988,176.980 28.667 C 177.165 28.346,177.483 27.765,177.688 27.375 C 177.892 26.985,178.121 26.667,178.196 26.667 C 178.272 26.667,178.333 26.584,178.333 26.484 C 178.333 26.384,178.502 26.065,178.708 25.776 C 178.914 25.487,179.064 25.232,179.042 25.209 C 179.021 25.187,179.253 24.774,179.558 24.293 C 179.863 23.811,180.407 22.892,180.765 22.250 L 181.417 21.083 181.459 35.279 L 181.502 49.474 183.459 49.445 L 185.417 49.417 185.466 32.083 C 185.493 22.550,185.469 14.351,185.411 13.864 L 185.307 12.978 183.649 13.019 C 182.522 13.047,181.932 13.131,181.808 13.280 C 181.708 13.401,181.681 13.500,181.749 13.500 C 181.817 13.500,181.693 13.744,181.472 14.042 C 181.252 14.340,180.981 14.771,180.871 15.000 C 180.760 15.229,180.576 15.567,180.463 15.750 C 179.983 16.529,179.758 16.922,179.750 17.000 C 179.740 17.095,179.267 17.867,178.809 18.535 C 178.639 18.783,178.500 19.026,178.500 19.073 C 178.500 19.121,178.254 19.555,177.953 20.038 C 177.653 20.521,177.297 21.142,177.162 21.417 C 177.027 21.692,176.876 21.954,176.825 22.000 C 176.774 22.046,176.522 22.496,176.265 23.000 C 176.007 23.504,175.701 24.029,175.585 24.167 C 175.469 24.304,175.249 24.642,175.097 24.917 C 174.945 25.192,174.641 25.717,174.422 26.083 C 174.202 26.450,173.905 26.975,173.760 27.250 C 173.616 27.525,173.317 28.050,173.096 28.417 C 172.875 28.783,172.561 29.346,172.397 29.667 C 172.234 29.988,172.054 30.287,171.997 30.333 C 171.939 30.379,171.841 30.529,171.778 30.667 C 171.716 30.804,171.476 31.217,171.246 31.583 C 171.016 31.950,170.752 32.400,170.660 32.583 C 170.568 32.767,170.309 33.217,170.085 33.583 C 169.861 33.950,169.558 34.475,169.411 34.750 C 169.264 35.025,168.964 35.550,168.745 35.917 C 168.079 37.029,167.703 37.742,167.699 37.898 C 167.697 37.979,167.629 38.092,167.547 38.148 C 167.466 38.204,167.225 38.537,167.012 38.887 C 166.799 39.238,166.566 39.463,166.494 39.387 C 166.277 39.158,165.690 38.121,165.402 37.458 C 165.253 37.115,165.076 36.833,165.009 36.833 C 164.942 36.833,164.744 36.534,164.568 36.169 C 164.393 35.803,164.189 35.503,164.115 35.502 C 164.041 35.501,164.027 35.425,164.083 35.333 C 164.140 35.242,164.125 35.167,164.051 35.167 C 163.976 35.167,163.808 34.923,163.678 34.625 C 163.548 34.327,163.316 33.896,163.163 33.667 C 162.562 32.767,161.926 31.746,161.917 31.667 C 161.912 31.621,161.787 31.396,161.639 31.167 C 161.135 30.385,160.496 29.251,160.395 28.958 C 160.340 28.798,160.228 28.667,160.147 28.667 C 160.066 28.667,160.000 28.563,160.000 28.435 C 160.000 28.308,159.737 27.822,159.417 27.356 C 159.096 26.890,158.833 26.465,158.833 26.413 C 158.833 26.361,158.341 25.478,157.740 24.451 C 156.225 21.865,156.292 21.975,155.883 21.396 C 155.680 21.109,155.550 20.838,155.595 20.794 C 155.639 20.750,155.560 20.619,155.421 20.503 C 155.281 20.387,155.167 20.189,155.167 20.063 C 155.167 19.937,155.100 19.833,155.019 19.833 C 154.938 19.833,154.829 19.702,154.777 19.542 C 154.724 19.381,154.484 18.912,154.243 18.500 C 154.001 18.087,153.460 17.150,153.041 16.417 C 152.621 15.683,152.127 14.915,151.943 14.708 C 151.759 14.502,151.664 14.333,151.732 14.333 C 151.800 14.333,151.701 14.116,151.511 13.849 C 151.322 13.583,151.166 13.302,151.166 13.224 C 151.166 13.147,150.378 13.073,149.416 13.060 L 147.667 13.037 147.667 31.268 M348.667 18.917 L 348.667 21.833 346.244 21.833 L 343.822 21.833 343.869 23.542 L 343.917 25.250 346.292 25.190 L 348.667 25.130 348.667 34.140 C 348.667 44.936,348.744 45.432,350.737 47.425 C 353.012 49.700,357.896 50.192,361.170 48.477 C 362.572 47.742,362.618 47.585,361.886 46.001 C 361.293 44.715,361.000 44.433,360.717 44.875 C 360.053 45.913,356.218 46.355,354.847 45.552 C 352.637 44.256,352.631 44.228,352.549 33.711 L 352.482 25.173 356.616 25.128 L 360.750 25.083 360.750 23.500 L 360.750 21.917 356.625 21.872 L 352.500 21.828 352.500 18.914 L 352.500 16.000 350.583 16.000 L 348.667 16.000 348.667 18.917 M53.667 17.021 C 51.642 17.137,47.750 17.581,46.600 17.828 C 40.987 19.031,37.896 20.098,33.333 22.409 C 30.568 23.809,30.680 23.746,28.750 24.979 C 26.356 26.510,21.615 30.493,20.048 32.291 C 19.518 32.900,18.858 33.644,18.583 33.944 C 18.004 34.577,18.040 34.533,16.771 36.167 C 16.237 36.854,15.733 37.442,15.650 37.472 C 15.568 37.503,15.500 37.597,15.500 37.681 C 15.500 37.815,14.067 40.139,13.711 40.583 C 13.554 40.779,10.702 46.557,10.462 47.167 C 10.372 47.396,10.197 47.808,10.073 48.083 C 9.842 48.593,9.551 49.481,8.788 52.000 C 5.986 61.254,6.548 74.187,10.113 82.468 C 10.259 82.807,10.499 83.380,10.647 83.742 C 11.938 86.898,14.609 91.540,16.646 94.167 C 17.837 95.703,17.991 95.887,19.786 97.917 C 21.572 99.939,26.948 104.517,28.490 105.331 C 28.713 105.449,28.975 105.614,29.073 105.699 C 30.412 106.863,39.539 111.167,40.669 111.167 C 40.828 111.167,41.212 111.271,41.521 111.399 C 44.022 112.433,51.385 113.528,55.786 113.521 C 61.363 113.511,69.306 112.041,73.417 110.257 C 73.692 110.138,74.404 109.834,75.000 109.582 C 76.675 108.873,80.322 107.016,81.334 106.356 C 81.992 105.927,82.379 105.692,82.917 105.395 C 84.805 104.354,90.250 99.605,92.167 97.327 C 93.037 96.292,93.918 95.251,94.122 95.014 C 94.572 94.494,94.563 94.506,95.546 93.221 C 95.979 92.655,96.333 92.148,96.333 92.094 C 96.333 92.041,96.749 91.359,97.258 90.578 C 98.603 88.515,101.203 83.076,101.917 80.833 C 102.077 80.329,102.310 79.617,102.434 79.250 C 104.566 72.967,105.096 62.989,103.656 56.250 C 102.698 51.765,101.393 47.738,100.011 45.000 C 98.504 42.015,97.965 41.025,97.222 39.877 C 96.733 39.121,96.333 38.459,96.333 38.406 C 96.333 38.315,94.979 36.494,94.589 36.059 C 94.494 35.953,94.192 35.585,93.917 35.241 C 92.960 34.042,90.960 31.746,90.357 31.155 C 88.827 29.653,83.900 25.647,82.917 25.105 C 82.642 24.953,82.271 24.736,82.093 24.623 C 80.285 23.471,77.109 21.811,75.167 21.004 C 74.662 20.794,73.950 20.490,73.583 20.328 C 72.946 20.046,72.245 19.806,69.833 19.040 C 65.367 17.623,58.382 16.750,53.667 17.021 M377.500 21.676 C 375.983 21.868,374.786 22.127,374.126 22.406 C 373.782 22.552,373.462 22.667,373.414 22.662 C 373.309 22.652,371.727 23.512,371.059 23.943 C 369.750 24.788,367.333 27.272,367.333 27.772 C 367.333 27.882,367.270 27.997,367.192 28.028 C 366.995 28.105,365.991 30.254,365.897 30.800 C 365.855 31.048,365.692 31.587,365.535 32.000 C 365.124 33.081,365.136 38.114,365.551 39.062 C 365.706 39.417,365.833 39.849,365.833 40.023 C 365.833 40.196,365.906 40.468,365.994 40.627 C 366.083 40.786,366.307 41.268,366.494 41.698 C 366.680 42.128,366.909 42.527,367.002 42.585 C 367.096 42.642,367.136 42.748,367.092 42.820 C 367.048 42.891,367.159 43.108,367.339 43.301 C 367.519 43.495,367.667 43.726,367.667 43.814 C 367.667 43.903,367.995 44.319,368.397 44.738 C 368.798 45.157,369.079 45.501,369.022 45.503 C 368.964 45.504,369.012 45.565,369.128 45.639 C 369.244 45.713,369.679 46.063,370.094 46.417 C 370.951 47.147,371.160 47.277,372.667 48.019 C 374.214 48.780,374.253 48.793,376.009 49.166 C 378.399 49.673,382.307 49.430,384.083 48.662 C 384.358 48.543,384.640 48.458,384.708 48.473 C 384.777 48.488,384.833 48.412,384.833 48.306 C 384.833 48.199,384.880 48.158,384.937 48.215 C 385.101 48.379,386.987 47.332,387.998 46.517 C 388.875 45.809,389.211 45.469,390.308 44.181 C 391.169 43.171,392.529 40.119,392.802 38.583 C 392.835 38.400,392.873 37.012,392.888 35.500 C 392.915 32.811,392.846 32.278,392.274 30.750 C 392.171 30.475,392.085 30.212,392.083 30.167 C 392.075 29.997,391.598 28.914,391.496 28.833 C 391.438 28.787,391.209 28.385,390.988 27.938 C 390.768 27.491,390.493 27.089,390.377 27.045 C 390.261 27.001,390.167 26.874,390.167 26.763 C 390.167 26.532,388.092 24.500,387.857 24.500 C 387.772 24.500,387.664 24.406,387.618 24.292 C 387.572 24.177,387.170 23.900,386.725 23.677 C 386.281 23.453,385.804 23.182,385.667 23.073 C 385.529 22.964,385.117 22.785,384.750 22.673 C 384.383 22.562,383.847 22.365,383.558 22.236 C 383.269 22.106,382.849 22.000,382.625 22.000 C 382.400 22.000,381.999 21.931,381.733 21.847 C 381.065 21.636,378.607 21.536,377.500 21.676 M259.000 21.909 C 256.219 22.291,254.004 23.326,252.337 25.023 C 251.085 26.298,250.827 26.593,250.548 27.071 C 250.396 27.330,250.344 27.350,250.339 27.154 C 250.330 26.744,249.331 25.324,248.501 24.542 C 248.088 24.152,247.631 23.721,247.486 23.583 C 247.341 23.446,247.097 23.333,246.944 23.333 C 246.792 23.333,246.667 23.277,246.667 23.207 C 246.667 23.089,246.439 22.980,245.000 22.409 C 240.886 20.778,234.835 22.165,231.859 25.421 L 231.000 26.360 231.000 24.180 L 231.000 22.000 229.083 22.000 L 227.167 22.000 227.167 35.672 L 227.167 49.344 229.171 49.297 L 231.174 49.250 231.178 41.236 C 231.182 34.621,231.226 33.064,231.433 32.319 C 231.571 31.823,231.712 31.304,231.746 31.167 C 231.780 31.029,231.823 30.898,231.841 30.875 C 231.860 30.852,231.888 30.777,231.904 30.708 C 232.873 26.486,239.331 24.135,244.042 26.290 C 244.569 26.531,245.000 26.789,245.000 26.864 C 245.000 26.939,245.112 27.000,245.250 27.000 C 245.387 27.000,245.500 27.075,245.500 27.167 C 245.500 27.258,245.631 27.471,245.792 27.639 C 246.124 27.987,246.433 28.484,246.858 29.353 C 247.623 30.916,247.642 31.105,247.654 37.230 C 247.661 40.449,247.715 44.490,247.775 46.208 L 247.884 49.333 249.861 49.333 L 251.839 49.333 251.831 41.292 C 251.824 33.594,251.905 31.967,252.336 31.162 C 252.433 30.981,252.472 30.833,252.424 30.833 C 251.620 30.833,254.772 27.124,256.183 26.408 C 258.210 25.381,262.356 24.967,263.106 25.717 C 263.170 25.781,263.435 25.833,263.694 25.833 C 263.954 25.833,264.167 25.896,264.167 25.973 C 264.167 26.050,264.364 26.203,264.604 26.313 C 266.280 27.076,267.541 29.009,268.098 31.667 C 268.165 31.988,268.207 36.096,268.190 40.797 L 268.161 49.344 270.206 49.297 L 272.250 49.250 272.303 41.917 C 272.369 32.665,272.004 28.251,271.121 27.648 C 271.039 27.592,270.969 27.479,270.966 27.398 C 270.955 27.107,270.684 26.530,270.508 26.421 C 270.409 26.360,270.370 26.243,270.421 26.160 C 270.520 26.000,268.089 23.500,267.834 23.500 C 267.750 23.500,267.430 23.331,267.124 23.125 C 265.415 21.977,262.109 21.482,259.000 21.909 M290.417 21.917 C 288.347 22.213,285.432 23.361,284.961 24.067 C 284.894 24.167,284.837 24.194,284.836 24.125 C 284.834 24.056,284.687 24.131,284.508 24.292 C 284.329 24.452,283.835 24.883,283.411 25.250 C 282.660 25.899,281.167 27.805,281.167 28.113 C 281.167 28.197,281.083 28.351,280.980 28.453 C 280.196 29.237,279.334 32.596,279.236 35.250 C 279.178 36.805,279.246 37.419,279.691 39.333 C 279.929 40.355,280.523 41.889,280.740 42.039 C 280.837 42.106,280.856 42.163,280.782 42.164 C 280.384 42.172,282.888 45.522,283.778 46.172 C 284.088 46.398,284.535 46.756,284.771 46.966 C 285.528 47.641,288.043 48.764,289.333 49.004 C 289.746 49.080,290.411 49.226,290.812 49.327 C 291.212 49.428,292.487 49.514,293.645 49.517 C 295.557 49.523,296.168 49.452,298.000 49.009 C 298.834 48.808,300.235 48.301,300.333 48.165 C 300.379 48.101,300.681 47.925,301.003 47.774 C 302.313 47.159,304.472 45.117,304.157 44.793 C 304.025 44.657,303.551 44.123,303.104 43.606 C 302.182 42.541,301.677 42.396,301.354 43.105 C 301.244 43.346,301.110 43.499,301.056 43.445 C 301.002 43.390,300.648 43.596,300.270 43.902 C 298.128 45.637,293.086 46.518,290.542 45.603 C 290.152 45.463,289.833 45.381,289.833 45.422 C 289.833 45.657,287.072 44.048,286.470 43.462 C 286.074 43.076,285.688 42.779,285.613 42.801 C 285.537 42.823,285.520 42.770,285.574 42.682 C 285.628 42.595,285.539 42.424,285.375 42.303 C 285.212 42.182,284.986 41.896,284.874 41.667 C 284.761 41.438,284.595 41.137,284.505 41.000 C 284.002 40.231,283.333 38.091,283.333 37.248 L 283.333 36.833 294.494 36.833 L 305.655 36.833 305.848 36.472 C 306.050 36.095,305.823 32.920,305.504 31.667 C 305.113 30.125,303.657 27.050,303.244 26.891 C 303.110 26.840,303.000 26.694,303.000 26.567 C 303.000 26.440,302.850 26.242,302.667 26.128 C 302.483 26.013,302.333 25.825,302.333 25.710 C 302.333 25.594,302.272 25.500,302.196 25.500 C 302.121 25.500,301.662 25.129,301.176 24.676 C 298.698 22.361,294.619 21.315,290.417 21.917 M324.052 21.922 C 323.394 22.042,322.569 22.265,322.219 22.416 C 320.336 23.232,318.706 24.205,318.552 24.604 C 318.504 24.730,318.379 24.835,318.274 24.837 C 318.169 24.839,317.858 25.158,317.583 25.545 L 317.083 26.250 317.000 24.167 L 316.917 22.083 314.957 22.036 L 312.998 21.989 313.041 35.620 L 313.083 49.250 315.083 49.250 L 317.083 49.250 317.133 41.333 C 317.195 31.521,317.135 32.128,318.281 29.704 C 320.682 24.625,329.593 23.714,332.917 28.208 C 333.212 28.607,333.525 29.197,333.590 29.477 C 333.625 29.627,333.768 30.068,333.909 30.458 C 334.308 31.563,334.380 33.189,334.399 41.500 L 334.417 49.250 336.382 49.297 L 338.347 49.344 338.281 40.130 C 338.217 31.216,338.098 29.005,337.675 28.864 C 337.578 28.831,337.539 28.739,337.589 28.658 C 337.726 28.436,336.588 26.162,336.008 25.500 C 335.193 24.571,334.443 23.833,334.312 23.833 C 334.245 23.833,334.088 23.731,333.962 23.605 C 333.749 23.392,332.686 22.774,332.500 22.756 C 332.454 22.751,332.148 22.619,331.821 22.463 C 330.313 21.744,326.484 21.477,324.052 21.922 M204.667 21.987 C 203.979 22.050,203.079 22.232,202.667 22.392 C 202.254 22.551,201.767 22.709,201.583 22.741 C 198.362 23.311,194.429 28.214,193.595 32.701 C 193.188 34.893,193.501 40.167,194.039 40.167 C 194.120 40.167,194.143 40.237,194.090 40.322 C 193.984 40.494,194.488 41.680,194.750 41.872 C 194.842 41.940,194.862 41.996,194.794 41.997 C 194.666 42.000,195.277 43.268,195.577 43.621 C 195.672 43.733,195.900 44.029,196.083 44.279 C 198.033 46.933,201.825 49.116,205.083 49.461 C 208.453 49.818,211.103 49.574,213.333 48.703 C 213.563 48.613,213.787 48.549,213.833 48.560 C 213.931 48.584,215.544 47.660,215.667 47.511 C 215.713 47.455,215.975 47.266,216.250 47.091 C 216.910 46.671,218.331 45.297,218.332 45.077 C 218.333 44.981,218.030 44.569,217.660 44.160 C 217.289 43.751,216.859 43.248,216.703 43.042 C 216.328 42.543,215.946 42.569,215.473 43.125 C 213.934 44.934,211.316 45.886,207.833 45.903 L 205.083 45.916 203.693 45.347 C 201.131 44.300,199.258 42.641,198.409 40.667 C 198.271 40.346,198.071 39.933,197.965 39.750 C 197.859 39.567,197.719 39.117,197.655 38.750 C 197.590 38.383,197.482 37.840,197.414 37.542 L 197.292 37.000 208.646 37.000 L 220.000 37.000 219.997 35.542 C 219.991 33.019,219.315 30.036,218.471 28.808 C 218.303 28.564,218.167 28.292,218.167 28.203 C 218.167 27.999,216.350 25.501,216.197 25.496 C 216.134 25.494,215.671 25.121,215.167 24.667 C 214.662 24.212,214.162 23.839,214.056 23.837 C 213.949 23.835,213.836 23.777,213.806 23.708 C 213.720 23.516,211.948 22.667,211.632 22.667 C 211.479 22.667,211.312 22.600,211.262 22.519 C 211.211 22.438,210.888 22.313,210.544 22.242 C 210.199 22.171,209.842 22.097,209.750 22.077 C 209.171 21.954,205.709 21.892,204.667 21.987 M382.167 25.609 C 384.345 26.393,387.167 28.393,387.167 29.151 C 387.167 29.264,387.342 29.594,387.556 29.886 C 388.717 31.469,389.337 36.140,388.677 38.333 C 388.553 38.746,388.440 39.200,388.426 39.342 C 388.262 41.005,384.340 45.167,382.936 45.167 C 382.818 45.167,382.670 45.219,382.607 45.282 C 382.543 45.346,382.325 45.421,382.121 45.450 C 381.917 45.479,381.536 45.590,381.274 45.696 C 380.662 45.943,377.860 45.926,376.856 45.668 C 375.156 45.231,373.373 44.294,372.430 43.343 C 371.408 42.312,371.000 41.852,371.000 41.734 C 371.000 41.679,370.863 41.436,370.696 41.192 C 370.212 40.487,369.620 38.975,369.545 38.250 C 369.507 37.883,369.420 37.119,369.352 36.551 C 369.215 35.406,369.436 32.774,369.742 31.917 C 370.629 29.425,372.551 27.131,374.500 26.238 C 377.019 25.083,380.022 24.837,382.167 25.609 M209.250 25.634 C 210.563 26.001,212.333 26.796,212.333 27.020 C 212.333 27.100,212.412 27.167,212.507 27.167 C 212.715 27.167,214.500 28.995,214.500 29.208 C 214.500 29.289,214.696 29.613,214.936 29.928 C 215.176 30.243,215.329 30.500,215.276 30.500 C 215.222 30.500,215.328 30.848,215.510 31.273 C 215.692 31.698,215.875 32.307,215.915 32.625 C 215.956 32.944,216.031 33.334,216.081 33.492 C 216.181 33.807,210.605 33.999,201.356 34.000 L 197.296 34.000 197.390 33.542 C 197.442 33.290,197.552 32.746,197.635 32.333 C 197.979 30.608,199.643 28.195,201.451 26.799 C 201.852 26.490,203.930 25.592,204.167 25.626 C 204.213 25.632,204.625 25.532,205.083 25.403 C 206.119 25.111,207.691 25.198,209.250 25.634 M296.026 25.812 C 299.064 26.856,301.682 30.109,301.866 33.069 L 301.917 33.889 301.000 33.882 C 300.496 33.879,296.304 33.866,291.686 33.854 L 283.288 33.833 283.411 33.042 C 283.478 32.606,283.553 32.137,283.576 32.000 C 283.600 31.863,283.780 31.388,283.976 30.945 C 284.173 30.501,284.333 30.105,284.333 30.062 C 284.333 29.931,285.644 28.204,286.050 27.801 C 287.006 26.850,288.457 26.005,289.708 25.669 C 290.144 25.552,290.500 25.400,290.500 25.331 C 290.500 24.926,294.449 25.270,296.026 25.812 M65.167 30.112 C 67.712 31.341,67.735 31.436,67.833 41.083 L 67.917 49.250 68.398 50.215 C 69.695 52.817,69.995 52.889,79.917 52.996 L 88.083 53.083 88.750 53.523 C 91.085 55.062,91.083 55.055,91.083 64.583 C 91.083 73.626,91.116 73.384,89.712 74.788 C 88.303 76.197,88.531 76.166,79.627 76.173 C 70.677 76.181,70.745 76.171,69.268 77.634 C 67.839 79.049,67.833 79.093,67.833 88.006 C 67.833 97.411,67.754 97.725,65.056 99.028 L 64.250 99.417 56.250 99.417 C 46.722 99.417,46.728 99.418,45.189 97.083 L 44.750 96.417 44.662 88.250 C 44.555 78.254,44.468 77.912,41.722 76.654 L 40.658 76.167 32.798 76.167 C 23.437 76.167,23.020 76.066,21.779 73.500 C 21.204 72.311,21.127 57.140,21.689 55.792 C 22.042 54.944,23.068 53.667,23.396 53.667 C 23.484 53.667,23.702 53.535,23.879 53.375 C 24.174 53.108,24.899 53.076,32.476 53.000 L 40.750 52.917 41.668 52.486 C 42.832 51.940,43.607 51.165,44.153 50.001 L 44.583 49.083 44.667 40.917 C 44.766 31.164,44.731 31.308,47.333 30.093 L 48.250 29.665 56.333 29.707 C 64.245 29.749,64.433 29.758,65.167 30.112 M20.277 39.292 C 20.123 39.452,19.843 39.771,19.655 40.000 L 19.315 40.417 19.512 40.000 C 19.767 39.463,20.172 39.000,20.388 39.000 C 20.482 39.000,20.432 39.131,20.277 39.292 M100.285 63.206 C 100.245 63.414,100.211 63.283,100.209 62.917 C 100.207 62.550,100.239 62.380,100.281 62.540 C 100.323 62.699,100.324 62.999,100.285 63.206 M249.532 95.642 C 249.505 105.601,249.534 114.297,249.595 114.966 L 249.707 116.182 251.589 116.156 C 253.179 116.134,253.482 116.087,253.541 115.856 C 253.580 115.706,253.576 107.012,253.533 96.535 L 253.455 77.487 251.517 77.511 L 249.579 77.534 249.532 95.642 M284.468 77.625 C 284.440 77.694,284.439 86.394,284.466 96.958 L 284.514 116.167 286.424 116.167 L 288.333 116.167 288.333 109.243 C 288.333 99.113,288.669 97.103,290.736 94.860 C 291.345 94.200,293.333 92.700,293.333 92.901 C 293.333 92.945,293.658 92.838,294.054 92.662 C 295.440 92.049,299.061 91.924,300.728 92.431 C 301.451 92.652,302.452 93.158,302.660 93.408 C 302.778 93.550,302.960 93.667,303.064 93.667 C 303.169 93.667,303.403 93.870,303.585 94.118 C 303.768 94.366,304.048 94.703,304.208 94.868 C 304.369 95.032,304.451 95.167,304.391 95.167 C 304.331 95.167,304.396 95.298,304.536 95.458 C 304.676 95.619,304.996 96.376,305.248 97.142 L 305.705 98.533 305.706 107.267 L 305.708 116.000 307.696 116.000 L 309.685 116.000 309.624 106.708 C 309.591 101.598,309.508 97.229,309.440 97.000 C 309.371 96.771,309.293 96.433,309.265 96.250 C 309.237 96.067,309.095 95.635,308.949 95.292 C 308.803 94.948,308.711 94.667,308.744 94.667 C 308.822 94.667,308.171 93.400,307.759 92.750 C 307.301 92.029,305.799 90.500,305.547 90.500 C 305.430 90.500,305.333 90.438,305.333 90.362 C 305.333 90.129,303.319 89.203,302.064 88.859 C 299.345 88.113,293.924 88.582,292.522 89.685 C 292.305 89.856,292.061 89.955,291.980 89.905 C 291.900 89.855,291.833 89.893,291.833 89.990 C 291.833 90.087,291.759 90.167,291.667 90.167 C 291.464 90.167,289.774 91.355,289.688 91.558 C 289.654 91.639,289.477 91.827,289.294 91.977 C 289.111 92.127,288.819 92.475,288.646 92.750 C 288.336 93.243,288.333 93.146,288.442 85.826 C 288.503 81.742,288.502 78.198,288.440 77.951 L 288.327 77.500 286.423 77.500 C 285.376 77.500,284.496 77.556,284.468 77.625 M147.833 98.005 L 147.833 116.177 149.792 116.130 L 151.750 116.083 151.793 107.796 L 151.836 99.508 154.460 99.463 C 155.903 99.437,160.890 99.437,165.542 99.461 L 174.000 99.506 174.001 105.211 C 174.001 108.349,174.050 112.098,174.110 113.542 L 174.219 116.167 176.193 116.167 L 178.167 116.167 178.167 98.000 L 178.167 79.833 176.100 79.833 L 174.032 79.833 174.010 87.784 C 173.997 92.157,173.965 95.757,173.938 95.784 C 173.912 95.811,168.927 95.851,162.862 95.875 L 151.833 95.917 151.833 87.875 L 151.833 79.833 149.833 79.833 L 147.833 79.833 147.833 98.005 M264.167 85.680 L 264.167 88.667 261.750 88.667 L 259.333 88.667 259.333 90.333 L 259.333 92.000 261.740 92.000 L 264.146 92.000 264.220 100.958 C 264.303 110.977,264.279 110.536,264.811 111.948 C 265.496 113.765,266.926 115.080,269.101 115.890 C 270.914 116.565,276.356 116.005,277.102 115.066 C 277.203 114.938,277.361 114.833,277.451 114.833 C 278.110 114.833,278.159 114.240,277.595 113.117 C 277.285 112.503,277.072 112.000,277.120 112.000 C 277.168 112.000,277.118 111.892,277.008 111.760 C 276.798 111.506,276.505 111.562,275.855 111.978 C 274.756 112.682,271.391 113.164,271.080 112.662 C 271.038 112.593,270.814 112.489,270.582 112.431 C 269.941 112.270,268.833 111.291,268.833 110.885 C 268.833 110.765,268.765 110.667,268.680 110.667 C 268.225 110.667,268.112 107.243,268.157 94.792 L 268.167 92.000 272.250 92.000 L 276.333 92.000 276.333 90.250 L 276.333 88.500 272.250 88.500 L 268.167 88.500 268.157 86.792 C 268.152 85.852,268.146 84.553,268.143 83.905 L 268.137 82.726 266.152 82.709 L 264.167 82.693 264.167 85.680 M196.333 88.858 C 195.737 89.032,195.067 89.214,194.844 89.262 C 194.621 89.311,194.208 89.470,193.927 89.616 C 193.646 89.762,193.285 89.945,193.125 90.024 C 192.338 90.409,191.845 90.733,191.321 91.208 C 191.145 91.369,190.937 91.500,190.861 91.500 C 190.533 91.500,188.000 94.532,188.000 94.923 C 188.000 94.997,187.900 95.175,187.777 95.320 C 187.532 95.609,187.040 96.860,186.559 98.417 C 184.845 103.963,188.000 112.391,192.513 114.326 C 192.735 114.421,193.029 114.573,193.167 114.662 C 193.515 114.889,194.932 115.518,195.197 115.564 C 195.318 115.585,195.679 115.687,196.000 115.792 C 198.137 116.489,203.625 116.461,205.006 115.747 C 205.255 115.618,205.498 115.554,205.548 115.603 C 205.638 115.693,207.161 114.992,208.406 114.288 C 209.038 113.931,211.169 112.044,211.165 111.846 C 211.163 111.793,210.863 111.428,210.498 111.034 C 210.132 110.641,209.832 110.266,209.830 110.201 C 209.826 110.028,209.063 109.333,208.877 109.333 C 208.789 109.333,208.459 109.577,208.142 109.875 C 207.027 110.925,205.556 111.913,205.167 111.874 C 205.121 111.870,204.940 111.943,204.765 112.037 C 203.630 112.644,199.322 112.882,197.633 112.431 C 196.262 112.064,195.097 111.604,194.948 111.371 C 194.874 111.255,194.752 111.197,194.677 111.243 C 194.603 111.289,194.341 111.141,194.096 110.914 C 193.850 110.686,193.608 110.500,193.558 110.500 C 193.466 110.500,192.500 109.508,192.500 109.413 C 192.500 109.357,191.910 108.639,191.472 108.163 C 191.319 107.997,191.225 107.831,191.261 107.794 C 191.298 107.757,191.184 107.445,191.008 107.100 C 190.608 106.315,190.063 104.048,190.234 103.877 C 190.304 103.807,195.377 103.724,201.508 103.693 C 212.429 103.636,212.656 103.629,212.758 103.307 C 212.838 103.057,212.698 100.168,212.583 99.667 C 212.572 99.621,212.503 99.246,212.429 98.833 C 212.355 98.421,212.222 97.946,212.134 97.777 C 212.045 97.609,211.941 97.297,211.903 97.085 C 211.843 96.756,211.119 95.252,210.714 94.615 C 210.645 94.506,210.587 94.379,210.585 94.333 C 210.568 93.931,207.953 91.167,207.590 91.167 C 207.468 91.167,207.328 91.061,207.279 90.931 C 207.229 90.801,206.977 90.580,206.719 90.440 C 205.705 89.888,204.400 89.292,204.083 89.236 C 203.900 89.203,203.225 89.027,202.583 88.845 C 201.008 88.396,197.898 88.403,196.333 88.858 M226.121 88.601 C 226.051 88.671,225.476 88.794,223.750 89.108 C 223.000 89.244,220.667 90.188,220.667 90.354 C 220.667 90.434,220.549 90.500,220.405 90.500 C 219.546 90.500,217.515 92.199,217.867 92.623 C 217.986 92.767,218.064 92.929,218.040 92.984 C 218.017 93.039,218.103 93.207,218.232 93.357 C 218.361 93.508,218.511 93.770,218.565 93.941 C 218.899 94.980,219.563 95.280,220.167 94.665 C 220.381 94.447,221.774 93.593,221.967 93.562 C 222.086 93.543,222.374 93.402,222.607 93.250 C 222.840 93.097,223.223 92.938,223.458 92.895 C 223.693 92.852,224.042 92.732,224.234 92.629 C 224.426 92.525,224.808 92.415,225.083 92.385 C 225.358 92.355,225.991 92.256,226.489 92.165 C 228.597 91.780,231.076 92.090,232.650 92.935 C 233.956 93.637,234.267 93.828,234.107 93.831 C 234.028 93.832,234.118 93.965,234.308 94.125 C 235.188 94.868,235.813 96.725,235.932 98.948 L 236.014 100.480 230.466 100.556 C 224.828 100.634,223.341 100.754,222.000 101.235 C 221.034 101.582,220.167 102.040,220.167 102.205 C 220.167 102.275,220.056 102.333,219.921 102.333 C 219.511 102.333,218.285 103.695,217.667 104.839 L 217.083 105.917 217.084 108.250 C 217.085 110.387,217.120 110.654,217.493 111.417 C 217.952 112.354,218.799 113.589,218.970 113.572 C 219.033 113.566,219.223 113.739,219.395 113.957 C 219.646 114.276,221.330 115.368,221.667 115.430 C 221.766 115.448,222.261 115.631,222.815 115.854 C 224.103 116.372,229.427 116.360,231.052 115.835 C 232.304 115.430,233.329 114.961,233.331 114.792 C 233.332 114.723,233.432 114.667,233.553 114.667 C 233.674 114.667,234.068 114.404,234.428 114.083 C 234.788 113.763,235.123 113.500,235.172 113.500 C 235.221 113.500,235.394 113.275,235.557 113.000 C 236.051 112.163,236.167 112.410,236.167 114.304 L 236.167 116.108 238.042 116.096 L 239.917 116.083 239.970 107.833 C 240.006 102.375,239.958 98.935,239.829 97.667 C 239.642 95.818,239.576 95.504,239.143 94.417 C 239.034 94.142,238.935 93.879,238.923 93.833 C 238.420 91.882,235.910 89.874,232.750 88.894 C 231.807 88.601,226.361 88.361,226.121 88.601 M201.583 92.168 C 201.583 92.208,202.056 92.330,202.625 92.437 C 202.923 92.492,203.167 92.609,203.167 92.695 C 203.167 92.782,203.236 92.810,203.322 92.757 C 203.407 92.704,203.524 92.737,203.582 92.831 C 203.639 92.924,203.832 93.000,204.010 93.000 C 204.188 93.000,204.333 93.059,204.333 93.131 C 204.333 93.203,204.540 93.385,204.792 93.536 C 205.651 94.050,207.581 96.125,207.583 96.536 C 207.583 96.602,207.715 96.809,207.875 96.997 C 208.035 97.184,208.167 97.453,208.167 97.594 C 208.167 97.735,208.281 98.071,208.420 98.341 C 208.560 98.611,208.713 99.244,208.761 99.749 L 208.848 100.667 199.507 100.667 L 190.167 100.667 190.167 100.310 C 190.167 99.783,190.818 97.684,191.220 96.917 C 191.411 96.550,191.572 96.212,191.576 96.166 C 191.583 96.082,192.325 95.240,193.250 94.266 C 193.985 93.492,196.367 92.363,197.583 92.213 C 197.950 92.167,198.287 92.095,198.333 92.051 C 198.404 91.984,201.583 92.099,201.583 92.168 M236.000 105.602 C 236.000 109.136,234.395 111.310,230.837 112.594 C 229.460 113.090,225.613 113.251,224.852 112.844 C 224.643 112.731,224.431 112.680,224.383 112.729 C 224.334 112.777,224.185 112.709,224.052 112.575 C 223.918 112.442,223.671 112.333,223.502 112.333 C 223.115 112.333,221.840 111.122,221.335 110.276 C 220.249 108.454,221.142 105.145,222.875 104.574 C 223.035 104.521,223.167 104.403,223.167 104.312 C 223.167 104.221,223.236 104.190,223.322 104.243 C 223.407 104.296,223.516 104.275,223.564 104.198 C 223.612 104.120,224.199 103.962,224.867 103.846 C 225.536 103.731,226.196 103.614,226.333 103.587 C 226.471 103.561,228.702 103.530,231.292 103.519 L 236.000 103.500 236.000 105.602 " stroke="none" fill="#fcfcfc" fill-rule="evenodd"></path><path id="path2" d="M89.167 53.885 C 89.167 53.914,89.410 54.158,89.708 54.427 L 90.250 54.917 89.760 54.375 C 89.304 53.870,89.167 53.757,89.167 53.885 " stroke="none" fill="#bec6e1" fill-rule="evenodd"></path><path id="path3" d="M57.542 16.948 C 57.702 16.990,57.965 16.990,58.125 16.948 C 58.285 16.906,58.154 16.872,57.833 16.872 C 57.512 16.872,57.381 16.906,57.542 16.948 M6.726 65.250 C 6.725 66.075,6.754 66.434,6.788 66.047 C 6.823 65.660,6.824 64.985,6.789 64.547 C 6.755 64.109,6.726 64.425,6.726 65.250 " stroke="none" fill="#9cacd4" fill-rule="evenodd"></path><path id="path4" d="M268.218 38.917 C 268.219 39.467,268.250 39.672,268.287 39.372 C 268.325 39.072,268.324 38.622,268.286 38.372 C 268.248 38.122,268.217 38.367,268.218 38.917 M6.875 63.250 C 6.877 63.617,6.911 63.747,6.951 63.540 C 6.991 63.332,6.990 63.032,6.948 62.873 C 6.906 62.714,6.874 62.883,6.875 63.250 M6.875 67.250 C 6.877 67.617,6.911 67.747,6.951 67.540 C 6.991 67.332,6.990 67.032,6.948 66.873 C 6.906 66.714,6.874 66.883,6.875 67.250 " stroke="none" fill="#d4dcec" fill-rule="evenodd"></path><path id="path5" d="" stroke="none" fill="#a8b4d8" fill-rule="evenodd"></path><path id="path6" d="M52.636 29.792 C 54.682 29.818,57.982 29.818,59.970 29.791 C 61.957 29.765,60.283 29.743,56.250 29.743 C 52.217 29.743,50.591 29.765,52.636 29.792 M21.410 64.583 C 21.410 68.892,21.432 70.678,21.458 68.553 C 21.485 66.428,21.485 62.903,21.458 60.720 C 21.432 58.536,21.410 60.275,21.410 64.583 " stroke="none" fill="#ececf4" fill-rule="evenodd"></path><path id="path7" d="M149.711 13.120 C 149.964 13.158,150.339 13.157,150.544 13.117 C 150.749 13.078,150.542 13.046,150.083 13.048 C 149.625 13.049,149.457 13.081,149.711 13.120 M91.077 64.500 C 91.077 68.671,91.098 70.377,91.125 68.292 C 91.151 66.206,91.151 62.794,91.125 60.708 C 91.098 58.623,91.077 60.329,91.077 64.500 M100.209 62.917 C 100.211 63.283,100.245 63.414,100.285 63.206 C 100.324 62.999,100.323 62.699,100.281 62.540 C 100.239 62.380,100.207 62.550,100.209 62.917 M249.539 90.167 C 249.539 90.487,249.573 90.619,249.615 90.458 C 249.657 90.298,249.657 90.035,249.615 89.875 C 249.573 89.715,249.539 89.846,249.539 90.167 M249.539 95.833 C 249.539 96.154,249.573 96.285,249.615 96.125 C 249.657 95.965,249.657 95.702,249.615 95.542 C 249.573 95.381,249.539 95.513,249.539 95.833 M52.636 99.458 C 54.682 99.485,57.982 99.485,59.970 99.458 C 61.957 99.432,60.283 99.410,56.250 99.410 C 52.217 99.410,50.591 99.432,52.636 99.458 M305.709 112.750 C 305.711 113.117,305.745 113.247,305.785 113.040 C 305.824 112.832,305.823 112.532,305.781 112.373 C 305.739 112.214,305.707 112.383,305.709 112.750 " stroke="none" fill="#f4f4f4" fill-rule="evenodd"></path><path id="path8" d="" stroke="none" fill="#fc100f8" fill-rule="evenodd"></path></g></svg>